<?xml version="1.0" encoding="UTF-8" standalone="no"?>
<!DOCTYPE svg  PUBLIC '-//W3C//DTD SVG 1.1//EN'  'http://www.w3.org/Graphics/SVG/1.1/DTD/svg11.dtd'>
<svg xmlns="http://www.w3.org/2000/svg">
<defs>
<font id="Ovo-Regular" horiz-adv-x="1413">
<font-face underline-position="42" font-weight="400" descent="-410" panose-1="2 2 5 2 7 4 0 6 4 6" units-per-em="2048" unicode-range="U+0020-2122" bbox="-180 -520 2023 1770" x-height="934" underline-thickness="85" font-family="Ovo" ascent="1638" cap-height="1356"/>
<missing-glyph horiz-adv-x="2048"/>
<glyph glyph-name=".notdef" horiz-adv-x="2048"/>
<glyph glyph-name=".null" horiz-adv-x="0"/>
<glyph glyph-name="nonmarkingreturn" horiz-adv-x="682"/>
<glyph glyph-name="space" horiz-adv-x="525" unicode=" "/>
<glyph glyph-name="exclam" horiz-adv-x="518" unicode="!" d="M170 77q0 42 31 70t73 28q44 0 71.5 -28t27.5 -71t-28.5 -72t-75.5 -29q-45 0 -72 28t-27 74zM270 310q-15 0 -25 11.5t-10 33.5q-5 390 -74 918v7q0 24 24.5 38.5t79.5 28.5q67 18 86 18q26 0 26 -23v-7q-29 -282 -39.5 -394t-21 -263.5t-15.5 -322.5q-1 -45 -31 -45z "/>
<glyph glyph-name="quotedbl" horiz-adv-x="708" unicode='&quot;' d="M234 930q-29 0 -33 35l-38 349v8q0 43 70 43q22 0 34 -2t22 -11.5t10 -27.5v-7l-34 -352q-4 -35 -31 -35zM480 930q-29 0 -33 35l-38 349v8q0 43 70 43q22 0 34 -2t22 -11.5t10 -27.5v-7l-34 -352q-4 -35 -31 -35z"/>
<glyph glyph-name="numbersign" horiz-adv-x="1163" unicode="#" d="M419 541h258l69 275h-258zM193 0l113 456h-206l20 85h207l69 275h-205l20 85h206l110 439h93l-110 -439h257l110 439h93l-110 -439h203l-20 -85h-205l-69 -275h203l-20 -85h-204l-114 -456h-91l113 456h-258l-114 -456h-91z"/>
<glyph glyph-name="dollar" horiz-adv-x="1019" unicode="$" d="M478 58q22 -2 35 -2q142 0 212.5 57.5t70.5 146.5q0 124 -193 254l-64 42zM492 836l56 455h-10q-113 0 -184 -49t-71 -132q0 -38 9 -67t33.5 -59.5t48.5 -52t73 -62.5q25 -20 45 -33zM172 117q-8 56 -34 152q-20 73 -20 89q0 36 27 36q35 0 52 -55q22 -71 38.5 -104 t51.5 -71q48 -52 112 -81l64 522q-72 48 -122 91q-193 161 -193 340q0 138 111 233.5t294 95.5h4l15 118q2 18 23 29.5t44 11.5q11 0 14.5 -3t3.5 -13q0 -2 -4 -36l-14 -114q35 -6 63 -15q57 -18 75 -18q3 0 8.5 2t7.5 2q10 2 26 2q27 0 32 -58q4 -63 19 -121q10 -54 10 -55 q0 -13 -11 -23t-23 -10q-15 0 -26 13.5t-28 51.5q-33 74 -63 104t-100 47l-61 -494l112 -74q252 -179 252 -377q0 -74 -24.5 -137t-76 -114t-140.5 -80t-207 -29h-17l-15 -126q-2 -18 -23 -29.5t-44 -11.5q-18 0 -18 14q0 2 4 38l15 124q-73 11 -158 42q-7 2 -13 5t-10.5 5 t-8 6.5t-6 6t-5 8t-3.5 8.5t-3 11t-2.5 11.5t-2 14t-2.5 15.5z"/>
<glyph glyph-name="percent" horiz-adv-x="1457" unicode="%" d="M928 311q0 -119 50 -196.5t113 -77.5q150 0 150 264q0 130 -43.5 199t-110.5 69q-70 0 -114.5 -69t-44.5 -189zM806 294q0 147 84 242t205 95q125 0 198.5 -91.5t73.5 -229.5q0 -145 -83.5 -240t-197.5 -95q-118 0 -199 88.5t-81 230.5zM375 771q150 0 150 264 q0 130 -43.5 199t-110.5 69q-70 0 -114.5 -69t-44.5 -189q0 -119 50 -196.5t113 -77.5zM370 709q-118 0 -199 88.5t-81 230.5q0 147 84 242t205 95q125 0 198.5 -91.5t73.5 -229.5q0 -145 -83.5 -240t-197.5 -95zM328 -14q0 6 14 32l673 1313q7 14 34 24t56 10q16 0 16 -11 q0 -10 -12 -32l-673 -1313q-8 -15 -35.5 -24.5t-56.5 -9.5q-16 0 -16 11z"/>
<glyph glyph-name="ampersand" horiz-adv-x="1481" unicode="&amp;" d="M90 499q0 159 99.5 285.5t247.5 171.5q-66 66 -66 140q0 120 90.5 194.5t238.5 74.5q117 0 195 -33q5 -2 18.5 -7.5t17.5 -7.5t11.5 -7t10 -11t2.5 -14q0 -4 -6 -73q-7 -85 -33 -85q-13 0 -28.5 10t-18.5 26q-27 143 -168 143q-77 0 -126.5 -55t-49.5 -128 q0 -59 31 -105.5t86 -68.5q34 -14 34 -34t-46 -28q-165 -28 -255.5 -133.5t-90.5 -268.5q0 -172 121.5 -294.5t305.5 -122.5q154 0 251.5 89.5t97.5 265.5q0 98 -53 164t-150 66q-87 0 -162.5 -61.5t-94.5 -145.5q58 -18 58 -69q0 -30 -18 -48t-45 -18q-31 0 -54.5 30 t-23.5 74q0 53 14.5 98t50 91.5t105.5 86t172 68.5q138 39 234 83t147.5 91t73.5 92t22 97q0 53 -25.5 82t-60.5 29q-43 0 -49 -42q42 -8 42 -42q0 -21 -14 -33.5t-34 -12.5q-32 0 -50 20.5t-18 50.5q0 44 36 82.5t94 38.5q67 0 118 -50.5t51 -143.5q0 -274 -354 -394 q70 -36 94 -105.5t24 -178.5q0 -85 -37.5 -164.5t-104.5 -142.5t-169.5 -101.5t-222.5 -38.5q-126 0 -233 41t-179.5 111.5t-113 166.5t-40.5 204z"/>
<glyph glyph-name="quotesingle" horiz-adv-x="462" unicode="&apos;" d="M234 930q-29 0 -33 35l-38 349v8q0 43 70 43q22 0 34 -2t22 -11.5t10 -27.5v-7l-34 -352q-4 -35 -31 -35z"/>
<glyph glyph-name="parenleft" horiz-adv-x="814" unicode="(" d="M302 15q-69 109 -110.5 259.5t-41.5 306.5q0 155 41.5 304t110.5 258q83 131 191.5 209t176.5 78q14 0 29 -12t15 -21q0 -10 -19 -18q-37 -14 -66 -31q-126 -75 -214.5 -294.5t-88.5 -473.5q0 -255 88.5 -475t214.5 -295q29 -17 66 -31q19 -8 19 -18q0 -9 -15 -21 t-29 -12q-68 0 -176.5 78t-191.5 209z"/>
<glyph glyph-name="parenright" horiz-adv-x="814" unicode=")" d="M119 -221q37 14 66 31q126 75 214.5 295t88.5 475q0 254 -88.5 473.5t-214.5 294.5q-29 17 -66 31q-19 8 -19 18q0 9 15 21t29 12q68 0 176.5 -78t191.5 -209q69 -109 110.5 -258t41.5 -304q0 -156 -41.5 -306.5t-110.5 -259.5q-83 -131 -191.5 -209t-176.5 -78 q-14 0 -29 12t-15 21q0 10 19 18z"/>
<glyph glyph-name="asterisk" horiz-adv-x="808" unicode="*" d="M299 834q-35 0 -71 33t-36 61q0 25 47 75.5t127 99.5q-60 19 -168 19q-31 0 -51 -2q-22 -2 -25 -2q-12 0 -12 11q0 48 24 88.5t52 40.5q103 0 206 -109q-2 90 -32 197q-18 57 -18 66q0 18 20 18q68 0 118 -35q16 -12 16 -57q0 -69 -53 -198q45 17 65 26t52.5 32t66.5 60 q16 16 24 16q14 0 30.5 -33.5t16.5 -70.5q0 -46 -25 -59q-28 -15 -114 -15q-66 0 -110 7q57 -91 184 -174q19 -11 19 -24q0 -19 -39 -45t-75 -26q-26 0 -64 65.5t-66 179.5q-27 -38 -51 -95.5t-35 -106.5q-10 -43 -23 -43z"/>
<glyph glyph-name="plus" horiz-adv-x="845" unicode="+" d="M380 196v316h-300v85h300v316h85v-316h300v-85h-300v-316h-85z"/>
<glyph glyph-name="comma" horiz-adv-x="413" unicode="," d="M104 99q0 24 43.5 55t90.5 31q31 0 55 -37.5t24 -102.5q0 -109 -40 -196q-55 -118 -100 -118q-20 0 -20 18q0 20 18 44q42 56 42 116q0 58 -52 99q-38 30 -49.5 46t-11.5 45z"/>
<glyph glyph-name="hyphen" horiz-adv-x="687" unicode="-" d="M104 530q-24 0 -24 18q0 24 10.5 45.5t22.5 21.5h471q23 0 23 -18q0 -24 -10.5 -45.5t-22.5 -21.5h-470z"/>
<glyph glyph-name="period" horiz-adv-x="490" unicode="." d="M130 91q0 48 35 79.5t83 31.5q50 0 81 -31.5t31 -80.5t-32.5 -82t-85.5 -33q-51 0 -81.5 32t-30.5 84z"/>
<glyph glyph-name="slash" horiz-adv-x="885" unicode="/" d="M32 -316l716 1883q5 14 35.5 24t61.5 10q16 0 16 -11q0 -8 -9 -32l-716 -1883q-6 -15 -36 -24.5t-61 -9.5q-16 0 -16 11q0 8 9 32z"/>
<glyph glyph-name="zero" horiz-adv-x="1282" unicode="0" d="M651 50q168 0 270.5 164.5t102.5 445.5q0 278 -114.5 452t-278.5 174q-170 0 -278.5 -163.5t-108.5 -441.5q0 -139 34 -258.5t90 -200.5t130 -126.5t153 -45.5zM638 -25q-160 0 -288.5 83.5t-202.5 238.5t-74 355q0 151 46.5 284t125.5 227t187.5 148t228.5 54 q160 0 285.5 -91t194 -252t68.5 -365q0 -200 -74 -356.5t-202.5 -241t-288.5 -84.5h-6z"/>
<glyph glyph-name="one" horiz-adv-x="707" unicode="1" d="M111 22q0 29 36 29q5 0 26 -3q10 -2 23 -2q60 0 79 61t19 210l-3 678q0 99 -40 118q-32 16 -84 16q-49 0 -49 27q0 11 7.5 19.5t30.5 17.5q96 40 139 65q66 39 105 76q21 21 30 26t19 5q21 0 21 -28q0 -11 -11 -54q-9 -37 -11.5 -91t-2.5 -197l3 -678q0 -149 18.5 -210 t79.5 -61q12 0 22 2q21 3 26 3q36 0 36 -29q0 -37 -64 -37q-33 0 -77 7q-47 8 -105 8q-71 0 -115 -6q-76 -9 -93 -9q-65 0 -65 37z"/>
<glyph glyph-name="two" horiz-adv-x="1082" unicode="2" d="M123 9q0 24 48 78l378 408q218 248 218 448q0 155 -84.5 249t-217.5 94q-107 0 -192 -49t-126 -131q-17 -35 -23.5 -43t-15.5 -8q-19 0 -38.5 26.5t-19.5 52.5q0 27 42 74t103 82q133 75 279 75q114 0 206 -32t150.5 -86t90 -124t31.5 -149q0 -109 -52 -206.5 t-185 -239.5l-368 -374h445q61 0 87 5t39 21q23 26 41 26q21 0 21 -31q0 -23 -26 -85q-29 -69 -39.5 -85t-28.5 -16q-25 0 -88 5q-76 6 -233 6q-172 0 -271 -6q-135 -9 -136 -9q-35 0 -35 24z"/>
<glyph glyph-name="three" horiz-adv-x="1096" unicode="3" d="M50 360q0 29 29.5 55.5t50.5 26.5q16 0 20 -47q12 -158 111.5 -249t258.5 -91q143 0 236.5 96t93.5 279q0 169 -96.5 279.5t-255.5 110.5q-27 0 -52 -5q-37 -5 -43 -5q-24 0 -24 20q0 18 30 64l202 298q-170 5 -246 5q-54 0 -71 -4t-31 -20q-21 -24 -42 -24q-25 0 -25 28 q0 18 26 61q14 24 32 71q12 37 42 37q6 0 69 -3q82 -3 155 -3q48 0 148 2q74 2 97 2q35 0 35 -17q0 -12 -29 -54l-216 -312q138 -5 242 -68.5t156.5 -166.5t52.5 -230q0 -107 -37.5 -202t-104 -165.5t-164 -112t-210.5 -41.5q-94 0 -177.5 33.5t-140 88t-89.5 124t-33 139.5 z"/>
<glyph glyph-name="four" horiz-adv-x="1144" unicode="4" d="M224 607h363v484zM404 22q0 29 36 29q5 0 26 -3q10 -2 23 -2q60 0 79 61t19 210v164h-43q-139 0 -239 -4q-113 -5 -226 -5q-29 0 -29 24q0 18 29 54l596 777q29 37 41 47.5t20 10.5q7 0 12.5 -6t5.5 -14q0 -28 -6 -120q-8 -102 -8 -352v-286h135q113 0 158 18 q24 11 34 11q22 0 22 -21q0 -16 -18 -37q-24 -28 -41 -62q-11 -22 -22.5 -28.5t-42.5 -6.5h-225v-164q0 -149 18.5 -210t79.5 -61q12 0 22 2q21 3 26 3q36 0 36 -29q0 -37 -64 -37q-33 0 -77 7q-47 8 -105 8q-70 0 -114 -6q-76 -9 -93 -9q-65 0 -65 37z"/>
<glyph glyph-name="five" horiz-adv-x="1139" unicode="5" d="M145 66q-43 30 -69 64t-26 60q0 24 20 56.5t40 32.5q9 0 16.5 -10t22.5 -41q40 -81 124 -127t192 -46q187 0 307 107t120 287q0 167 -105 276t-286 109q-88 0 -154 -22q-29 -9 -48 -25q-17 -14 -28 -14q-18 0 -18 24q0 10 5 42l67 438q4 28 7.5 40.5t14 21.5t30.5 9 q52 0 106 -4q61 -4 180 -4q141 0 169 12q18 7 24 7q18 0 18 -40q0 -28 -22 -98q-6 -18 -19 -25.5t-42 -7.5h-6l-387 13l-38 -242q83 19 171 19q229 0 373.5 -127.5t144.5 -342.5q0 -115 -51.5 -216.5t-134 -170t-187 -107.5t-211.5 -39q-193 0 -320 91z"/>
<glyph glyph-name="six" horiz-adv-x="1178" unicode="6" d="M615 -25q-152 0 -272 88.5t-184 235t-64 319.5q0 196 81 367.5t224 275.5t311 104q104 0 177.5 -40t81.5 -86q1 -4 1 -12q0 -30 -23 -56.5t-41 -26.5q-14 0 -38 33q-14 19 -27 32.5t-36.5 31t-56.5 27t-74 9.5q-82 0 -153.5 -37.5t-127 -109t-88 -188t-32.5 -263.5 q0 -283 109.5 -455t275.5 -172q122 0 202.5 96t80.5 268q0 179 -80.5 276.5t-202.5 97.5q-92 0 -160.5 -67.5t-90.5 -174.5q-8 -37 -36 -33q-22 3 -22 49q0 12 1 19q11 125 118 231.5t237 106.5q174 0 285.5 -122t111.5 -313q0 -145 -67 -263t-178.5 -183t-242.5 -65z"/>
<glyph glyph-name="seven" horiz-adv-x="971" unicode="7" d="M310 83q0 90 44.5 228.5t168.5 404.5l217 468q-132 12 -279 12q-202 0 -258.5 -6t-85.5 -25q-27 -19 -45 -19q-27 0 -27 33q0 22 21 56q32 52 40 88q9 33 40 33q74 0 169 -7q142 -9 234 -9t196 8q100 8 131 8q30 0 30 -19q0 -13 -15 -37q-29 -47 -51 -100l-206 -483 q-67 -156 -97 -284.5t-30 -259.5q0 -84 37 -93q34 -8 34 -28q0 -22 -58 -45q-54 -22 -104 -22t-78 26.5t-28 71.5z"/>
<glyph glyph-name="eight" horiz-adv-x="1131" unicode="8" d="M197 438q0 -176 106.5 -279.5t272.5 -103.5q82 0 154.5 34t119.5 100.5t47 152.5q0 118 -69.5 201.5t-249.5 176.5q-72 36 -131 72q-250 -97 -250 -354zM655 863q68 33 106 87.5t38 122.5q0 95 -59.5 153.5t-162.5 58.5q-89 0 -143 -43.5t-54 -110.5q0 -62 62 -127 t213 -141zM80 409q0 142 82.5 256.5t214.5 173.5q-148 108 -148 237q0 116 96.5 202.5t256.5 86.5q157 0 241.5 -82.5t84.5 -195.5q0 -85 -49.5 -156t-120.5 -107q164 -79 242.5 -177t78.5 -237q0 -179 -140 -307t-356 -128q-106 0 -197 35.5t-153 95t-97.5 138.5t-35.5 165 z"/>
<glyph glyph-name="nine" horiz-adv-x="1203" unicode="9" d="M223 96q0 25 13 48t30 23q5 0 9.5 -4.5t19.5 -25.5q56 -81 223 -81q85 0 159.5 41t131.5 118.5t90 198t33 270.5q0 271 -107 435.5t-273 164.5q-131 0 -218.5 -106.5t-87.5 -287.5q0 -164 86.5 -268.5t236.5 -104.5q94 0 157.5 74t63.5 194q0 21 11.5 33.5t27.5 12.5 t25.5 -18.5t9.5 -52.5q0 -146 -102.5 -252t-238.5 -106q-182 0 -315 133.5t-133 326.5q0 74 23.5 147.5t68.5 137t105.5 112.5t140 77.5t166.5 28.5q158 0 281 -88t188 -236.5t65 -330.5q0 -141 -49.5 -276t-132.5 -235.5t-198.5 -162t-240.5 -61.5q-104 0 -186.5 38.5 t-82.5 82.5z"/>
<glyph glyph-name="colon" horiz-adv-x="490" unicode=":" d="M130 91q0 48 35 79.5t83 31.5q50 0 81 -31.5t31 -80.5t-32.5 -82t-85.5 -33q-51 0 -81.5 32t-30.5 84zM242 585q-51 0 -81.5 32t-30.5 84q0 48 35 79.5t83 31.5q50 0 81 -31.5t31 -80.5t-32.5 -82t-85.5 -33z"/>
<glyph glyph-name="semicolon" horiz-adv-x="430" unicode=";" d="M118 99q0 24 43.5 55t90.5 31q31 0 55 -37.5t24 -102.5q0 -109 -40 -196q-55 -118 -100 -118q-20 0 -20 18q0 20 18 44q42 56 42 116q0 58 -52 99q-38 30 -49.5 46t-11.5 45zM242 585q-51 0 -81.5 32t-30.5 84q0 48 35 79.5t83 31.5q50 0 81 -31.5t31 -80.5t-32.5 -82 t-85.5 -33z"/>
<glyph glyph-name="less" horiz-adv-x="902" unicode="&lt;" d="M89 489q-24 22 -24 46t24 46l626 485q22 19 34 19q23 0 23 -74q0 -15 -21 -33l-563 -443l563 -443q21 -18 21 -33q0 -74 -23 -74q-12 0 -34 19z"/>
<glyph glyph-name="equal" horiz-adv-x="877" unicode="=" d="M80 438v85h717v-85h-717zM80 668v85h717v-85h-717z"/>
<glyph glyph-name="greater" horiz-adv-x="902" unicode="&gt;" d="M130 59q0 15 21 33l563 443l-563 443q-21 18 -21 33q0 74 23 74q12 0 34 -19l626 -485q24 -22 24 -46t-24 -46l-626 -485q-22 -19 -34 -19q-23 0 -23 74z"/>
<glyph glyph-name="question" horiz-adv-x="933" unicode="?" d="M364 77q0 42 31 70t73 28q44 0 71.5 -28t27.5 -71t-28.5 -72t-75.5 -29q-45 0 -72 28t-27 74zM358 409q0 39 32 87.5t126 135.5q112 104 163 201.5t51 205.5q0 107 -73.5 177.5t-186.5 70.5q-198 0 -246 -127q-24 -61 -41 -86t-40 -25q-37 0 -60.5 24.5t-23.5 48.5 q0 83 130 162q134 81 329 81q163 0 271.5 -85.5t108.5 -209.5q0 -88 -42.5 -167.5t-146.5 -182.5q-125 -125 -156.5 -167.5t-31.5 -74.5q0 -44 22 -52q28 -9 28 -34q0 -29 -34 -55.5t-71 -26.5q-108 0 -108 99z"/>
<glyph glyph-name="at" horiz-adv-x="1805" unicode="@" d="M698 346q0 -130 37.5 -201t102.5 -71q46 0 95 35t92 106q11 73 105 460q-56 74 -153 74q-70 0 -126.5 -41.5t-88 -105.5t-48 -130.5t-16.5 -125.5zM100 317q0 152 46 290t130 246.5t197 188.5t253 122.5t292 42.5q306 0 496.5 -161t190.5 -421q0 -57 -9.5 -113.5 t-35.5 -124.5t-67 -128t-110 -121t-159 -106q-114 -57 -207 -57q-46 0 -70 30t-28 98q-107 -128 -260 -128q-114 0 -180 86t-66 230q0 131 65.5 255.5t180 204.5t243.5 80q110 0 196 -67q25 9 57 41q15 17 22 21.5t17 4.5q12 0 20 -8.5t8 -22.5q0 -7 -13 -53 q-17 -58 -50 -191q-83 -343 -86 -408v-12q0 -65 31 -65q40 0 109 38q129 69 198.5 201.5t69.5 284.5q0 231 -168 381t-434 150q-150 0 -289 -61.5t-239.5 -163.5t-161 -241t-60.5 -287q0 -149 41 -271.5t107.5 -201.5t153.5 -133.5t175 -77.5t177 -23q206 0 348 139 q24 24 48 24q33 0 59 -19.5t26 -42.5q0 -27 -40.5 -58t-115.5 -60q-149 -58 -357 -58q-114 0 -223.5 31t-204.5 93.5t-167.5 148t-114 203t-41.5 250.5z"/>
<glyph glyph-name="A" d="M429 542h485l-238 596q-46 -115 -247 -596zM-20 19q0 31 47 33q27 0 40.5 3.5t32.5 18.5t37 46t44 86q275 583 491 1126q24 62 45 62q25 0 54 -71q20 -50 136.5 -339t209.5 -518.5t107 -259.5q33 -71 56 -103t42 -41t54 -10q47 -1 47 -32q0 -35 -63 -35q-31 0 -85 7 q-48 8 -104 8q-46 0 -89 -7q-56 -8 -104 -8q-65 0 -65 37q0 13 10 21.5t26 8.5q12 0 32 -4q17 -3 28 -3q36 0 49 15.5t13 51.5t-40 137l-83 208h-555q-58 -141 -81 -205q-28 -76 -28 -116q0 -50 16 -70t58 -20q14 0 30 2q18 3 30 3q16 0 26 -8t10 -21q0 -37 -65 -37 q-35 0 -80 7q-56 8 -86 8q-47 0 -94 -7q-52 -8 -89 -8q-60 0 -60 34z" unicode="A"/>
<glyph glyph-name="B" horiz-adv-x="1229" unicode="B" d="M412 116q90 -56 229 -56q144 0 230 72.5t86 215.5q0 93 -37.5 175.5t-113 136.5t-173.5 54q-137 0 -228 -5v-248q0 -216 7 -345zM405 803q111 -11 225 -11q48 0 86 4q37 5 73 65t36 132q0 147 -103 226q-84 63 -197 63q-61 0 -115 -21q-5 -78 -5 -157v-301zM65 22 q0 29 36 29q5 0 26 -3q10 -2 23 -2q37 0 57 21t30.5 80t10.5 170v706q0 112 -9 169.5t-29 80t-58 22.5q-14 0 -23 -2q-16 -3 -28 -3q-36 0 -36 29q0 37 65 37q26 0 76 -8q44 -8 96 -8q35 0 126.5 12.5t152.5 12.5q125 0 201 -32q88 -36 140.5 -105.5t52.5 -153.5 q0 -172 -145 -290q125 -34 212 -141.5t87 -241.5q0 -191 -126 -308.5t-330 -117.5q-62 0 -204 16q-81 9 -167 9q-52 0 -96 -8q-44 -7 -76 -7q-65 0 -65 37z"/>
<glyph glyph-name="C" horiz-adv-x="1488" unicode="C" d="M100 646q0 213 96.5 376.5t273 253t407.5 89.5q250 0 417 -67q32 -13 45 -31.5t19 -69.5q10 -88 10 -146q0 -39 -27 -39q-26 0 -38 42q-11 40 -51 85.5t-86 71.5q-131 74 -311 74q-256 0 -411.5 -151t-155.5 -411q0 -190 80 -341t222.5 -235.5t321.5 -84.5 q151 0 270.5 72t199.5 207q12 20 23 20q12 0 22.5 -25.5t10.5 -67.5q0 -36 -70 -101q-201 -192 -487 -192q-175 0 -322.5 53t-247.5 144t-155.5 213.5t-55.5 260.5z"/>
<glyph glyph-name="D" horiz-adv-x="1537" unicode="D" d="M417 130q134 -69 299 -69q120 0 251 57q292 132 292 508q0 309 -166.5 484t-441.5 175q-194 0 -226 -52q-11 -18 -14 -42t-3 -91v-639q0 -196 9 -331zM68 22q0 29 36 29q5 0 26 -3q10 -2 23 -2q60 0 79 61t19 210v706q0 149 -19 210t-79 61q-6 0 -13.5 -0.5t-9.5 -0.5 q-21 -3 -26 -3q-36 0 -36 29q0 37 65 37q36 0 76 -8q53 -8 96 -8q99 0 204 15q73 10 185 10q216 0 384.5 -84.5t263.5 -242t95 -363.5q0 -143 -53.5 -270t-150.5 -221t-241 -149t-316 -55q-68 0 -204 11q-97 9 -167 9q-52 0 -96 -8q-44 -7 -76 -7q-65 0 -65 37z"/>
<glyph glyph-name="E" horiz-adv-x="1153" unicode="E" d="M65 22q0 29 36 29q5 0 26 -3q10 -2 23 -2q38 0 57.5 18.5t30 77t10.5 172.5v709q0 165 -19.5 218t-78.5 53q-6 0 -13.5 -0.5t-9.5 -0.5q-21 -3 -26 -3q-36 0 -36 29q0 37 65 37q58 0 126 -7q94 -9 183 -9q21 0 231 7q187 9 317 9q28 0 37 -8.5t9 -35.5q0 -45 -7 -113 q-6 -50 -13 -66t-22 -16q-10 0 -15.5 6.5t-11.5 23.5q-12 33 -28.5 50t-50.5 29q-107 35 -354 35h-89q-24 0 -30.5 -7t-6.5 -32v-421q126 -14 224 -14q109 0 144.5 7t52.5 34q33 54 55 54q27 0 27 -28q0 -10 -16 -58q-19 -55 -19 -84q0 -12 2 -38q2 -24 2 -38q0 -72 -34 -72 q-29 0 -29 46q0 37 -7 55t-28 26q-45 15 -172 15q-112 0 -202 -11v-237q0 -228 10 -365q74 -18 182 -18q144 0 225 14t134 53q30 20 57 69q12 21 19.5 28.5t19.5 7.5q21 0 21 -29q0 -12 -9 -38q-2 -5 -6 -18.5t-9 -30t-10 -34.5q-22 -80 -37 -98.5t-62 -18.5q-163 0 -376 12 q-131 8 -216 8q-89 0 -142 -8q-47 -7 -86 -7q-55 0 -55 37z"/>
<glyph glyph-name="F" horiz-adv-x="1067" unicode="F" d="M68 22q0 29 36 29q5 0 26 -3q10 -2 23 -2q60 0 79 61t19 210v706q0 149 -19 210t-79 61q-6 0 -13.5 -0.5t-9.5 -0.5q-21 -3 -26 -3q-36 0 -36 29q0 37 65 37q58 0 126 -7q94 -9 179 -9q34 0 191 7q249 9 317 9q28 0 37 -8.5t9 -35.5q0 -45 -7 -113q-6 -50 -13 -66 t-22 -16q-10 0 -15.5 6.5t-11.5 23.5q-12 33 -28.5 50t-50.5 29q-107 35 -354 35h-49q-24 0 -30.5 -7t-6.5 -32v-443q96 -11 193 -11q109 0 144.5 7t52.5 34q33 54 55 54q27 0 27 -28q0 -10 -16 -58q-19 -55 -19 -84q0 -12 2 -38q2 -24 2 -38q0 -72 -34 -72q-29 0 -29 46 q0 37 -7 55t-28 26q-45 15 -172 15q-61 0 -171 -8v-362q0 -149 18.5 -210t79.5 -61q15 0 25 2q21 3 29 3q17 0 27.5 -8t10.5 -21q0 -37 -66 -37q-39 0 -83 7q-47 8 -105 8q-70 0 -114 -6q-76 -9 -93 -9q-65 0 -65 37z"/>
<glyph glyph-name="G" horiz-adv-x="1514" unicode="G" d="M83 652q0 323 209.5 519.5t558.5 196.5q256 0 411 -62q32 -13 45 -31.5t19 -69.5q10 -88 10 -151q0 -39 -27 -39q-26 0 -38 42q-11 41 -50.5 88.5t-83.5 72.5q-131 74 -314 74q-254 0 -402 -153t-148 -416q0 -184 77.5 -337t217.5 -243t312 -90q212 0 273 79 q41 52 41 142v217q0 47 -25.5 60t-97.5 13q-28 0 -46.5 11t-18.5 27q0 37 62 38h6q25 0 93.5 -6.5t107.5 -6.5q33 0 72.5 5.5t58.5 5.5q23 0 31 -7t8 -22q0 -13 -8 -20.5t-31 -17.5q-30 -13 -40 -52.5t-10 -155.5q0 -62 9 -137q0 -2 5 -28.5t5 -38.5q0 -21 -11.5 -36 t-45.5 -37q-80 -52 -217.5 -83t-262.5 -31q-182 0 -328.5 55.5t-238 150t-140 216t-48.5 258.5z"/>
<glyph glyph-name="H" horiz-adv-x="1522" unicode="H" d="M68 22q0 29 36 29q5 0 26 -3q10 -2 23 -2q37 0 57 21t30.5 80.5t10.5 169.5v706q0 113 -10.5 172t-30.5 79t-57 20q-6 0 -13.5 -0.5t-9.5 -0.5q-21 -3 -26 -3q-36 0 -36 29q0 37 65 37q36 0 76 -8q53 -8 122 -8q67 0 118 8q40 8 77 8q64 0 64 -37q0 -29 -36 -29 q-5 0 -26 3q-2 0 -9 0.5t-13 0.5q-37 0 -57 -21t-30.5 -80t-10.5 -170v-227h707v227q0 113 -10.5 172t-30.5 79t-57 20q-6 0 -13.5 -0.5t-9.5 -0.5q-21 -3 -26 -3q-36 0 -36 29q0 37 65 37q36 0 76 -8q53 -8 122 -8q67 0 118 8q40 8 77 8q64 0 64 -37q0 -29 -36 -29 q-5 0 -26 3q-2 0 -9 0.5t-13 0.5q-37 0 -57 -21t-30.5 -80t-10.5 -170v-706q0 -111 10.5 -170t30.5 -80t57 -21q12 0 22 2q21 3 26 3q36 0 36 -29q0 -37 -64 -37q-33 0 -77 7q-47 8 -107 8q-72 0 -116 -6q-76 -9 -93 -9q-65 0 -65 37q0 29 36 29q5 0 26 -3q10 -2 23 -2 q37 0 57 21t30.5 80.5t10.5 169.5v384h-707v-384q0 -111 10.5 -170t30.5 -80t57 -21q12 0 22 2q21 3 26 3q36 0 36 -29q0 -37 -64 -37q-33 0 -77 7q-47 8 -107 8q-72 0 -116 -6q-76 -9 -93 -9q-65 0 -65 37z"/>
<glyph glyph-name="I" horiz-adv-x="678" unicode="I" d="M81 22q0 29 36 29q5 0 26 -3q10 -2 23 -2q37 0 57 21t30.5 80.5t10.5 169.5l-5 706q0 113 -10.5 172t-30.5 79t-57 20q-6 0 -13.5 -0.5t-9.5 -0.5q-21 -3 -26 -3q-36 0 -36 29q0 37 65 37q36 0 76 -8q53 -8 122 -8t120 8q40 8 77 8q64 0 64 -37q0 -29 -36 -29q-5 0 -26 3 q-2 0 -9 0.5t-13 0.5q-37 0 -57 -21t-30.5 -80t-10.5 -170l5 -706q0 -110 12.5 -170t34 -80.5t58.5 -20.5q12 0 22 2q21 3 26 3q36 0 36 -29q0 -37 -64 -37q-33 0 -77 7q-47 8 -116 8q-72 0 -116 -6q-76 -9 -93 -9q-65 0 -65 37z"/>
<glyph glyph-name="J" horiz-adv-x="667" unicode="J" d="M-37 -101q41 0 67.5 -29t29.5 -79q12 -3 31 -3q70 0 121 95.5t51 260.5v879q0 158 -20 214.5t-78 56.5q-6 0 -13.5 -0.5t-9.5 -0.5q-21 -3 -26 -3q-36 0 -36 29q0 37 65 37q30 0 67 -7q43 -9 133 -9q73 0 116 8q50 8 77 8q64 0 64 -37q0 -29 -36 -29q-5 0 -26 3 q-2 0 -9 0.5t-13 0.5q-58 0 -78 -57t-20 -214v-846q0 -197 -101.5 -325t-259.5 -128q-72 0 -118 32t-46 81q0 26 19.5 44t48.5 18z"/>
<glyph glyph-name="K" horiz-adv-x="1319" unicode="K" d="M68 22q0 29 36 29q5 0 26 -3q10 -2 23 -2q39 0 59.5 22.5t29.5 80t9 168.5v706q0 110 -9.5 168.5t-30 80.5t-58.5 22q-6 0 -13.5 -0.5t-9.5 -0.5q-21 -3 -26 -3q-36 0 -36 29q0 37 65 37q26 0 76 -8q44 -8 122 -8q75 0 118 8q50 8 77 8q64 0 64 -37q0 -29 -36 -29 q-5 0 -26 3q-2 0 -9 0.5t-13 0.5q-56 0 -77 -55.5t-21 -215.5v-317l284 337q182 216 182 231q0 6 -4 10t-8 5.5t-12 3.5t-9 2q-29 9 -29 25q0 29 45 29q20 0 68 -4.5t63 -4.5q18 0 69 7.5t60 7.5q59 0 59 -32q0 -12 -6 -17.5t-23 -9.5q-26 -5 -49 -16q-148 -67 -364 -326 l-125 -150l508 -636q96 -97 163 -105q55 -6 55 -33q0 -30 -65 -30h-203q-53 0 -123 90l-440 588l-96 -114v-247q0 -111 9.5 -169t30 -80t58.5 -22q12 0 22 2q21 3 26 3q36 0 36 -29q0 -37 -64 -37q-33 0 -77 7q-47 8 -107 8q-72 0 -116 -6q-76 -9 -93 -9q-65 0 -65 37z"/>
<glyph glyph-name="L" horiz-adv-x="1097" unicode="L" d="M68 22q0 29 36 29q5 0 26 -3q10 -2 23 -2q60 0 79 61t19 210v706q0 149 -19 210t-79 61q-6 0 -13.5 -0.5t-9.5 -0.5q-21 -3 -26 -3q-36 0 -36 29q0 37 65 37q26 0 76 -8q44 -8 122 -8q75 0 118 8q50 8 77 8q64 0 64 -37q0 -29 -36 -29q-5 0 -26 3q-2 0 -9 0.5t-13 0.5 q-61 0 -79.5 -61t-18.5 -210v-565q0 -226 10 -363q76 -20 162 -20q172 0 265.5 39t141.5 126q12 21 19.5 28.5t19.5 7.5q21 0 21 -29q0 -13 -9 -38q-2 -5 -6 -18.5t-9 -30t-10 -34.5q-23 -85 -43.5 -115.5t-66.5 -30.5q-143 0 -356 12q-131 8 -198 8q-87 0 -140 -8 q-47 -7 -86 -7q-55 0 -55 37z"/>
<glyph glyph-name="M" horiz-adv-x="1901" unicode="M" d="M65 20q0 34 42 36q30 0 50 4.5t43.5 18t37.5 44.5t18 79q8 101 24 451.5t16 490.5q0 69 -23.5 99t-68.5 37q-51 7 -70.5 15.5t-19.5 22.5q0 17 12.5 27.5t32.5 10.5q34 0 82 -7t75 -7q32 0 56 2t32 2q22 0 38 -18.5t38 -62.5l484 -1003q29 68 146 338t206 476t94 220 q21 55 75 55q18 0 50.5 -2t43.5 -2q24 0 63.5 4.5t56.5 4.5q75 0 75 -37q0 -14 -12 -19.5t-45 -9.5q-55 -7 -88 -29.5t-33 -75.5v-9l51 -970q2 -39 12 -67t23.5 -43.5t33.5 -25t37 -12t40 -2.5q43 -2 43 -36q0 -16 -17.5 -25.5t-45.5 -9.5q-21 0 -75 7q-48 8 -102 8 q-46 0 -89 -7q-56 -8 -124 -8q-65 0 -65 37q0 31 55 31q51 0 73 14t29 45q4 15 4 85v94q0 87 -39 858l-473 -1084q-27 -59 -47 -59q-13 0 -22 12t-27 49l-484 997q-14 -185 -26 -501t-12 -430q0 -82 133 -82q16 0 26 -8t10 -21q0 -37 -65 -37q-48 0 -104 8q-43 7 -58 7 q-40 0 -88 -8q-56 -7 -75 -7q-28 0 -45.5 9.5t-17.5 25.5z"/>
<glyph glyph-name="N" horiz-adv-x="1555" unicode="N" d="M71 22q0 29 36 29q5 0 26 -3q10 -2 23 -2q60 0 79 61t19 210v704q0 149 -19 209.5t-79 60.5q-11 0 -25 -2q-21 -3 -24 -3q-16 0 -26 8t-10 22q0 39 65 39q31 0 76 -9q51 -6 55 -6q39 0 75 6l921 -1071v748q0 146 -21 208.5t-82 62.5q-8 0 -24 -2t-25 -2q-16 0 -26 8 t-10 21q0 37 65 37q36 0 76 -8q48 -8 88 -8q19 0 89 9q46 7 80 7q65 0 65 -37q0 -13 -10 -21t-26 -8q-6 0 -22 2t-27 2q-61 0 -79.5 -61t-18.5 -210v-1010q0 -33 -6 -44.5t-20 -11.5q-11 0 -21.5 8t-34.5 34l-922 1068v-750q0 -149 18.5 -210t79.5 -61q12 0 22 2q21 3 26 3 q36 0 36 -29q0 -37 -64 -37q-33 0 -77 7q-47 8 -87 8q-32 0 -76 -6q-76 -9 -93 -9q-65 0 -65 37z"/>
<glyph glyph-name="O" horiz-adv-x="1585" unicode="O" d="M271 747q0 -142 43 -268.5t119 -219t186 -147t237 -54.5q197 0 325 150t128 398q0 145 -42 271.5t-115 215t-175.5 139t-219.5 50.5q-95 0 -183.5 -40t-155.5 -109.5t-107 -170t-40 -215.5zM100 675q0 198 97 357.5t256.5 246t347.5 86.5q201 0 357.5 -92t241.5 -252.5 t85 -361.5q0 -142 -52 -267.5t-143 -217.5t-222.5 -145.5t-283.5 -53.5q-198 0 -355 92t-243 251.5t-86 356.5z"/>
<glyph glyph-name="P" horiz-adv-x="1072" unicode="P" d="M68 22q0 29 36 29q5 0 26 -3q10 -2 23 -2q60 0 79 61t19 210v706q0 149 -19 210t-79 61q-6 0 -13.5 -0.5t-9.5 -0.5q-21 -3 -26 -3q-36 0 -36 29q0 37 65 37q26 0 76 -8q44 -8 122 -8q76 0 111 7q58 9 84 9q109 0 199.5 -35.5t147.5 -95t88 -133.5t31 -153 q0 -102 -56 -191t-146 -140t-188 -51q-74 0 -123.5 22t-49.5 55q0 15 9 24t21 9q18 0 44 -20q39 -27 101 -27q103 0 161 85t58 230q0 162 -88 256.5t-228 94.5q-51 0 -75 -14.5t-24 -47.5v-907q0 -149 18.5 -210t79.5 -61q12 0 22 2q21 3 26 3q36 0 36 -29q0 -37 -64 -37 q-33 0 -77 7q-47 8 -107 8q-72 0 -116 -6q-76 -9 -93 -9q-65 0 -65 37z"/>
<glyph glyph-name="Q" horiz-adv-x="1569" unicode="Q" d="M271 747q0 -142 43 -269t119 -221t186 -149t237 -55q197 0 325 152t128 401q0 145 -42 271.5t-115 215t-175.5 139t-219.5 50.5q-95 0 -183.5 -40t-155.5 -109.5t-107 -170t-40 -215.5zM100 675q0 198 97 357.5t256.5 246t347.5 86.5q201 0 357.5 -92t241.5 -252.5 t85 -361.5q0 -219 -118 -391.5t-318 -246.5q105 -5 207 -44q38 -14 109 -48.5t125.5 -55t95.5 -20.5t71 12q22 8 32 8q9 0 14.5 -5t5.5 -12q0 -30 -57 -52.5t-132 -22.5q-53 0 -150 25t-208 72q-228 97 -378 97q-198 0 -355 92t-243 251.5t-86 356.5z"/>
<glyph glyph-name="R" horiz-adv-x="1302" unicode="R" d="M408 676q64 -7 163 -7h25q44 0 86 16.5t77.5 49t57 87t21.5 123.5q0 160 -94 250.5t-237 90.5q-51 0 -75 -14.5t-24 -47.5v-548zM68 22q0 29 36 29q5 0 26 -3q10 -2 23 -2q60 0 79 61t19 210v706q0 149 -19 210t-79 61q-6 0 -13.5 -0.5t-9.5 -0.5q-21 -3 -26 -3 q-36 0 -36 29q0 37 65 37q26 0 76 -8q44 -8 122 -8q75 0 118 8q50 8 77 8q224 0 351.5 -95t127.5 -253q0 -112 -66.5 -212.5t-178.5 -155.5l325 -472q39 -57 76 -78.5t84 -26.5q36 -4 48 -11t12 -23q0 -29 -55 -29h-192q-69 0 -125 90l-252 403q-34 54 -65.5 76t-73.5 22 q-70 0 -134 -3v-271q0 -149 18.5 -210t79.5 -61q12 0 22 2q21 3 26 3q36 0 36 -29q0 -37 -64 -37q-33 0 -77 7q-47 8 -107 8q-72 0 -116 -6q-76 -9 -93 -9q-65 0 -65 37z"/>
<glyph glyph-name="S" horiz-adv-x="1019" unicode="S" d="M172 117q-8 56 -34 152q-20 73 -20 89q0 36 27 36q35 0 52 -55q22 -71 38.5 -104t51.5 -71q41 -44 101 -76t125 -32q142 0 212.5 57.5t70.5 146.5q0 124 -193 254q-34 23 -78 51.5t-67.5 44t-55 38.5t-61.5 48q-193 161 -193 340q0 138 111 233.5t294 95.5q81 0 149 -22 q57 -18 75 -18q3 0 8.5 2t7.5 2q10 2 26 2q27 0 32 -58q4 -63 19 -121q10 -54 10 -55q0 -13 -11 -23t-23 -10q-15 0 -26 13.5t-28 51.5q-33 74 -63 104q-26 26 -80 42t-111 16q-113 0 -184 -49t-71 -132q0 -38 9 -67t33.5 -59.5t48.5 -52t73 -62.5q25 -21 118 -81.5 t115 -75.5q252 -179 252 -377q0 -74 -24.5 -137t-76 -114t-140.5 -80t-207 -29q-108 0 -256 51q-7 2 -13 5t-10.5 5t-8 6.5t-6 6t-5 8t-3.5 8.5t-3 11t-2.5 11.5t-2 14t-2.5 15.5z"/>
<glyph glyph-name="T" horiz-adv-x="1215" unicode="T" d="M345 22q0 29 36 29q5 0 26 -3q10 -2 23 -2q60 0 79 61t19 210v935h-27q-116 0 -202 -17t-115 -36q-42 -26 -60 -72q-10 -26 -19 -36t-21 -10q-29 0 -29 34q0 10 18 68q13 49 16 85q5 54 12.5 71t27.5 17q17 0 45 -5q66 -11 163 -11h634q62 0 109 9q32 7 47 7q33 0 33 -31 q0 -13 -9 -44q-11 -38 -16 -78q-9 -71 -18 -93.5t-27 -22.5q-12 0 -17 11t-10 47q-9 62 -45.5 84.5t-117.5 22.5h-215v-935q0 -149 18.5 -210t79.5 -61q12 0 22 2q21 3 26 3q36 0 36 -29q0 -37 -64 -37q-33 0 -77 7q-47 8 -107 8q-72 0 -116 -6q-76 -9 -93 -9q-65 0 -65 37z "/>
<glyph glyph-name="U" horiz-adv-x="1506" unicode="U" d="M410 333q40 -125 140.5 -197t227.5 -72q169 0 258.5 56.5t132.5 173.5q30 81 30 240l-2 489q0 149 -19 210t-79 61q-7 0 -23 -2t-26 -2q-36 0 -36 29q0 37 65 37q26 0 76 -8q44 -8 96 -8q45 0 88 8q45 8 77 8q64 0 64 -37q0 -29 -36 -29q-7 0 -23 2t-25 2 q-61 0 -79.5 -61t-18.5 -210l-2 -540q0 -224 -143 -366t-380 -142q-259 0 -410.5 145t-151.5 409v494q0 146 -20.5 208.5t-81.5 62.5q-7 0 -25 -2q-16 -2 -24 -2q-36 0 -36 29q0 37 65 37q30 0 80 -8q44 -8 129 -8q90 0 133 8q40 8 81 8q64 0 64 -37q0 -29 -36 -29 q-7 0 -21 2q-16 2 -27 2q-61 0 -81.5 -62t-20.5 -209v-416q0 -213 20 -274z"/>
<glyph glyph-name="V" d="M672 18l-463 1117q-38 91 -67 120t-79 30q-43 2 -43 36q0 15 16.5 25t46.5 10q21 0 75 -7q54 -9 104 -9q39 0 89 8q56 8 104 8q65 0 65 -34q0 -14 -11.5 -23t-31.5 -9q-60 0 -85.5 -15t-25.5 -46q0 -40 40 -137l362 -868l313 865q29 78 29 119q0 82 -124 82q-43 0 -43 34 q0 32 65 32q46 0 88 -8q48 -8 84 -8q41 0 81 8q37 8 69 8q28 0 45.5 -9.5t17.5 -25.5q0 -34 -42 -36q-52 -1 -83.5 -30.5t-65.5 -119.5l-431 -1126q-24 -62 -45 -62q-25 0 -54 71z" unicode="V"/>
<glyph glyph-name="W" horiz-adv-x="2043" unicode="W" d="M672 18l-466 1113q-39 93 -66.5 123t-76.5 31q-43 2 -43 36q0 15 16.5 25t46.5 10q21 0 75 -7q54 -9 104 -9q39 0 89 8q56 8 84 8q65 0 65 -34q0 -15 -11.5 -25.5t-31.5 -10.5q-59 0 -77 -12.5t-18 -44.5q0 -40 40 -137l363 -871l256 620l-94 279q-33 98 -69.5 130.5 t-103.5 34.5q-43 2 -43 36q0 15 16.5 25t46.5 10q21 0 75 -7q54 -9 104 -9q68 0 118 8q56 8 104 8q65 0 65 -34q0 -14 -11.5 -23t-31.5 -9q-115 0 -115 -61q0 -64 40 -178l281 -821l308 859q29 81 29 119q0 82 -124 82q-43 0 -43 34q0 32 65 32q46 0 88 -8q48 -8 84 -8 q41 0 81 8q37 8 69 8q28 0 45.5 -9.5t17.5 -25.5q0 -34 -42 -36q-52 -1 -83.5 -30t-65.5 -120l-429 -1126q-24 -62 -48 -62q-30 0 -54 71l-236 695l-294 -704q-26 -62 -45 -62q-25 0 -54 71z"/>
<glyph glyph-name="X" horiz-adv-x="1319" unicode="X" d="M35 20q0 34 42 36q72 1 124.5 50t134.5 187l236 394l-265 443q-56 96 -87 126t-73 30q-52 0 -52 34q0 36 65 36q28 0 84 -8q50 -8 91 -8q32 0 86 8q50 8 73 8q63 0 63 -31q0 -36 -49 -36q-61 0 -61 -34q0 -37 39 -103l181 -307l183 304q43 73 43 104q0 37 -78 37 q-16 0 -26 8t-10 21q0 37 65 37q18 0 74 -8q43 -7 58 -7q37 0 85 8q56 7 75 7q28 0 45.5 -9.5t17.5 -25.5q0 -36 -42 -36q-49 0 -83.5 -16t-77 -68t-98.5 -153l-176 -295l303 -511q108 -184 216 -186q43 -2 43 -36q0 -16 -17.5 -25.5t-45.5 -9.5q-31 0 -85 7q-48 8 -92 8 q-30 0 -73 -7q-56 -8 -94 -8q-65 0 -65 37q0 13 10 21t26 8q29 0 44.5 5t18.5 11.5t3 19.5q0 30 -53 119l-234 389l-241 -403q-43 -73 -43 -104q0 -37 78 -37q16 0 26 -8t10 -21q0 -37 -65 -37q-18 0 -74 8q-43 7 -58 7q-39 0 -87 -8q-56 -7 -75 -7q-28 0 -45.5 9.5 t-17.5 25.5z"/>
<glyph glyph-name="Y" horiz-adv-x="1260" unicode="Y" d="M373 22q0 29 36 29q5 0 26 -3q10 -2 23 -2q60 0 79 61t19 210v350l-315 465q-64 94 -97.5 123t-80.5 30q-43 2 -43 36q0 15 16.5 25t46.5 10q26 0 80 -8q50 -8 79 -8q39 0 89 8q56 8 74 8q65 0 65 -34q0 -32 -62 -32q-49 0 -49 -36q0 -21 36 -76l276 -418l212 336 q75 118 75 152q0 42 -67 42q-58 0 -58 34q0 32 65 32q21 0 67 -8q48 -8 75 -8q22 0 71 9q33 7 59 7q29 0 49.5 -9.5t20.5 -25.5q0 -36 -47 -36q-49 0 -84 -31t-110 -143l-286 -430v-364q0 -149 18.5 -210t79.5 -61q12 0 22 2q21 3 26 3q36 0 36 -29q0 -37 -64 -37 q-33 0 -77 7q-47 8 -107 8q-72 0 -116 -6q-76 -9 -93 -9q-65 0 -65 37z"/>
<glyph glyph-name="Z" horiz-adv-x="1312" unicode="Z" d="M55 0q0 9 54 86l824 1159q-95 14 -233 14q-232 0 -341 -31q-64 -18 -96.5 -43.5t-58.5 -72.5q-18 -34 -42 -34q-12 0 -20.5 8t-8.5 23q0 9 18 67q16 53 20 111q3 34 15 51.5t46 17.5q16 0 49 -1.5t88.5 -3.5t97.5 -4q182 -7 411 -7q66 0 163 9q61 7 97 7q39 0 39 -24 q0 -20 -70 -119l-789 -1135h515q119 0 196.5 18.5t114.5 47.5t56 74q9 22 17.5 31t20.5 9q29 0 29 -33q0 -18 -17 -78q-16 -54 -25 -132q-5 -40 -49 -40q-1 0 -115 10q-98 8 -180 8q-258 0 -465 -3q-51 0 -169 -1.5t-166 -1.5q-26 0 -26 13z"/>
<glyph glyph-name="bracketleft" horiz-adv-x="712" unicode="[" d="M200 -239v1636q0 20 6.5 26.5t25.5 6.5h341q17 0 28 -19t11 -30q0 -15 -27 -15q-145 0 -228 -17v-1540q83 -17 228 -17q27 0 27 -15q0 -11 -11 -30t-28 -19h-341q-19 0 -25.5 6.5t-6.5 26.5z"/>
<glyph glyph-name="backslash" horiz-adv-x="885" unicode="\" d="M749 -325l-716 1883q-9 24 -9 32q0 11 16 11q31 0 61.5 -10t35.5 -24l716 -1883q9 -24 9 -32q0 -11 -16 -11q-31 0 -61 9.5t-36 24.5z"/>
<glyph glyph-name="bracketright" horiz-adv-x="712" unicode="]" d="M127 -208q145 0 228 17v1540q-83 17 -228 17q-27 0 -27 15q0 11 11 30t28 19h341q19 0 25.5 -6.5t6.5 -26.5v-1636q0 -20 -6.5 -26.5t-25.5 -6.5h-341q-17 0 -28 19t-11 30q0 15 27 15z"/>
<glyph glyph-name="asciicircum" horiz-adv-x="848" unicode="^" d="M144 866q-64 0 -64 23q0 10 16 34l282 409q17 24 46 24t46 -24l282 -409q16 -24 16 -34q0 -23 -62 -23q-25 0 -40 21l-244 345l-240 -345q-14 -21 -38 -21z"/>
<glyph glyph-name="underscore" horiz-adv-x="622" unicode="_" d="M0 1h622v-85h-622v85z"/>
<glyph glyph-name="grave" horiz-adv-x="557" unicode="`" d="M371 1113l-279 108q-19 8 -19 21q0 30 19 62q25 41 44 41q9 0 23 -8l282 -179q18 -12 23.5 -17.5t5.5 -13.5q0 -14 -9.5 -25.5t-20.5 -11.5q-9 0 -69 23z"/>
<glyph glyph-name="a" horiz-adv-x="1033" unicode="a" d="M275 289q0 -93 51.5 -154t139.5 -61q73 0 136 28t101 84q-3 28 -3 62v203q-74 41 -191 41q-102 0 -168 -55.5t-66 -147.5zM101 252q0 144 125 228t321 84q60 0 153 -20v78q0 257 -217 257q-65 0 -105 -27.5t-69 -89.5q-40 -84 -95 -84q-26 0 -50 19t-24 45q0 30 27 63 t68 59q127 79 274 79q78 0 139.5 -16.5t110 -51.5t74.5 -95t26 -142v-399q0 -75 14.5 -98t52.5 -23q16 0 40 8t26 8q13 0 21 -7.5t8 -18.5q0 -28 -58 -51q-58 -22 -91 -52q-32 -30 -51 -30q-23 0 -43 17.5t-40 63.5q-8 17 -20 51q-56 -64 -137.5 -98t-169.5 -34 q-144 0 -227 77t-83 200z"/>
<glyph glyph-name="b" horiz-adv-x="1125" unicode="b" d="M349 198q36 -70 105 -109t156 -39q123 0 194.5 96.5t71.5 262.5q0 196 -77.5 313.5t-204.5 117.5q-72 0 -138.5 -36.5t-106.5 -107.5v-498zM168 15q0 15 6 31q16 50 17 247l3 811q0 96 -22 137q-17 31 -69 38q-50 8 -50 33q0 23 49 33q120 23 186 60q44 25 65 25 q10 0 16.5 -6.5t6.5 -16.5q0 -6 -2 -14t-5.5 -18.5t-5.5 -17.5q-14 -56 -14 -245v-305q54 67 133 101.5t159 34.5q126 0 218.5 -64.5t138.5 -171t46 -239.5q0 -110 -37.5 -203.5t-101.5 -156t-149 -98t-179 -35.5q-163 0 -277 72q-28 -10 -53 -31q-5 -4 -12.5 -11.5 t-11.5 -10.5t-10.5 -6t-13.5 -3q-13 0 -22 9t-9 21z"/>
<glyph glyph-name="c" horiz-adv-x="950" unicode="c" d="M567 943h12q62 -2 121.5 -18t99.5 -42q94 -62 97 -134v-1q0 -25 -25 -41t-52 -18h-7q-45 0 -71 54q-33 69 -80.5 98.5t-116.5 29.5q-121 0 -204 -102.5t-83 -273.5q0 -191 91 -310t252 -119q112 0 193 84q36 36 58 36q13 0 23 -10t10 -27q0 -22 -33.5 -55.5t-83.5 -62.5 q-96 -56 -237 -56q-200 0 -324 135t-124 341q0 215 138 353.5t346 138.5z"/>
<glyph glyph-name="d" horiz-adv-x="1101" unicode="d" d="M248 507q0 -99 27.5 -182t73.5 -136t104 -82t121 -29q132 0 203 94q-5 36 -5 86v486q-43 58 -108 91t-144 33q-121 0 -196.5 -95t-75.5 -266zM81 452q0 134 61 246.5t169 178.5t240 66q134 0 221 -50v211q0 96 -22 137q-18 31 -67 38q-50 8 -50 33q0 23 49 33 q117 23 184 60q44 25 65 25q10 0 16.5 -6.5t6.5 -16.5q0 -6 -2 -14t-5.5 -18.5t-5.5 -17.5q-14 -56 -14 -245v-819q0 -108 16.5 -150.5t53.5 -42.5q11 0 32 7q18 6 28 6q13 0 21 -7.5t8 -18.5q0 -14 -12.5 -25t-44.5 -24q-49 -19 -85 -51q-32 -30 -51 -30q-23 0 -42.5 17.5 t-39.5 63.5q-9 20 -18 51q-105 -114 -281 -114q-136 0 -235.5 66t-147.5 172.5t-48 238.5z"/>
<glyph glyph-name="e" horiz-adv-x="985" unicode="e" d="M252 521q250 13 464 38q22 2 30.5 13.5t8.5 50.5q0 111 -68.5 180.5t-165.5 69.5q-112 0 -189 -95.5t-80 -256.5zM81 457q0 144 64 256.5t171 172t237 59.5q164 0 262.5 -105.5t98.5 -259.5q0 -47 -13 -67.5t-42 -24.5q-18 -3 -125 -9t-250 -15t-230 -17 q14 -176 103.5 -275.5t237.5 -99.5q61 0 121.5 21.5t99.5 62.5q36 36 58 36q15 0 24 -13t9 -30q0 -22 -30.5 -53t-87.5 -64q-97 -57 -256 -57q-206 0 -329 135.5t-123 346.5z"/>
<glyph glyph-name="f" horiz-adv-x="696" unicode="f" d="M90 22q0 29 37 29q10 0 21 -2.5t19 -2.5q25 0 37.5 7.5t21.5 38t11 80t2 145.5v522l-94 2q-17 0 -17 19q0 22 9 41t24 19h78v3q0 279 77.5 418t244.5 139q73 0 131 -25q98 -43 98 -100q0 -24 -19 -40t-45 -17h-5q-24 0 -45 12.5t-56 51.5q-26 29 -38 35q-21 11 -61 11 q-74 0 -96.5 -105.5t-22.5 -364.5v-18h210q18 0 25 -6t7 -21q0 -16 -10 -38.5t-24 -22.5h-1l-207 4v-517q0 -131 7 -185t22.5 -70t54.5 -16q19 0 52 3.5t47 3.5q22 0 33.5 -9.5t11.5 -23.5q0 -37 -73 -37q-38 0 -114 7.5t-116 7.5q-37 0 -93.5 -7.5t-76.5 -7.5q-67 0 -67 37 z"/>
<glyph glyph-name="g" horiz-adv-x="1038" unicode="g" d="M225 -152q0 -90 99.5 -158.5t253.5 -68.5q150 0 227.5 43t77.5 144q0 56 -28 93.5t-105 66t-212 45.5q-99 12 -171 27q-142 -56 -142 -192zM544 364q79 0 128 58t49 170q0 133 -61 208t-168 75q-79 0 -131.5 -59.5t-52.5 -157.5q0 -136 69.5 -215t166.5 -79zM73 -185 q0 161 214 245q-81 25 -112.5 55t-31.5 70q0 49 142 168q-70 45 -108 114.5t-38 148.5v6q2 135 108 228t277 93q75 0 148 -27q46 101 120 153.5t145 52.5q53 0 89 -29.5t36 -68.5q0 -27 -24 -46t-57 -19q-30 0 -63 27q-28 23 -65 23q-20 0 -47 -17.5t-43 -44.5 q-17 -29 -27 -63q72 -44 114.5 -113t42.5 -152q0 -134 -110.5 -229t-274.5 -95q-91 0 -160 27q-58 -48 -58 -67q0 -18 14.5 -31.5t70 -29t155.5 -27.5q261 -30 374.5 -105t113.5 -202q0 -137 -145.5 -237t-345.5 -100q-199 0 -326.5 82t-127.5 210z"/>
<glyph glyph-name="h" horiz-adv-x="1215" unicode="h" d="M68 22q0 29 37 29q5 0 26 -3q10 -2 24 -2q33 0 48 18t22 74t7 179v786q0 97 -22 138q-18 31 -67 38q-50 8 -50 33q0 7 2.5 12t14 11t32.5 10q117 23 184 60q43 25 65 25q10 0 16.5 -6.5t6.5 -16.5q0 -6 -2 -14t-5.5 -18.5t-5.5 -17.5q-14 -56 -14 -246v-390 q53 104 142.5 163t188.5 59q149 0 227.5 -86.5t78.5 -263.5v-276q0 -123 7 -179t22 -74t48 -18q12 0 24 2q21 3 26 3q37 0 37 -29q0 -37 -67 -37q-21 0 -83 8q-70 7 -89 7q-25 0 -95 -7q-62 -8 -83 -8q-67 0 -67 37q0 29 37 29q6 0 27 -3q10 -2 23 -2q33 0 48.5 17.5 t22.5 74.5t7 179v228q0 285 -210 285q-96 0 -171.5 -72.5t-100.5 -215.5v-225q0 -123 7 -179t22 -74t48 -18q14 0 24 2q21 3 26 3q37 0 37 -29q0 -37 -66 -37q-20 0 -84 8q-68 7 -87 7q-28 0 -96 -7q-64 -8 -84 -8q-66 0 -66 37z"/>
<glyph glyph-name="i" horiz-adv-x="585" unicode="i" d="M67 22q0 29 37 29q3 0 27 -3q10 -2 23 -2q33 0 48.5 17.5t22.5 74.5t7 179v301q0 104 -18 137q-16 30 -71 38q-51 8 -51 33q0 23 50 33q118 23 184 60q44 25 67 25q10 0 16.5 -6.5t6.5 -16.5q0 -2 -12 -50q-15 -55 -15 -245v-309q0 -122 7 -179t22.5 -74.5t48.5 -17.5 q13 0 23 2q24 3 27 3q37 0 37 -29q0 -37 -67 -37q-21 0 -83 8q-70 7 -91 7q-26 0 -96 -7q-62 -8 -83 -8q-67 0 -67 37zM303 1140q-46 0 -73.5 28.5t-27.5 73.5q0 42 31.5 70t74.5 28q45 0 73 -28t28 -71t-29.5 -72t-76.5 -29z"/>
<glyph glyph-name="j" horiz-adv-x="570" unicode="j" d="M232 -46v664q0 105 -17 137q-15 29 -81 38q-50 7 -50 33q0 7 2.5 12t14 11t32.5 10q137 27 196 60q44 25 65 25q10 0 16.5 -6.5t6.5 -16.5q0 -2 -12 -50q-15 -55 -15 -245v-639q0 -245 -91 -376t-258 -131q-88 0 -154.5 37t-66.5 92q0 24 24.5 44t57.5 20q40 0 82 -61 q27 -39 41.5 -49.5t35.5 -10.5h18q153 0 153 402zM299 1140q-46 0 -73.5 28.5t-27.5 73.5q0 42 31.5 70t74.5 28q45 0 73 -28t28 -71t-29.5 -72t-76.5 -29z"/>
<glyph glyph-name="k" horiz-adv-x="1097" unicode="k" d="M50 22q0 29 37 29q5 0 26 -3q10 -2 24 -2q33 0 48 18t22 74t7 179v786q0 97 -22 138q-18 31 -67 38q-50 8 -50 33q0 7 2.5 12t14 11t32.5 10q117 23 184 60q43 25 65 25q10 0 16.5 -6.5t6.5 -16.5q0 -6 -2 -14t-5.5 -18.5t-5.5 -17.5q-14 -56 -14 -246v-598l300 286 q26 25 26 40q0 22 -49 40q-28 10 -28 31q0 25 44 25q15 0 57 -6q34 -4 59 -4q52 0 108 6q46 4 62 4q65 0 65 -29q0 -26 -55 -31q-77 -9 -184 -103l-202 -177l315 -473q46 -71 133 -71q27 0 42 -9t15 -23q0 -34 -59 -34q-27 0 -54 5q-32 6 -62 6q-16 0 -36 -5q-28 -6 -45 -6 q-24 0 -38 11t-47 53l-287 437l-80 -71v-98q0 -116 5.5 -174t17.5 -77.5t35 -19.5q9 0 30 3q12 2 20 2q36 0 36 -29q0 -37 -66 -37q-12 0 -20.5 1t-20 3.5t-23.5 3.5q-68 7 -87 7q-28 0 -96 -7q-64 -8 -84 -8q-66 0 -66 37z"/>
<glyph glyph-name="l" horiz-adv-x="590" unicode="l" d="M56 22q0 29 37 29q5 0 26 -3q10 -2 24 -2q33 0 48 18t22 74t7 179v745q0 97 -22 138q-8 15 -12 20t-12.5 10.5t-22.5 7.5q-50 8 -50 33q0 7 2.5 12t14 11t32.5 10q87 17 164 60q43 25 65 25q10 0 16.5 -6.5t6.5 -16.5q0 -6 -2 -14t-5.5 -18.5t-5.5 -17.5 q-14 -56 -14 -246v-753q0 -123 7 -179t22 -74t48 -18q14 0 24 2q21 3 26 3q37 0 37 -29q0 -37 -66 -37q-20 0 -84 8q-68 7 -87 7q-28 0 -96 -7q-64 -8 -84 -8q-66 0 -66 37z"/>
<glyph glyph-name="m" horiz-adv-x="1794" unicode="m" d="M58 22q0 29 37 29q5 0 26 -3q10 -2 24 -2q33 0 48 18t22 74t7 179v299q0 106 -17 138q-17 30 -72 38q-50 8 -50 33q0 7 2.5 12t14 11t32.5 10q117 23 184 60q43 25 65 25q10 0 16.5 -6.5t6.5 -16.5q0 -6 -2 -14t-5.5 -18.5t-5.5 -17.5q-9 -37 -12 -106q57 84 140 131.5 t169 47.5q233 0 289 -208q57 96 146 152t182 56q149 0 227.5 -86.5t78.5 -263.5v-276q0 -123 7 -179t22 -74t48 -18q12 0 24 2q21 3 26 3q37 0 37 -29q0 -37 -67 -37q-21 0 -83 8q-70 7 -89 7q-25 0 -95 -7q-62 -8 -83 -8q-67 0 -67 37q0 29 37 29q6 0 27 -3q10 -2 23 -2 q33 0 48.5 17.5t22.5 74.5t7 179v228q0 148 -51.5 215t-153.5 67q-79 0 -149 -62t-108 -171v-1v-276q0 -123 7 -179t22 -74t48 -18q12 0 24 2q21 3 26 3q37 0 37 -29q0 -37 -67 -37q-21 0 -83 8q-70 7 -89 7q-25 0 -95 -7q-62 -8 -83 -8q-67 0 -67 37q0 29 37 29q6 0 27 -3 q10 -2 23 -2q33 0 48.5 17.5t22.5 74.5t7 179v228q0 148 -51.5 215t-153.5 67q-79 0 -149 -62t-108 -171v-277q0 -123 7 -179t22 -74t48 -18q14 0 24 2q21 3 26 3q37 0 37 -29q0 -37 -66 -37q-20 0 -84 8q-68 7 -87 7q-28 0 -96 -7q-64 -8 -84 -8q-66 0 -66 37z"/>
<glyph glyph-name="n" horiz-adv-x="1197" unicode="n" d="M55 22q0 29 37 29q5 0 26 -3q10 -2 27 -2q33 0 48 18t22 74t7 179v299q0 106 -17 138q-17 30 -78 38q-50 8 -50 33q0 7 2.5 12t14 11t32.5 10q127 25 190 60q43 25 65 25q10 0 16.5 -6.5t6.5 -16.5q0 -6 -2 -14t-5.5 -18.5t-5.5 -17.5q-10 -37 -13 -128q56 94 142 147.5 t180 53.5q150 0 232 -87t82 -263v-276q0 -123 7 -179t22 -74t48 -18q14 0 26 2q21 3 26 3q37 0 37 -29q0 -37 -67 -37q-23 0 -85 8q-70 7 -89 7q-25 0 -95 -7q-62 -8 -85 -8q-67 0 -67 37q0 29 37 29q6 0 27 -3q10 -2 25 -2q33 0 48.5 17.5t22.5 74.5t7 179v228 q0 286 -208 286q-92 0 -168.5 -61t-105.5 -192v-261q0 -123 7 -179t22 -74t48 -18q17 0 27 2q21 3 26 3q37 0 37 -29q0 -37 -66 -37q-23 0 -87 8q-68 7 -87 7q-28 0 -96 -7q-64 -8 -87 -8q-66 0 -66 37z"/>
<glyph glyph-name="o" horiz-adv-x="1099" unicode="o" d="M245 501q0 -216 96.5 -334.5t239.5 -118.5q125 0 206 101t81 267q0 216 -96.5 334.5t-239.5 118.5q-125 0 -206 -101t-81 -267zM76 441q0 99 35.5 190.5t98 160.5t154 110t195.5 41q118 0 209.5 -37t147.5 -102t84.5 -148t28.5 -179q0 -99 -35.5 -190.5t-98 -160.5 t-154 -110t-195.5 -41q-118 0 -209.5 37t-147.5 102t-84.5 148t-28.5 179z"/>
<glyph glyph-name="p" horiz-adv-x="1169" unicode="p" d="M369 221q39 -78 116.5 -125t165.5 -47q117 0 194 93t77 271q0 197 -82.5 312t-203.5 115q-79 0 -153.5 -50.5t-113.5 -133.5v-435zM214 -148v765q0 96 -22 137q-18 31 -67 38q-50 8 -50 33q0 23 49 33q117 23 184 60q44 25 65 25q10 0 16.5 -6.5t6.5 -16.5q0 -6 -2 -14 t-5.5 -18.5t-5.5 -17.5q-9 -35 -12 -100q58 83 137.5 128t170.5 45q190 0 299.5 -133t109.5 -342q0 -134 -60.5 -247t-168 -179.5t-239.5 -66.5q-144 0 -251 76v-199q0 -74 1 -112t5 -62t10 -30t18 -6q5 0 20 1.5t25 1.5q18 0 48 4q28 4 41 4q19 0 31.5 -12t12.5 -27 q0 -43 -73 -43q-48 0 -104 8q-49 7 -107 7q-27 0 -97 -7q-62 -8 -83 -8q-35 0 -51 12.5t-16 30.5q0 14 10.5 24.5t26.5 10.5q5 0 26 -3q12 -2 24 -2q8 0 19 -1t15 -1q14 0 21.5 6t13 28.5t7 63t1.5 112.5z"/>
<glyph glyph-name="q" horiz-adv-x="1115" unicode="q" d="M248 476q0 -182 89 -290t226 -108q165 0 237 133v483q-34 74 -107 123.5t-157 49.5q-124 0 -206 -105t-82 -286zM81 437q0 96 35 187t96 162t152 114t195 43q146 0 264 -71q42 14 71 32q12 7 29.5 18.5t26 16t14.5 4.5h1q10 -1 20.5 -8.5t9.5 -16.5q0 -6 -4 -15.5 t-9.5 -21.5t-8.5 -19q-11 -32 -14.5 -69.5t-3.5 -137.5v-747q0 -122 7 -176.5t21.5 -70t48.5 -15.5q12 0 24 2q21 3 26 3q16 0 26.5 -9t10.5 -23q0 -18 -16 -30.5t-51 -12.5q-21 0 -83 8q-70 7 -97 7q-58 0 -107 -7q-56 -8 -104 -8q-73 0 -73 45q0 33 48 33q17 0 38 -3 q30 -4 48 -4q55 0 66.5 37t11.5 224v192q-103 -125 -290 -125q-127 0 -225.5 61t-151 165.5t-52.5 235.5z"/>
<glyph glyph-name="r" horiz-adv-x="793" unicode="r" d="M50 22q0 29 37 29q5 0 26 -3q12 -2 24 -2q33 0 48 18t22 74t7 179v299q0 108 -16 138q-17 30 -73 38q-50 8 -50 33q0 7 2.5 12t14 11t32.5 10q117 23 184 60q43 25 65 25q10 0 16.5 -6.5t6.5 -16.5q0 -6 -2 -14t-5.5 -18.5t-5.5 -17.5q-10 -39 -13 -130 q57 98 132.5 145.5t144.5 47.5q57 0 92 -32.5t35 -82.5q0 -39 -27 -66t-54 -27q-14 0 -25.5 11t-26.5 42q-23 46 -61 46q-51 0 -109.5 -55.5t-101.5 -153.5v-298q0 -69 0.5 -108.5t4 -73.5t7.5 -48.5t14.5 -25t21.5 -12.5t31 -2q18 0 48 4q28 4 41 4q20 0 32 -9.5t12 -23.5 q0 -37 -73 -37q-48 0 -104 8q-49 7 -107 7q-27 0 -97 -7q-62 -8 -83 -8q-67 0 -67 37z"/>
<glyph glyph-name="s" horiz-adv-x="877" unicode="s" d="M85 201q0 21 24.5 44.5t54.5 23.5q7 0 11 -1q29 -4 46 -54q26 -75 88.5 -122t155.5 -47q83 0 142.5 41t59.5 105t-57.5 113.5t-217.5 114.5q-259 105 -259 286q0 101 93 169.5t232 68.5q121 0 198.5 -48t77.5 -98q0 -26 -26.5 -44.5t-62.5 -18.5q-25 0 -53 44 q-34 53 -73.5 73.5t-91.5 20.5q-76 0 -121 -33t-45 -78q0 -52 48 -93.5t189 -99.5q156 -64 227 -139.5t71 -170.5q0 -125 -101 -204t-262 -79q-143 0 -245.5 75t-102.5 151z"/>
<glyph glyph-name="t" horiz-adv-x="686" unicode="t" d="M171 252v571h-61q-72 0 -72 37q0 27 35 36q79 19 114 87q19 36 39 90t23 60q14 32 22.5 43.5t22.5 11.5q32 0 32 -57v-226l281 6q14 0 24.5 -25.5t10.5 -41.5q0 -15 -7 -21t-25 -6l-284 3v-554q0 -106 33 -149.5t94 -43.5q59 0 102 32q5 4 14 10.5t12 9t8.5 6.5t9 5t8 2 t9.5 1q13 0 23.5 -14t10.5 -28q0 -33 -89 -84q-70 -38 -163 -38q-110 0 -168.5 73t-58.5 204z"/>
<glyph glyph-name="u" horiz-adv-x="1167" unicode="u" d="M188 328v288q0 106 -17 138q-12 21 -21 28.5t-31 11.5q-48 9 -48 33q0 25 49 35q111 22 162 50q43 25 60 25q10 0 16.5 -6.5t6.5 -16.5q0 -6 -2 -14t-5.5 -18.5t-5.5 -17.5q-14 -56 -14 -240v-256q0 -141 60 -204t159 -63q71 0 139 42.5t109 128.5l3 344v19q0 88 -17 119 q-17 30 -76 38q-50 8 -50 34q0 7 2.5 12t14 11t32.5 10q109 21 177 59q43 25 65 25q10 0 16.5 -6.5t6.5 -16.5q0 -6 -2 -14t-5.5 -18.5t-5.5 -17.5q-14 -56 -14 -246v-375q0 -75 16 -103t54 -28q12 0 36 8q18 6 28 6q13 0 21 -7.5t8 -18.5q0 -14 -12 -24t-45 -23 q-51 -20 -121 -65q-29 -19 -55 -19q-37 0 -61 84q-14 47 -15 89q-56 -78 -136.5 -120.5t-161.5 -42.5q-149 0 -234.5 82.5t-85.5 260.5z"/>
<glyph glyph-name="v" horiz-adv-x="997" unicode="v" d="M467 4l-336 743q-30 66 -51 90.5t-65 36.5q-43 11 -43 37q0 10 11 17t30 7q26 0 71.5 -5.5t83.5 -5.5q53 0 107 5.5t80 5.5q72 0 72 -29q0 -30 -84 -34q-62 -4 -62 -41q0 -31 22 -79l238 -524l207 480q38 90 38 123q0 21 -13.5 29.5t-48.5 11.5q-45 4 -62.5 11t-17.5 23 q0 29 68 29q19 0 75 -5t95 -5q26 0 63.5 5t52.5 5q41 0 41 -25q0 -12 -10.5 -20.5t-39.5 -18.5q-52 -18 -80.5 -54t-79.5 -148l-303 -665q-13 -29 -28 -29q-18 0 -31 29z"/>
<glyph glyph-name="w" horiz-adv-x="1501" unicode="w" d="M427 4l-306 738q-25 66 -46.5 92.5t-66.5 38.5q-43 11 -43 37q0 10 11 17t30 7q26 0 71.5 -5.5t83.5 -5.5q53 0 100 5.5t73 5.5q68 0 68 -29q0 -30 -80 -34q-19 -1 -30.5 -4.5t-16 -10t-6 -12t-1.5 -14.5q0 -25 21 -83l208 -501l201 497l-22 52q-18 40 -32 55.5t-41 24.5 q-38 13 -38 35q0 24 45 24q26 0 67 -5.5t61 -5.5q53 0 104.5 5.5t77.5 5.5q68 0 68 -29q0 -30 -80 -34q-62 -4 -62 -41q0 -36 40 -128l204 -468l139 346q74 184 74 245q0 21 -12.5 32t-46.5 14q-45 4 -62.5 11t-17.5 23q0 29 68 29q19 0 75 -5t95 -5q26 0 63.5 5t52.5 5 q41 0 41 -25q0 -12 -10.5 -20.5t-39.5 -18.5q-50 -17 -74.5 -52t-75.5 -154l-283 -660q-13 -29 -28 -29q-18 0 -31 29l-271 629l-260 -629q-12 -29 -28 -29q-20 0 -31 29z"/>
<glyph glyph-name="x" horiz-adv-x="1037" unicode="x" d="M18 10q0 12 10.5 20.5t39.5 18.5q13 4 25.5 11t22 13t24 19t23 20.5t27 27.5t27.5 30.5t33.5 38.5t37.5 42l154 199l-222 293q-43 54 -82 84.5t-84 42.5q-43 11 -43 37q0 10 11 17t30 7q26 0 81.5 -5.5t93.5 -5.5q34 0 77.5 5.5t73.5 5.5q68 0 68 -29q0 -31 -60 -34 q-42 -3 -42 -31q0 -24 52 -89l148 -196l124 156q78 99 78 133q0 27 -42 31q-60 5 -60 34t58 29q19 0 70 -5t90 -5q26 0 58.5 5t47.5 5q41 0 41 -25q0 -12 -10.5 -20.5t-39.5 -18.5q-50 -17 -94 -58.5t-126 -143.5l-146 -181l240 -315q45 -58 78.5 -86.5t77.5 -40.5 q43 -11 43 -37q0 -10 -11 -17t-30 -7q-26 0 -61.5 5.5t-73.5 5.5q-53 0 -104 -5.5t-77 -5.5q-68 0 -68 29q0 32 60 34q42 2 42 31q0 21 -52 89l-165 217l-136 -173q-30 -37 -52.5 -76t-22.5 -57q0 -15 9 -22t33 -9q60 -4 60 -34q0 -12 -14 -20.5t-44 -8.5q-20 0 -68.5 5 t-79.5 5q-34 0 -69 -5t-49 -5q-41 0 -41 25z"/>
<glyph glyph-name="y" horiz-adv-x="950" unicode="y" d="M75 -303q16 0 40 -9t38 -20q17 -13 38 -22.5t30 -9.5q22 0 35.5 3.5t38.5 24t49 59.5t59.5 116.5t77.5 188.5q-48 41 -136 231l-221 488q-31 66 -51.5 90.5t-64.5 36.5q-43 11 -43 37q0 10 11 17t30 7q26 0 71.5 -5.5t83.5 -5.5q53 0 103 5.5t76 5.5q68 0 68 -29 q0 -30 -80 -34q-36 -2 -48 -12t-12 -28q0 -15 30 -80l244 -551q0 2 2 6l170 501q37 102 36 123q0 21 -13.5 29.5t-48.5 11.5q-45 4 -63 11t-18 23q0 29 68 29q19 0 75 -5t95 -5q26 0 63.5 5t52.5 5q41 0 41 -25q0 -12 -10 -20.5t-39 -18.5q-56 -19 -86.5 -56t-70.5 -146 l-150 -408q-186 -512 -279 -633q-84 -108 -202 -108q-82 0 -129.5 30t-47.5 71q0 28 27.5 52t59.5 24z"/>
<glyph glyph-name="z" horiz-adv-x="983" unicode="z" d="M80 20q0 12 14 32l562 796h-125q-201 0 -270 -36q-50 -27 -69 -81q-20 -52 -44 -52q-28 0 -28 29q0 6 11 50q24 88 24 157q0 32 22 32q6 0 14 -2t18.5 -5.5t17.5 -5.5q56 -14 245 -14h373q34 0 34 -23q0 -12 -17 -36l-548 -789h161q239 0 300 44q40 29 72 97 q12 23 21 32.5t22 9.5q8 0 14 -6.5t6 -18.5q0 -20 -20 -83q-17 -55 -17 -125q0 -37 -26 -37q-17 0 -99 8q-70 7 -166 7h-468q-34 0 -34 20z"/>
<glyph glyph-name="braceleft" horiz-adv-x="754" unicode="{" d="M286 243q0 48 10 137.5t10 96.5q0 30 -12.5 47t-42.5 29q-7 3 -16 5.5t-14.5 4.5t-10.5 4t-7.5 5t-2.5 7q0 6 5.5 9.5t21.5 8.5t24 8q30 12 42.5 29t12.5 47q0 7 -10 96.5t-10 137.5q0 165 48 284t132 179q71 52 149 52q19 0 29 -8.5t10 -18.5q0 -27 -50 -35 q-94 -17 -118 -81q-23 -64 -23 -147q0 -16 2 -66q5 -85 5 -162v-23q-3 -136 -34.5 -202.5t-107.5 -107.5q76 -41 107.5 -107.5t34.5 -202.5v-23q0 -77 -5 -162q-2 -50 -2 -66q0 -83 23 -147q24 -64 118 -81q50 -8 50 -35q0 -10 -10 -18.5t-29 -8.5q-77 0 -149 52 q-84 60 -132 179t-48 284z"/>
<glyph glyph-name="bar" horiz-adv-x="529" unicode="|" d="M217 -357v1951h95v-1951h-95z"/>
<glyph glyph-name="braceright" horiz-adv-x="754" unicode="}" d="M150 -210q94 17 118 81q23 64 23 147q0 16 -2 66q-5 85 -5 162v23q3 136 34.5 202.5t107.5 107.5q-76 40 -107.5 107t-34.5 203v23q0 77 5 162q2 50 2 66q0 83 -23 147q-24 64 -118 81q-50 8 -50 35q0 10 10 18.5t29 8.5q78 0 149 -52q84 -60 132 -179t48 -284 q0 -48 -10 -137.5t-10 -96.5q0 -30 12.5 -47t42.5 -29q7 -3 16 -5.5t14.5 -4.5t10.5 -4t7.5 -5t2.5 -7q0 -6 -5.5 -9.5t-21.5 -8.5t-24 -8q-30 -12 -42.5 -29t-12.5 -47q0 -7 10 -96.5t10 -137.5q0 -165 -48 -284t-132 -179q-71 -52 -149 -52q-19 0 -29 8.5t-10 18.5 q0 27 50 35z"/>
<glyph glyph-name="asciitilde" horiz-adv-x="1057" unicode="~" d="M102 346q-37 0 -37 45q0 18 19 57.5t42 71.5q63 90 115 123.5t104 33.5q47 0 84.5 -15.5t126.5 -68.5q136 -90 214 -90q37 0 70 27t74 92q4 7 9.5 15.5t8.5 13t6 9.5t5 7.5t4.5 5t4 3.5t3.5 1q37 0 37 -45q0 -18 -19 -57.5t-42 -71.5q-63 -90 -115 -123.5t-104 -33.5 q-79 0 -228 93q-83 52 -119 66.5t-78 14.5q-37 0 -70 -27t-74 -92q-4 -7 -9.5 -15.5t-8.5 -13t-6 -9.5t-5 -7.5t-4.5 -5t-4 -3.5t-3.5 -1z"/>
<glyph glyph-name="nbspace" horiz-adv-x="440" unicode=" "/>
<glyph glyph-name="exclamdown" horiz-adv-x="518" unicode="¡" d="M145 -83q69 528 74 918q0 22 10 33.5t25 11.5q30 0 31 -45q5 -171 15.5 -322.5t21 -263.5t39.5 -394v-7q0 -23 -26 -23q-19 0 -86 18q-55 14 -79.5 28.5t-24.5 38.5v7zM258 1015q-42 0 -73 28t-31 70q0 46 27 74t72 28q47 0 75.5 -29t28.5 -72t-27.5 -71t-71.5 -28z"/>
<glyph glyph-name="cent" horiz-adv-x="960" unicode="¢" d="M428 114l94 755q-108 -13 -186.5 -114.5t-78.5 -259.5q0 -130 44.5 -229.5t126.5 -151.5zM413 -9q-150 39 -238.5 164.5t-88.5 294.5q0 209 125 343t320 148l42 340q2 18 23 29.5t44 11.5q11 0 14.5 -3t3.5 -13q0 -2 -4 -36l-41 -329q102 -10 175 -64q95 -71 95 -135 q0 -25 -25.5 -39.5t-53.5 -15.5h-4q-51 0 -72 50q-46 107 -124 127l-98 -785q49 -13 98 -13q112 0 193 84q36 36 58 36q13 0 23 -10t10 -27q0 -22 -33.5 -55.5t-83.5 -62.5q-96 -56 -237 -56q-14 0 -40 2l-41 -330q-2 -18 -23 -29.5t-44 -11.5q-18 0 -18 14q0 2 4 38z"/>
<glyph glyph-name="sterling" horiz-adv-x="1173" unicode="£" d="M179 126q0 -35 24 -57.5t64 -22.5q83 0 125 111q-72 41 -126 41q-38 0 -62.5 -22t-24.5 -50zM90 116q0 70 49.5 119.5t144.5 49.5q55 0 133 -24q8 58 8 122q0 115 -51 267h-237q-24 0 -24 18q0 24 10.5 45.5t22.5 21.5h197q-40 104 -56 168.5t-16 126.5q0 137 115.5 236 t297.5 99t293 -81q43 -32 66.5 -69t23.5 -68q0 -28 -30.5 -49.5t-60.5 -21.5q-22 0 -37.5 16.5t-32.5 62.5q-24 62 -74 94t-142 32q-121 0 -186 -54t-65 -162q0 -47 13.5 -101t58.5 -180l17 -49h355q23 0 23 -18q0 -24 -10.5 -45.5t-22.5 -21.5h-316q42 -131 42 -236 q0 -96 -45 -198q238 -73 419 -73q26 0 39.5 5t26.5 20q20 23 35 23q24 0 24 -28q0 -36 -38 -107q-26 -49 -49.5 -65t-63.5 -16q-109 0 -216.5 30t-241.5 99q-99 -130 -225 -130q-87 0 -130.5 43.5t-43.5 98.5z"/>
<glyph glyph-name="currency" horiz-adv-x="1103" unicode="¤" d="M549 335q59 0 112 19t96.5 56.5t69 101t25.5 146.5q0 147 -88 233.5t-215 86.5q-142 0 -222 -89t-80 -228q0 -142 84 -234t218 -92zM128 192q-28 28 -28 58q0 9 10 19l121 121q-86 111 -86 272q0 146 92 259l-127 127q-10 10 -10 19q0 30 28 58q6 6 12 6q7 0 17 -10 l140 -140q110 89 252 89q149 0 258 -88l139 139q10 10 17 10q6 0 12 -6q28 -28 28 -58q0 -9 -10 -19l-126 -126q87 -112 87 -263q0 -152 -88 -264l127 -126q10 -10 10 -19q0 -30 -28 -58q-6 -6 -12 -6q-7 0 -17 10l-139 139q-111 -91 -266 -91q-146 0 -251 85l-133 -133 q-10 -10 -17 -10q-6 0 -12 6z"/>
<glyph glyph-name="yen" horiz-adv-x="1260" unicode="¥" d="M373 22q0 29 36 29q5 0 26 -3q10 -2 23 -2q60 0 79 61t19 210v141h-321q-24 0 -24 18q0 24 10.5 45.5t22.5 21.5h312v124l-1 1h-320q-24 0 -24 18q0 24 10.5 45.5t22.5 21.5h254l-257 379q-64 94 -97.5 123t-80.5 30q-43 2 -43 36q0 15 16.5 25t46.5 10q26 0 80 -8 q50 -8 79 -8q39 0 89 8q56 8 74 8q65 0 65 -34q0 -32 -62 -32q-49 0 -49 -36q0 -21 36 -76l276 -418l212 336q75 118 75 152q0 42 -67 42q-58 0 -58 34q0 32 65 32q21 0 67 -8q48 -8 75 -8q22 0 71 9q33 7 59 7q29 0 49.5 -9.5t20.5 -25.5q0 -36 -47 -36q-49 0 -84 -31 t-110 -143l-239 -358h261q23 0 23 -18q0 -24 -10.5 -45.5t-22.5 -21.5h-298v-125h308q23 0 23 -18q0 -24 -10.5 -45.5t-22.5 -21.5h-298v-141q0 -149 18.5 -210t79.5 -61q12 0 22 2q21 3 26 3q36 0 36 -29q0 -37 -64 -37q-33 0 -77 7q-47 8 -107 8q-72 0 -116 -6 q-76 -9 -93 -9q-65 0 -65 37z"/>
<glyph glyph-name="brokenbar" horiz-adv-x="529" unicode="¦" d="M217 -360v827h95v-827h-95zM217 766v826h95v-826h-95z"/>
<glyph glyph-name="section" horiz-adv-x="1111" unicode="§" d="M473 361q143 -141 214 -231t96 -160q100 69 100 188q0 96 -48 178t-197 229q-144 141 -215 230.5t-96 160.5q-99 -71 -99 -188q0 -96 48 -178t197 -229zM192 -283q0 26 26.5 44.5t62.5 18.5q25 0 53 -44q64 -97 155 -97q86 0 135 46.5t49 112.5q0 47 -16 86t-79 115 t-191 202q-162 158 -214.5 263t-52.5 244q0 100 53.5 189.5t137.5 131.5q-2 26 -2 38q0 113 92 200.5t239 87.5q124 0 201.5 -48t77.5 -98q0 -26 -26.5 -44.5t-62.5 -18.5q-25 0 -53 44q-64 97 -155 97q-86 0 -135 -46.5t-49 -112.5q0 -47 16 -86t79 -115t191 -202 q162 -158 214.5 -263t52.5 -244q0 -101 -53.5 -190t-137.5 -131q2 -26 2 -38q0 -113 -92 -200.5t-239 -87.5q-124 0 -201.5 48t-77.5 98z"/>
<glyph glyph-name="dieresis" horiz-adv-x="719" unicode="¨" d="M181 1111q-46 0 -73.5 28.5t-27.5 73.5q0 42 31.5 70t74.5 28q45 0 73 -28t28 -71q0 -42 -29.5 -71.5t-76.5 -29.5zM533 1111q-46 0 -73.5 28.5t-27.5 73.5q0 42 31.5 70t74.5 28q45 0 73 -28t28 -71q0 -42 -29.5 -71.5t-76.5 -29.5z"/>
<glyph glyph-name="copyright" horiz-adv-x="1582" unicode="©" d="M372 655q0 183 130.5 300t336.5 117q138 0 250 -44q19 -8 26.5 -19t11.5 -42q6 -47 6 -94q0 -38 -24 -38q-16 0 -26 28q-24 69 -72 98q-82 47 -184 47q-137 0 -216.5 -86.5t-79.5 -231.5q0 -146 98 -257t238 -111q168 0 261 158q7 12 13 12q10 0 20 -25.5t10 -58.5 q0 -19 -35 -53q-112 -106 -294 -106q-215 0 -342.5 115t-127.5 291zM159 689q0 -149 54 -272.5t143 -203t201.5 -123t232.5 -43.5q127 0 240.5 42t200 120.5t137 200t50.5 269.5q0 174 -80 313.5t-227 219.5t-335 80q-177 0 -319.5 -83.5t-220 -221t-77.5 -298.5zM80 670 q0 145 55 274t149 221.5t224.5 146t277.5 53.5q156 0 290 -52t227.5 -142.5t146 -215t52.5 -266.5q0 -214 -92.5 -377t-256.5 -250t-374 -87q-195 0 -354 87t-252 246.5t-93 361.5z"/>
<glyph glyph-name="ordfeminine" horiz-adv-x="941" unicode="ª" d="M426 862q87 0 132 84v28v107q-50 28 -127 28q-65 0 -104.5 -33t-39.5 -81q0 -57 38.5 -95t100.5 -38zM385 786q-108 0 -173 55t-65 136q0 93 79 147t230 54q42 0 102 -14v49q0 86 -30 121t-100 35t-106 -59q-38 -61 -70 -61q-28 0 -47 14t-19 33t20.5 43.5t48.5 41.5 q34 21 86 35t104 14q108 0 172 -48.5t64 -154.5v-259q0 -49 10.5 -65.5t35.5 -16.5q6 0 26 5q14 4 22 4q7 0 12.5 -5.5t5.5 -12.5q0 -19 -38 -34q-45 -18 -79 -40q-23 -17 -37 -17q-32 0 -55 54q-3 6 -12 30q-69 -84 -187 -84z"/>
<glyph glyph-name="guillemotleft" horiz-adv-x="936" unicode="«" d="M385 205q-62 78 -115 128.5t-130 111.5q-30 23 -30 34q0 12 30 35q77 61 130 111.5t115 128.5q33 44 43 48q5 3 14 3q8 0 13.5 -7.5t5.5 -16.5q0 -33 -39 -90l-146 -212l146 -211q39 -57 39 -90q0 -9 -5.5 -16.5t-13.5 -7.5q-13 0 -21.5 8t-35.5 43zM490 445 q-30 23 -30 34q0 12 30 35q77 61 130 111.5t115 128.5q33 44 43 48q5 3 14 3q8 0 13.5 -7.5t5.5 -16.5q0 -33 -39 -90l-146 -212l146 -211q39 -57 39 -90q0 -9 -5.5 -16.5t-13.5 -7.5q-13 0 -21.5 8t-35.5 43q-62 78 -115 128.5t-130 111.5z"/>
<glyph glyph-name="logicalnot" horiz-adv-x="965" unicode="¬" d="M80 554v85h795v-331h-85v246h-710z"/>
<glyph glyph-name="uni00AD" horiz-adv-x="1229" unicode="­"/>
<glyph glyph-name="registered" horiz-adv-x="1582" unicode="®" d="M684 694q60 -5 134 -5q66 0 103.5 40.5t37.5 101.5q0 90 -51.5 143t-144.5 53q-79 0 -79 -38v-295zM419 308q0 13 9.5 21.5t23.5 8.5q7 0 21 -2t21 -2q37 0 45.5 25.5t8.5 105.5v431q0 80 -8.5 105.5t-45.5 25.5q-7 0 -21 -2t-21 -2q-14 0 -23.5 8.5t-9.5 21.5 q0 12 13.5 22t36.5 10q21 0 73 -5q40 -5 80 -5q30 0 66 4q59 7 113 7q148 0 226 -59t78 -147q0 -76 -48 -135.5t-133 -88.5l171 -247q27 -39 41.5 -50t43.5 -15q30 -3 40.5 -10t10.5 -20q0 -28 -53 -28h-131q-24 0 -40 11.5t-34 40.5l-148 238q-13 32 -24 44.5t-27 12.5 q-60 0 -90 -1v-167q0 -80 8.5 -105.5t45.5 -25.5q7 0 21 2t21 2q14 0 23.5 -8.5t9.5 -21.5q0 -14 -13 -23t-37 -9q-33 0 -70 5q-53 5 -84 5q-17 0 -70 -5q-37 -5 -70 -5q-23 0 -36.5 10t-13.5 22zM159 689q0 -187 85 -334.5t228.5 -227.5t317.5 -80q127 0 240.5 42 t200 120.5t137 200t50.5 269.5q0 174 -80 313.5t-227 219.5t-335 80q-271 0 -444 -170.5t-173 -432.5zM80 670q0 150 51 278.5t142.5 220.5t223.5 144t289 52q156 0 290 -52t227.5 -142.5t146 -215t52.5 -266.5q0 -214 -92.5 -377t-256.5 -250t-374 -87q-195 0 -354 87 t-252 246.5t-93 361.5z"/>
<glyph glyph-name="macron" horiz-adv-x="667" unicode="¯" d="M104 1154q-24 0 -24 18q0 24 12.5 51t24.5 27h447q23 0 23 -18q0 -24 -12.5 -51t-24.5 -27h-446z"/>
<glyph glyph-name="degree" horiz-adv-x="520" unicode="°" d="M266 1077q40 0 69.5 27t29.5 79q0 46 -29.5 75.5t-71.5 29.5q-44 0 -74.5 -29t-30.5 -75t29 -76.5t78 -30.5zM256 998q-79 0 -132.5 52t-53.5 136q0 74 57.5 126.5t136.5 52.5q83 0 134.5 -51t51.5 -130q0 -80 -56 -133t-138 -53z"/>
<glyph glyph-name="plusminus" horiz-adv-x="845" unicode="±" d="M80 184v85h685v-85h-685zM380 350v301h-300v85h300v316h85v-316h300v-85h-300v-301h-85z"/>
<glyph glyph-name="twosuperior" horiz-adv-x="760" unicode="²" d="M101 760q-31 0 -31 16q0 13 33 52l173 193q15 18 63 72.5t67.5 80t49.5 68.5t42 78.5t12 70.5q0 87 -46 137.5t-126 50.5q-122 0 -179 -116q-11 -23 -15.5 -28.5t-10.5 -5.5q-13 0 -34.5 21t-21.5 37q0 24 29.5 60.5t72.5 60.5q84 48 191 48q142 0 221 -60t79 -163 q0 -66 -50.5 -141t-174.5 -207l-168 -179h256q70 0 90 24q15 18 27 18q20 0 20 -22q0 -42 -37 -122q-10 -25 -17.5 -33.5t-16.5 -8.5q-7 0 -59 4q-68 4 -129 4q-147 0 -206 -4q-100 -6 -104 -6z"/>
<glyph glyph-name="threesuperior" horiz-adv-x="837" unicode="³" d="M399 752q-140 0 -237 79.5t-97 178.5q0 19 27.5 42.5t41.5 23.5q11 0 14 -32q7 -95 77.5 -156.5t173.5 -61.5q99 0 165 59t66 156q0 113 -70.5 166t-182.5 53q-21 0 -43 -4q-20 -4 -28 -4q-16 0 -16 15q0 11 20 43l136 210h-192q-37 0 -48.5 -2.5t-20.5 -13.5 q-13 -16 -28 -16q-17 0 -17 18q0 12 16 43q17 32 34 87q8 25 28 25q4 0 17.5 -1t29.5 -2q37 -2 144 -2q31 0 99 2q13 0 41.5 0.5t36.5 0.5q23 0 23 -11q0 -8 -19 -36l-151 -224q142 -6 232.5 -87t90.5 -205q0 -60 -25.5 -120.5t-71 -110.5t-115.5 -81.5t-151 -31.5z"/>
<glyph glyph-name="acute" horiz-adv-x="557" unicode="´" d="M118 1090q-11 0 -20.5 11.5t-9.5 25.5q0 8 5.5 13.5t23.5 17.5l282 179q14 8 23 8q19 0 44 -41q19 -32 19 -62q0 -13 -19 -21l-279 -108q-60 -23 -69 -23z"/>
<glyph glyph-name="mu" horiz-adv-x="1172" unicode="µ" d="M180 -75v423v17v251q0 106 -17 138q-11 19 -24 27.5t-36 12.5q-26 5 -37 11.5t-11 19.5q0 7 2.5 12t14 11t32.5 10q88 17 165 60q43 25 65 25q10 0 16.5 -6.5t6.5 -16.5q0 -6 -2 -14t-5.5 -18.5t-5.5 -17.5q-14 -56 -14 -246v-308q0 -110 59 -162.5t164 -52.5 q81 0 149 51.5t105 152.5v311q0 106 -17 138q-17 29 -79 38q-50 8 -50 33q0 7 2.5 12t14 11t32.5 10q128 25 191 60q43 25 60 25q10 0 16.5 -6.5t6.5 -16.5q0 -6 -2 -14t-5.5 -18.5t-5.5 -17.5q-14 -56 -14 -246v-375q0 -75 16 -103t54 -28q16 0 40 8q18 6 28 6 q13 0 21 -7.5t8 -18.5q0 -14 -12 -24t-45 -23q-61 -24 -125 -65q-29 -19 -55 -19q-37 0 -61 84q-14 49 -17 102q-57 -83 -140 -129.5t-170 -46.5q-125 0 -208 72q2 -21 8 -80t6 -85q0 -100 23 -145t75 -58q20 -5 28.5 -13t8.5 -24q-1 -50 -37 -91t-81 -41q-24 0 -50 24.5 t-43 61.5q-49 107 -49 319z"/>
<glyph glyph-name="mu" horiz-adv-x="1172" unicode="μ" d="M180 -75v423v17v251q0 106 -17 138q-11 19 -24 27.5t-36 12.5q-26 5 -37 11.5t-11 19.5q0 7 2.5 12t14 11t32.5 10q88 17 165 60q43 25 65 25q10 0 16.5 -6.5t6.5 -16.5q0 -6 -2 -14t-5.5 -18.5t-5.5 -17.5q-14 -56 -14 -246v-308q0 -110 59 -162.5t164 -52.5 q81 0 149 51.5t105 152.5v311q0 106 -17 138q-17 29 -79 38q-50 8 -50 33q0 7 2.5 12t14 11t32.5 10q128 25 191 60q43 25 60 25q10 0 16.5 -6.5t6.5 -16.5q0 -6 -2 -14t-5.5 -18.5t-5.5 -17.5q-14 -56 -14 -246v-375q0 -75 16 -103t54 -28q16 0 40 8q18 6 28 6 q13 0 21 -7.5t8 -18.5q0 -14 -12 -24t-45 -23q-61 -24 -125 -65q-29 -19 -55 -19q-37 0 -61 84q-14 49 -17 102q-57 -83 -140 -129.5t-170 -46.5q-125 0 -208 72q2 -21 8 -80t6 -85q0 -100 23 -145t75 -58q20 -5 28.5 -13t8.5 -24q-1 -50 -37 -91t-81 -41q-24 0 -50 24.5 t-43 61.5q-49 107 -49 319z"/>
<glyph glyph-name="paragraph" horiz-adv-x="1188" unicode="¶" d="M579 -60q0 2 1 4.5t3 5t6 8t8 11.5q21 33 21 166v921q0 173 -12 245h-5q-127 0 -214.5 -90.5t-87.5 -214.5q0 -276 189 -347q22 -8 29.5 -13t7.5 -14q0 -23 -40 -23q-69 0 -135 28t-118.5 76.5t-84.5 122t-32 157.5q0 75 29 142.5t85 122.5t148 88.5t209 36.5l254 -8 q68 0 113 3q84 6 89 6q28 0 47 -13t19 -34q0 -39 -59 -39q-12 0 -48 2t-74 3q-7 -59 -7 -228v-867q0 -141 -9 -175q-4 -15 -12.5 -21t-31.5 -12q-37 -10 -63 -10q-19 0 -19 8q0 2 1 4.5t3 5t6 8t8 11.5q21 33 21 166v873q0 172 -12 239l-91 3q-7 -51 -7 -233v-915 q0 -141 -9 -175q-4 -15 -12.5 -21t-31.5 -12q-37 -10 -63 -10q-19 0 -19 8z"/>
<glyph glyph-name="periodcentered" horiz-adv-x="580" unicode="·" d="M287 506q-51 0 -81.5 32t-30.5 84q0 48 35 79.5t83 31.5q50 0 81 -31.5t31 -80.5t-32.5 -82t-85.5 -33z"/>
<glyph glyph-name="cedilla" horiz-adv-x="518" unicode="¸" d="M179 -181q0 63 75 212l68 -18q-29 -52 -49 -121q90 -30 127.5 -71.5t37.5 -106.5q0 -72 -58.5 -123.5t-141.5 -51.5q-67 0 -112.5 21.5t-45.5 47.5q0 23 17.5 53t34.5 30q14 0 35 -34q35 -57 99 -57q31 0 55.5 19.5t24.5 53.5q0 33 -24.5 55.5t-101.5 50.5q-41 16 -41 40 z"/>
<glyph glyph-name="onesuperior" horiz-adv-x="573" unicode="¹" d="M140 760q-23 0 -36.5 10t-13.5 22q0 13 9.5 21.5t23.5 8.5q7 0 21 -2t21 -2q37 0 45.5 25.5t8.5 105.5v424q0 50 -16 68t-62 22q-42 3 -42 25q0 20 29 31q48 17 104 45q43 21 99 73q20 20 35 20q19 0 19 -26q0 -8 -8 -36q-13 -54 -13 -188v-458q0 -80 8.5 -105.5 t45.5 -25.5q7 0 21 2t21 2q14 0 23.5 -8.5t9.5 -21.5q0 -14 -13 -23t-37 -9q-33 0 -70 5q-53 5 -84 5q-27 0 -79 -5q-37 -5 -70 -5z"/>
<glyph glyph-name="ordmasculine" horiz-adv-x="932" unicode="º" d="M483 854q69 0 112.5 59t43.5 172q0 132 -49 204t-134 72q-68 0 -115.5 -62t-47.5 -160q0 -129 55.5 -207t134.5 -78zM459 786q-146 0 -227 93t-81 228q0 134 94 228.5t230 94.5q134 0 220.5 -90t86.5 -232q0 -133 -92 -227.5t-231 -94.5z"/>
<glyph glyph-name="guillemotright" horiz-adv-x="936" unicode="»" d="M144 154q-8 0 -13.5 7.5t-5.5 16.5q0 33 39 90l145 211l-145 212q-39 57 -39 90q0 9 5.5 16.5t13.5 7.5q13 0 21.5 -8t35.5 -43q62 -78 115 -128.5t130 -111.5q30 -23 30 -35q0 -11 -30 -34q-77 -61 -130 -111.5t-115 -128.5q-33 -44 -43 -48q-5 -3 -14 -3zM475 178 q0 33 39 90l145 211l-145 212q-39 57 -39 90q0 9 5.5 16.5t13.5 7.5q13 0 21.5 -8t35.5 -43q62 -78 115 -128.5t130 -111.5q30 -23 30 -35q0 -11 -30 -34q-77 -61 -130 -111.5t-115 -128.5q-33 -44 -43 -48q-5 -3 -14 -3q-8 0 -13.5 7.5t-5.5 16.5z"/>
<glyph glyph-name="onequarter" horiz-adv-x="1732" unicode="¼" d="M998 367h270v296zM870 300q0 15 19 36l468 525q35 39 50 39q19 0 19 -28q0 -5 -1 -14.5t-2 -24t-2 -27.5q-5 -57 -5 -236v-203h84q71 0 103 12q18 8 27 8q12 0 12 -14q0 -9 -9 -22q-4 -5 -23 -44q-7 -14 -15 -18.5t-28 -4.5h-151v-113q0 -77 8.5 -100t45.5 -23q7 0 21 2 t21 2q14 0 23.5 -8.5t9.5 -21.5q0 -14 -13 -23t-37 -9q-33 0 -70 5q-52 5 -84 5q-29 0 -82 -5q-37 -5 -70 -5q-23 0 -36.5 10t-13.5 22q0 13 9.5 21.5t23.5 8.5q7 0 21 -2t21 -2q37 0 45.5 25.5t8.5 105.5v105h-367q-31 0 -31 16zM317 -4q0 8 14 28l863 1298q9 13 38 23.5 t57 10.5q16 0 16 -11q0 -8 -17 -32l-863 -1298q-22 -30 -92 -30q-16 0 -16 11zM150 489q-23 0 -36.5 10t-13.5 22q0 13 9.5 21.5t23.5 8.5q7 0 21 -2t21 -2q37 0 45.5 25.5t8.5 105.5v424q0 50 -16 68t-62 22q-42 3 -42 25q0 20 29 31q48 17 104 45q43 21 99 73q20 20 35 20 q19 0 19 -26q0 -8 -8 -36q-13 -54 -13 -188v-458q0 -80 8.5 -105.5t45.5 -25.5q7 0 21 2t21 2q14 0 23.5 -8.5t9.5 -21.5q0 -14 -13 -23t-37 -9q-33 0 -70 5q-52 5 -84 5q-27 0 -79 -5q-37 -5 -70 -5z"/>
<glyph glyph-name="onehalf" horiz-adv-x="1829" unicode="½" d="M1069 6q0 13 33 52l173 193q15 18 63 72.5t67.5 80t49.5 68.5t42 78.5t12 70.5q0 87 -46 137.5t-126 50.5q-122 0 -179 -116q-11 -23 -15.5 -28.5t-10.5 -5.5q-13 0 -34.5 21t-21.5 37q0 24 29.5 60.5t72.5 60.5q84 48 191 48q142 0 221 -60t79 -163q0 -66 -50.5 -141 t-174.5 -207l-168 -179h256q70 0 90 24q15 18 27 18q20 0 20 -22q0 -42 -37 -122q-10 -25 -17 -33.5t-17 -8.5q-7 0 -59 4q-68 4 -129 4q-147 0 -206 -4q-100 -6 -104 -6q-31 0 -31 16zM337 -4q0 8 14 28l863 1298q9 13 38 23.5t57 10.5q16 0 16 -11q0 -8 -17 -32 l-863 -1298q-22 -30 -92 -30q-16 0 -16 11zM170 489q-23 0 -36.5 10t-13.5 22q0 13 9.5 21.5t23.5 8.5q7 0 21 -2t21 -2q37 0 45.5 25.5t8.5 105.5v424q0 50 -16 68t-62 22q-42 3 -42 25q0 20 29 31q48 17 104 45q43 21 99 73q20 20 35 20q19 0 19 -26q0 -8 -8 -36 q-13 -54 -13 -188v-458q0 -80 8.5 -105.5t45.5 -25.5q7 0 21 2t21 2q14 0 23.5 -8.5t9.5 -21.5q0 -14 -13 -23t-37 -9q-33 0 -70 5q-52 5 -84 5q-27 0 -79 -5q-37 -5 -70 -5z"/>
<glyph glyph-name="threequarters" horiz-adv-x="1907" unicode="¾" d="M1183 367h270v296zM1055 300q0 15 19 36l468 525q35 39 50 39q19 0 19 -28q0 -5 -1 -14.5t-2 -24t-2 -27.5q-5 -57 -5 -236v-203h84q71 0 103 12q18 8 27 8q12 0 12 -14q0 -9 -9 -22q-4 -5 -23 -44q-7 -14 -15 -18.5t-28 -4.5h-151v-113q0 -77 8.5 -100t45.5 -23 q7 0 21 2t21 2q14 0 23.5 -8.5t9.5 -21.5q0 -14 -13 -23t-37 -9q-33 0 -70 5q-52 5 -84 5q-29 0 -82 -5q-37 -5 -70 -5q-23 0 -36.5 10t-13.5 22q0 13 9.5 21.5t23.5 8.5q7 0 21 -2t21 -2q37 0 45.5 25.5t8.5 105.5v105h-367q-31 0 -31 16zM493 -4q0 8 14 28l863 1298 q9 13 38 23.5t57 10.5q16 0 16 -11q0 -8 -17 -32l-863 -1298q-22 -30 -92 -30q-16 0 -16 11zM399 453q-140 0 -237 79.5t-97 178.5q0 19 27.5 42.5t41.5 23.5q11 0 14 -32q7 -95 77.5 -156.5t173.5 -61.5q99 0 165 59t66 156q0 113 -70.5 166t-182.5 53q-21 0 -43 -4 q-20 -4 -28 -4q-16 0 -16 15q0 11 20 43l136 210h-192q-37 0 -48.5 -2.5t-20.5 -13.5q-13 -16 -28 -16q-17 0 -17 18q0 12 16 43q17 32 34 87q8 25 28 25q4 0 17.5 -1t29.5 -2q37 -2 144 -2q31 0 99 2q13 0 41.5 0.5t36.5 0.5q23 0 23 -11q0 -8 -19 -36l-151 -224 q142 -6 232.5 -87t90.5 -205q0 -60 -25.5 -120.5t-71 -110.5t-115.5 -81.5t-151 -31.5z"/>
<glyph glyph-name="questiondown" horiz-adv-x="933" unicode="¿" d="M33 119q0 88 42.5 167.5t146.5 182.5q125 125 156.5 167.5t31.5 74.5q0 44 -22 52q-28 9 -28 34q0 29 34 55.5t71 26.5q108 0 108 -99q0 -39 -32 -87.5t-126 -135.5q-112 -104 -163 -201.5t-51 -205.5q0 -107 73.5 -177.5t186.5 -70.5q198 0 246 127q24 61 41 86t40 25 q37 0 60.5 -24.5t23.5 -48.5q0 -83 -130 -162q-134 -81 -329 -81q-163 0 -271.5 85.5t-108.5 209.5zM463 1014q-44 0 -71.5 28t-27.5 71t28.5 72t75.5 29q45 0 72 -28t27 -74q0 -42 -31 -70t-73 -28z"/>
<glyph glyph-name="Agrave" d="M429 542h485l-238 596q-46 -115 -247 -596zM-20 19q0 31 47 33q27 0 40.5 3.5t32.5 18.5t37 46t44 86q275 583 491 1126q24 62 45 62q25 0 54 -71q20 -50 136.5 -339t209.5 -518.5t107 -259.5q33 -71 56 -103t42 -41t54 -10q47 -1 47 -32q0 -35 -63 -35q-31 0 -85 7 q-48 8 -104 8q-46 0 -89 -7q-56 -8 -104 -8q-65 0 -65 37q0 13 10 21.5t26 8.5q12 0 32 -4q17 -3 28 -3q36 0 49 15.5t13 51.5t-40 137l-83 208h-555q-58 -141 -81 -205q-28 -76 -28 -116q0 -50 16 -70t58 -20q14 0 30 2q18 3 30 3q16 0 26 -8t10 -21q0 -37 -65 -37 q-35 0 -80 7q-56 8 -86 8q-47 0 -94 -7q-52 -8 -89 -8q-60 0 -60 34zM516 1636q-19 6 -19 21q0 23 18 60q22 44 41 44q9 0 23 -8l339 -183q21 -11 21 -26q0 -13 -9 -25.5t-20 -12.5q-9 0 -69 20z" unicode="À"/>
<glyph glyph-name="Aacute" d="M429 542h485l-238 596q-46 -115 -247 -596zM-20 19q0 31 47 33q27 0 40.5 3.5t32.5 18.5t37 46t44 86q275 583 491 1126q24 62 45 62q25 0 54 -71q20 -50 136.5 -339t209.5 -518.5t107 -259.5q33 -71 56 -103t42 -41t54 -10q47 -1 47 -32q0 -35 -63 -35q-31 0 -85 7 q-48 8 -104 8q-46 0 -89 -7q-56 -8 -104 -8q-65 0 -65 37q0 13 10 21.5t26 8.5q12 0 32 -4q17 -3 28 -3q36 0 49 15.5t13 51.5t-40 137l-83 208h-555q-58 -141 -81 -205q-28 -76 -28 -116q0 -50 16 -70t58 -20q14 0 30 2q18 3 30 3q16 0 26 -8t10 -21q0 -37 -65 -37 q-35 0 -80 7q-56 8 -86 8q-47 0 -94 -7q-52 -8 -89 -8q-60 0 -60 34zM526 1509q-11 0 -20 12.5t-9 25.5q0 15 21 26l339 183q14 8 23 8q19 0 41 -44q18 -38 18 -60q0 -15 -19 -21l-325 -110q-60 -20 -69 -20z" unicode="Á"/>
<glyph glyph-name="Acircumflex" d="M429 542h485l-238 596q-46 -115 -247 -596zM-20 19q0 31 47 33q27 0 40.5 3.5t32.5 18.5t37 46t44 86q275 583 491 1126q24 62 45 62q25 0 54 -71q20 -50 136.5 -339t209.5 -518.5t107 -259.5q33 -71 56 -103t42 -41t54 -10q47 -1 47 -32q0 -35 -63 -35q-31 0 -85 7 q-48 8 -104 8q-46 0 -89 -7q-56 -8 -104 -8q-65 0 -65 37q0 13 10 21.5t26 8.5q12 0 32 -4q17 -3 28 -3q36 0 49 15.5t13 51.5t-40 137l-83 208h-555q-58 -141 -81 -205q-28 -76 -28 -116q0 -50 16 -70t58 -20q14 0 30 2q18 3 30 3q16 0 26 -8t10 -21q0 -37 -65 -37 q-35 0 -80 7q-56 8 -86 8q-47 0 -94 -7q-52 -8 -89 -8q-60 0 -60 34zM492 1501q-10 0 -22.5 13.5t-12.5 25.5q0 9 17 24l190 169q43 37 54 37q13 0 54 -37l190 -169q17 -15 17 -24q0 -12 -12.5 -25.5t-22.5 -13.5q-8 0 -38 19l-188 118l-188 -118q-30 -19 -38 -19z" unicode="Â"/>
<glyph glyph-name="Atilde" d="M429 542h485l-238 596q-46 -115 -247 -596zM-20 19q0 31 47 33q27 0 40.5 3.5t32.5 18.5t37 46t44 86q275 583 491 1126q24 62 45 62q25 0 54 -71q20 -50 136.5 -339t209.5 -518.5t107 -259.5q33 -71 56 -103t42 -41t54 -10q47 -1 47 -32q0 -35 -63 -35q-31 0 -85 7 q-48 8 -104 8q-46 0 -89 -7q-56 -8 -104 -8q-65 0 -65 37q0 13 10 21.5t26 8.5q12 0 32 -4q17 -3 28 -3q36 0 49 15.5t13 51.5t-40 137l-83 208h-555q-58 -141 -81 -205q-28 -76 -28 -116q0 -50 16 -70t58 -20q14 0 30 2q18 3 30 3q16 0 26 -8t10 -21q0 -37 -65 -37 q-35 0 -80 7q-56 8 -86 8q-47 0 -94 -7q-52 -8 -89 -8q-60 0 -60 34zM460 1512q-14 0 -28.5 11.5t-14.5 20.5q0 75 56 136q50 53 123 53q80 0 160 -60q67 -51 120 -51q26 0 47 22t41 74q5 15 12 15q14 0 28.5 -11.5t14.5 -20.5q0 -75 -56 -136q-50 -53 -123 -53 q-44 0 -77 11.5t-78 44.5q-44 33 -70 44.5t-55 11.5q-52 0 -88 -97q-5 -15 -12 -15z" unicode="Ã"/>
<glyph glyph-name="Adieresis" d="M429 542h485l-238 596q-46 -115 -247 -596zM-20 19q0 31 47 33q27 0 40.5 3.5t32.5 18.5t37 46t44 86q275 583 491 1126q24 62 45 62q25 0 54 -71q20 -50 136.5 -339t209.5 -518.5t107 -259.5q33 -71 56 -103t42 -41t54 -10q47 -1 47 -32q0 -35 -63 -35q-31 0 -85 7 q-48 8 -104 8q-46 0 -89 -7q-56 -8 -104 -8q-65 0 -65 37q0 13 10 21.5t26 8.5q12 0 32 -4q17 -3 28 -3q36 0 49 15.5t13 51.5t-40 137l-83 208h-555q-58 -141 -81 -205q-28 -76 -28 -116q0 -50 16 -70t58 -20q14 0 30 2q18 3 30 3q16 0 26 -8t10 -21q0 -37 -65 -37 q-35 0 -80 7q-56 8 -86 8q-47 0 -94 -7q-52 -8 -89 -8q-60 0 -60 34zM491 1542q-46 0 -73.5 28.5t-27.5 73.5q0 42 31.5 70t74.5 28q45 0 73 -28t28 -71t-29.5 -72t-76.5 -29zM941 1542q-46 0 -73.5 28.5t-27.5 73.5q0 42 31.5 70t74.5 28q45 0 73 -28t28 -71t-29.5 -72 t-76.5 -29z" unicode="Ä"/>
<glyph glyph-name="Aring" d="M429 542h485l-238 596q-46 -115 -247 -596zM722 1421q45 0 77 37t32 99q0 55 -33 93.5t-79 38.5q-48 0 -79.5 -38t-31.5 -94q0 -55 34 -95.5t80 -40.5zM-20 19q0 31 47 33q27 0 40.5 3.5t32.5 18.5t37 46t44 86q275 583 491 1126l9 23q-80 10 -124.5 64t-44.5 137 q0 87 60.5 144t146.5 57q93 0 149.5 -52t56.5 -148q0 -84 -48 -137t-121 -64l15 -33q20 -50 136.5 -339t209.5 -518.5t107 -259.5q33 -71 56 -103t42 -41t54 -10q47 -1 47 -32q0 -35 -63 -35q-31 0 -85 7q-48 8 -104 8q-46 0 -89 -7q-56 -8 -104 -8q-65 0 -65 37 q0 13 10 21.5t26 8.5q12 0 32 -4q17 -3 28 -3q36 0 49 15.5t13 51.5t-40 137l-83 208h-555q-58 -141 -81 -205q-28 -76 -28 -116q0 -50 16 -70t58 -20q14 0 30 2q18 3 30 3q16 0 26 -8t10 -21q0 -37 -65 -37q-35 0 -80 7q-56 8 -86 8q-47 0 -94 -7q-52 -8 -89 -8 q-60 0 -60 34z" unicode="Å"/>
<glyph glyph-name="AE" horiz-adv-x="1908" unicode="Æ" d="M602 542h399l2 -6v623zM1003 1215q0 5 -1 7zM20 19q0 32 35 32q60 0 122.5 47t137.5 162l659 1010q-33 24 -82 24q-6 0 -13.5 -0.5t-9.5 -0.5q-21 -3 -26 -3q-36 0 -36 29q0 37 93 37q46 0 147 -8t167 -8q1 0 211 7q187 9 317 9q28 0 37 -8.5t9 -35.5q0 -45 -7 -113 q-6 -50 -13 -66t-22 -16q-10 0 -15.5 6.5t-11.5 23.5q-12 33 -28.5 50t-50.5 29q-107 35 -354 35h-89q-24 0 -30.5 -7t-6.5 -32v-421q126 -14 224 -14q109 0 144.5 7t52.5 34q33 54 55 54q27 0 27 -28q0 -10 -16 -58q-19 -55 -19 -84q0 -12 2 -38q2 -24 2 -38q0 -72 -34 -72 q-29 0 -29 46q0 37 -7 55t-28 26q-45 15 -172 15q-112 0 -202 -11v-237q0 -228 10 -365q74 -18 182 -18q144 0 225 14t134 53q30 20 57 69q12 21 19.5 28.5t19.5 7.5q21 0 21 -29q0 -12 -9 -38q-2 -5 -6 -18.5t-9 -30t-10 -34.5q-22 -80 -37 -98.5t-62 -18.5q-163 0 -376 12 q-131 8 -216 8q-89 0 -142 -8q-47 -7 -86 -7q-55 0 -55 37q0 29 36 29q5 0 26 -3q10 -2 23 -2q38 0 57.5 18.5t30 77t10.5 172.5v143h-456l-133 -205q-70 -108 -70 -158q0 -48 71 -48q14 0 30 2q18 3 30 3q16 0 26 -8t10 -21q0 -37 -65 -37q-34 0 -80 7q-56 8 -82 8 q-73 0 -120 -7q-52 -8 -84 -8q-60 0 -60 34z"/>
<glyph glyph-name="Ccedilla" horiz-adv-x="1488" unicode="Ç" d="M100 646q0 213 96.5 376.5t273 253t407.5 89.5q250 0 417 -67q32 -13 45 -31.5t19 -69.5q10 -88 10 -146q0 -39 -27 -39q-26 0 -38 42q-11 40 -51 85.5t-86 71.5q-131 74 -311 74q-256 0 -411.5 -151t-155.5 -411q0 -190 80 -341t222.5 -235.5t321.5 -84.5 q151 0 270.5 72t199.5 207q12 20 23 20q12 0 22.5 -25.5t10.5 -67.5q0 -36 -70 -101q-201 -192 -487 -192q-21 0 -32 1q-18 -40 -30 -84q90 -30 127.5 -71.5t37.5 -106.5q0 -72 -58.5 -123.5t-141.5 -51.5q-67 0 -112.5 21.5t-45.5 47.5q0 23 17.5 53t34.5 30q14 0 35 -34 q35 -57 99 -57q31 0 55.5 19.5t24.5 53.5q0 33 -24.5 55.5t-101.5 50.5q-41 16 -41 40q0 47 50 161q-204 20 -358.5 114t-235.5 237.5t-81 314.5z"/>
<glyph glyph-name="Egrave" horiz-adv-x="1153" unicode="È" d="M65 22q0 29 36 29q5 0 26 -3q10 -2 23 -2q38 0 57.5 18.5t30 77t10.5 172.5v709q0 165 -19.5 218t-78.5 53q-6 0 -13.5 -0.5t-9.5 -0.5q-21 -3 -26 -3q-36 0 -36 29q0 37 65 37q58 0 126 -7q94 -9 183 -9q21 0 231 7q187 9 317 9q28 0 37 -8.5t9 -35.5q0 -45 -7 -113 q-6 -50 -13 -66t-22 -16q-10 0 -15.5 6.5t-11.5 23.5q-12 33 -28.5 50t-50.5 29q-107 35 -354 35h-89q-24 0 -30.5 -7t-6.5 -32v-421q126 -14 224 -14q109 0 144.5 7t52.5 34q33 54 55 54q27 0 27 -28q0 -10 -16 -58q-19 -55 -19 -84q0 -12 2 -38q2 -24 2 -38q0 -72 -34 -72 q-29 0 -29 46q0 37 -7 55t-28 26q-45 15 -172 15q-112 0 -202 -11v-237q0 -228 10 -365q74 -18 182 -18q144 0 225 14t134 53q30 20 57 69q12 21 19.5 28.5t19.5 7.5q21 0 21 -29q0 -12 -9 -38q-2 -5 -6 -18.5t-9 -30t-10 -34.5q-22 -80 -37 -98.5t-62 -18.5q-163 0 -376 12 q-131 8 -216 8q-89 0 -142 -8q-47 -7 -86 -7q-55 0 -55 37zM418 1636q-19 6 -19 21q0 23 18 60q22 44 41 44q9 0 23 -8l339 -183q21 -11 21 -26q0 -13 -9 -25.5t-20 -12.5q-9 0 -69 20z"/>
<glyph glyph-name="Eacute" horiz-adv-x="1153" unicode="É" d="M65 22q0 29 36 29q5 0 26 -3q10 -2 23 -2q38 0 57.5 18.5t30 77t10.5 172.5v709q0 165 -19.5 218t-78.5 53q-6 0 -13.5 -0.5t-9.5 -0.5q-21 -3 -26 -3q-36 0 -36 29q0 37 65 37q58 0 126 -7q94 -9 183 -9q21 0 231 7q187 9 317 9q28 0 37 -8.5t9 -35.5q0 -45 -7 -113 q-6 -50 -13 -66t-22 -16q-10 0 -15.5 6.5t-11.5 23.5q-12 33 -28.5 50t-50.5 29q-107 35 -354 35h-89q-24 0 -30.5 -7t-6.5 -32v-421q126 -14 224 -14q109 0 144.5 7t52.5 34q33 54 55 54q27 0 27 -28q0 -10 -16 -58q-19 -55 -19 -84q0 -12 2 -38q2 -24 2 -38q0 -72 -34 -72 q-29 0 -29 46q0 37 -7 55t-28 26q-45 15 -172 15q-112 0 -202 -11v-237q0 -228 10 -365q74 -18 182 -18q144 0 225 14t134 53q30 20 57 69q12 21 19.5 28.5t19.5 7.5q21 0 21 -29q0 -12 -9 -38q-2 -5 -6 -18.5t-9 -30t-10 -34.5q-22 -80 -37 -98.5t-62 -18.5q-163 0 -376 12 q-131 8 -216 8q-89 0 -142 -8q-47 -7 -86 -7q-55 0 -55 37zM428 1509q-11 0 -20 12.5t-9 25.5q0 15 21 26l339 183q14 8 23 8q19 0 41 -44q18 -38 18 -60q0 -15 -19 -21l-325 -110q-60 -20 -69 -20z"/>
<glyph glyph-name="Ecircumflex" horiz-adv-x="1153" unicode="Ê" d="M65 22q0 29 36 29q5 0 26 -3q10 -2 23 -2q38 0 57.5 18.5t30 77t10.5 172.5v709q0 165 -19.5 218t-78.5 53q-6 0 -13.5 -0.5t-9.5 -0.5q-21 -3 -26 -3q-36 0 -36 29q0 37 65 37q58 0 126 -7q94 -9 183 -9q21 0 231 7q187 9 317 9q28 0 37 -8.5t9 -35.5q0 -45 -7 -113 q-6 -50 -13 -66t-22 -16q-10 0 -15.5 6.5t-11.5 23.5q-12 33 -28.5 50t-50.5 29q-107 35 -354 35h-89q-24 0 -30.5 -7t-6.5 -32v-421q126 -14 224 -14q109 0 144.5 7t52.5 34q33 54 55 54q27 0 27 -28q0 -10 -16 -58q-19 -55 -19 -84q0 -12 2 -38q2 -24 2 -38q0 -72 -34 -72 q-29 0 -29 46q0 37 -7 55t-28 26q-45 15 -172 15q-112 0 -202 -11v-237q0 -228 10 -365q74 -18 182 -18q144 0 225 14t134 53q30 20 57 69q12 21 19.5 28.5t19.5 7.5q21 0 21 -29q0 -12 -9 -38q-2 -5 -6 -18.5t-9 -30t-10 -34.5q-22 -80 -37 -98.5t-62 -18.5q-163 0 -376 12 q-131 8 -216 8q-89 0 -142 -8q-47 -7 -86 -7q-55 0 -55 37zM394 1501q-10 0 -22.5 13.5t-12.5 25.5q0 9 17 24l190 169q43 37 54 37q13 0 54 -37l190 -169q17 -15 17 -24q0 -12 -12.5 -25.5t-22.5 -13.5q-8 0 -38 19l-188 118l-188 -118q-30 -19 -38 -19z"/>
<glyph glyph-name="Edieresis" horiz-adv-x="1153" unicode="Ë" d="M65 22q0 29 36 29q5 0 26 -3q10 -2 23 -2q38 0 57.5 18.5t30 77t10.5 172.5v709q0 165 -19.5 218t-78.5 53q-6 0 -13.5 -0.5t-9.5 -0.5q-21 -3 -26 -3q-36 0 -36 29q0 37 65 37q58 0 126 -7q94 -9 183 -9q21 0 231 7q187 9 317 9q28 0 37 -8.5t9 -35.5q0 -45 -7 -113 q-6 -50 -13 -66t-22 -16q-10 0 -15.5 6.5t-11.5 23.5q-12 33 -28.5 50t-50.5 29q-107 35 -354 35h-89q-24 0 -30.5 -7t-6.5 -32v-421q126 -14 224 -14q109 0 144.5 7t52.5 34q33 54 55 54q27 0 27 -28q0 -10 -16 -58q-19 -55 -19 -84q0 -12 2 -38q2 -24 2 -38q0 -72 -34 -72 q-29 0 -29 46q0 37 -7 55t-28 26q-45 15 -172 15q-112 0 -202 -11v-237q0 -228 10 -365q74 -18 182 -18q144 0 225 14t134 53q30 20 57 69q12 21 19.5 28.5t19.5 7.5q21 0 21 -29q0 -12 -9 -38q-2 -5 -6 -18.5t-9 -30t-10 -34.5q-22 -80 -37 -98.5t-62 -18.5q-163 0 -376 12 q-131 8 -216 8q-89 0 -142 -8q-47 -7 -86 -7q-55 0 -55 37zM393 1542q-46 0 -73.5 28.5t-27.5 73.5q0 42 31.5 70t74.5 28q45 0 73 -28t28 -71t-29.5 -72t-76.5 -29zM843 1542q-46 0 -73.5 28.5t-27.5 73.5q0 42 31.5 70t74.5 28q45 0 73 -28t28 -71t-29.5 -72t-76.5 -29z "/>
<glyph glyph-name="Igrave" horiz-adv-x="678" unicode="Ì" d="M81 22q0 29 36 29q5 0 26 -3q10 -2 23 -2q37 0 57 21t30.5 80.5t10.5 169.5l-5 706q0 113 -10.5 172t-30.5 79t-57 20q-6 0 -13.5 -0.5t-9.5 -0.5q-21 -3 -26 -3q-36 0 -36 29q0 37 65 37q36 0 76 -8q53 -8 122 -8t120 8q40 8 77 8q64 0 64 -37q0 -29 -36 -29q-5 0 -26 3 q-2 0 -9 0.5t-13 0.5q-37 0 -57 -21t-30.5 -80t-10.5 -170l5 -706q0 -110 12.5 -170t34 -80.5t58.5 -20.5q12 0 22 2q21 3 26 3q36 0 36 -29q0 -37 -64 -37q-33 0 -77 7q-47 8 -116 8q-72 0 -116 -6q-76 -9 -93 -9q-65 0 -65 37zM467 1526l-325 110q-19 6 -19 21q0 23 18 60 q22 44 41 44q9 0 23 -8l339 -183q21 -11 21 -26q0 -13 -9 -25.5t-20 -12.5q-9 0 -69 20z"/>
<glyph glyph-name="Iacute" horiz-adv-x="678" unicode="Í" d="M81 22q0 29 36 29q5 0 26 -3q10 -2 23 -2q37 0 57 21t30.5 80.5t10.5 169.5l-5 706q0 113 -10.5 172t-30.5 79t-57 20q-6 0 -13.5 -0.5t-9.5 -0.5q-21 -3 -26 -3q-36 0 -36 29q0 37 65 37q36 0 76 -8q53 -8 122 -8t120 8q40 8 77 8q64 0 64 -37q0 -29 -36 -29q-5 0 -26 3 q-2 0 -9 0.5t-13 0.5q-37 0 -57 -21t-30.5 -80t-10.5 -170l5 -706q0 -110 12.5 -170t34 -80.5t58.5 -20.5q12 0 22 2q21 3 26 3q36 0 36 -29q0 -37 -64 -37q-33 0 -77 7q-47 8 -116 8q-72 0 -116 -6q-76 -9 -93 -9q-65 0 -65 37zM152 1509q-11 0 -20 12.5t-9 25.5 q0 15 21 26l339 183q14 8 23 8q19 0 41 -44q18 -38 18 -60q0 -15 -19 -21l-325 -110q-60 -20 -69 -20z"/>
<glyph glyph-name="Icircumflex" horiz-adv-x="678" unicode="Î" d="M81 22q0 29 36 29q5 0 26 -3q10 -2 23 -2q37 0 57 21t30.5 80.5t10.5 169.5l-5 706q0 113 -10.5 172t-30.5 79t-57 20q-6 0 -13.5 -0.5t-9.5 -0.5q-21 -3 -26 -3q-36 0 -36 29q0 37 65 37q36 0 76 -8q53 -8 122 -8t120 8q40 8 77 8q64 0 64 -37q0 -29 -36 -29q-5 0 -26 3 q-2 0 -9 0.5t-13 0.5q-37 0 -57 -21t-30.5 -80t-10.5 -170l5 -706q0 -110 12.5 -170t34 -80.5t58.5 -20.5q12 0 22 2q21 3 26 3q36 0 36 -29q0 -37 -64 -37q-33 0 -77 7q-47 8 -116 8q-72 0 -116 -6q-76 -9 -93 -9q-65 0 -65 37zM118 1501q-10 0 -22.5 13.5t-12.5 25.5 q0 9 17 24l190 169q43 37 54 37q13 0 54 -37l190 -169q17 -15 17 -24q0 -12 -12.5 -25.5t-22.5 -13.5q-8 0 -38 19l-188 118l-188 -118q-30 -19 -38 -19z"/>
<glyph glyph-name="Idieresis" horiz-adv-x="678" unicode="Ï" d="M81 22q0 29 36 29q5 0 26 -3q10 -2 23 -2q37 0 57 21t30.5 80.5t10.5 169.5l-5 706q0 113 -10.5 172t-30.5 79t-57 20q-6 0 -13.5 -0.5t-9.5 -0.5q-21 -3 -26 -3q-36 0 -36 29q0 37 65 37q36 0 76 -8q53 -8 122 -8t120 8q40 8 77 8q64 0 64 -37q0 -29 -36 -29q-5 0 -26 3 q-2 0 -9 0.5t-13 0.5q-37 0 -57 -21t-30.5 -80t-10.5 -170l5 -706q0 -110 12.5 -170t34 -80.5t58.5 -20.5q12 0 22 2q21 3 26 3q36 0 36 -29q0 -37 -64 -37q-33 0 -77 7q-47 8 -116 8q-72 0 -116 -6q-76 -9 -93 -9q-65 0 -65 37zM117 1542q-46 0 -73.5 28.5t-27.5 73.5 q0 42 31.5 70t74.5 28q45 0 73 -28t28 -71t-29.5 -72t-76.5 -29zM567 1542q-46 0 -73.5 28.5t-27.5 73.5q0 42 31.5 70t74.5 28q45 0 73 -28t28 -71t-29.5 -72t-76.5 -29z"/>
<glyph glyph-name="Eth" horiz-adv-x="1537" unicode="Ð" d="M417 130q134 -69 299 -69q120 0 251 57q292 132 292 508q0 309 -166.5 484t-441.5 175q-194 0 -226 -52q-11 -18 -14 -42t-3 -91v-367h306q23 0 23 -18q0 -24 -10.5 -45.5t-22.5 -21.5h-296v-187q0 -196 9 -331zM68 22q0 29 36 29q5 0 26 -3q10 -2 23 -2q60 0 79 61 t19 210v331h-149q-24 0 -24 18q0 24 10.5 45.5t22.5 21.5h140v290q0 149 -19 210t-79 61q-6 0 -13.5 -0.5t-9.5 -0.5q-21 -3 -26 -3q-36 0 -36 29q0 37 65 37q36 0 76 -8q53 -8 96 -8q99 0 204 15q73 10 185 10q216 0 384.5 -84.5t263.5 -242t95 -363.5q0 -143 -53.5 -270 t-150.5 -221t-241 -149t-316 -55q-68 0 -204 11q-97 9 -167 9q-52 0 -96 -8q-44 -7 -76 -7q-65 0 -65 37z"/>
<glyph glyph-name="Ntilde" horiz-adv-x="1555" unicode="Ñ" d="M71 22q0 29 36 29q5 0 26 -3q10 -2 23 -2q60 0 79 61t19 210v704q0 149 -19 209.5t-79 60.5q-11 0 -25 -2q-21 -3 -24 -3q-16 0 -26 8t-10 22q0 39 65 39q31 0 76 -9q51 -6 55 -6q39 0 75 6l921 -1071v748q0 146 -21 208.5t-82 62.5q-8 0 -24 -2t-25 -2q-16 0 -26 8 t-10 21q0 37 65 37q36 0 76 -8q48 -8 88 -8q19 0 89 9q46 7 80 7q65 0 65 -37q0 -13 -10 -21t-26 -8q-6 0 -22 2t-27 2q-61 0 -79.5 -61t-18.5 -210v-1010q0 -33 -6 -44.5t-20 -11.5q-11 0 -21.5 8t-34.5 34l-922 1068v-750q0 -149 18.5 -210t79.5 -61q12 0 22 2q21 3 26 3 q36 0 36 -29q0 -37 -64 -37q-33 0 -77 7q-47 8 -87 8q-32 0 -76 -6q-76 -9 -93 -9q-65 0 -65 37zM540 1512q-14 0 -28.5 11.5t-14.5 20.5q0 75 56 136q50 53 123 53q80 0 160 -60q67 -51 120 -51q26 0 47 22t41 74q5 15 12 15q14 0 28.5 -11.5t14.5 -20.5q0 -75 -56 -136 q-50 -53 -123 -53q-44 0 -77 11.5t-78 44.5q-44 33 -70 44.5t-55 11.5q-52 0 -88 -97q-5 -15 -12 -15z"/>
<glyph glyph-name="Ograve" horiz-adv-x="1585" unicode="Ò" d="M271 747q0 -142 43 -268.5t119 -219t186 -147t237 -54.5q197 0 325 150t128 398q0 145 -42 271.5t-115 215t-175.5 139t-219.5 50.5q-95 0 -183.5 -40t-155.5 -109.5t-107 -170t-40 -215.5zM100 675q0 198 97 357.5t256.5 246t347.5 86.5q201 0 357.5 -92t241.5 -252.5 t85 -361.5q0 -142 -52 -267.5t-143 -217.5t-222.5 -145.5t-283.5 -53.5q-198 0 -355 92t-243 251.5t-86 356.5zM590 1636q-19 6 -19 21q0 23 18 60q22 44 41 44q9 0 23 -8l339 -183q21 -11 21 -26q0 -13 -9 -25.5t-20 -12.5q-9 0 -69 20z"/>
<glyph glyph-name="Oacute" horiz-adv-x="1585" unicode="Ó" d="M271 747q0 -142 43 -268.5t119 -219t186 -147t237 -54.5q197 0 325 150t128 398q0 145 -42 271.5t-115 215t-175.5 139t-219.5 50.5q-95 0 -183.5 -40t-155.5 -109.5t-107 -170t-40 -215.5zM100 675q0 198 97 357.5t256.5 246t347.5 86.5q201 0 357.5 -92t241.5 -252.5 t85 -361.5q0 -142 -52 -267.5t-143 -217.5t-222.5 -145.5t-283.5 -53.5q-198 0 -355 92t-243 251.5t-86 356.5zM600 1509q-11 0 -20 12.5t-9 25.5q0 15 21 26l339 183q14 8 23 8q19 0 41 -44q18 -38 18 -60q0 -15 -19 -21l-325 -110q-60 -20 -69 -20z"/>
<glyph glyph-name="Ocircumflex" horiz-adv-x="1585" unicode="Ô" d="M271 747q0 -142 43 -268.5t119 -219t186 -147t237 -54.5q197 0 325 150t128 398q0 145 -42 271.5t-115 215t-175.5 139t-219.5 50.5q-95 0 -183.5 -40t-155.5 -109.5t-107 -170t-40 -215.5zM100 675q0 198 97 357.5t256.5 246t347.5 86.5q201 0 357.5 -92t241.5 -252.5 t85 -361.5q0 -142 -52 -267.5t-143 -217.5t-222.5 -145.5t-283.5 -53.5q-198 0 -355 92t-243 251.5t-86 356.5zM566 1501q-10 0 -22.5 13.5t-12.5 25.5q0 9 17 24l190 169q43 37 54 37q13 0 54 -37l190 -169q17 -15 17 -24q0 -12 -12.5 -25.5t-22.5 -13.5q-8 0 -38 19 l-188 118l-188 -118q-30 -19 -38 -19z"/>
<glyph glyph-name="Otilde" horiz-adv-x="1585" unicode="Õ" d="M271 747q0 -142 43 -268.5t119 -219t186 -147t237 -54.5q197 0 325 150t128 398q0 145 -42 271.5t-115 215t-175.5 139t-219.5 50.5q-95 0 -183.5 -40t-155.5 -109.5t-107 -170t-40 -215.5zM100 675q0 198 97 357.5t256.5 246t347.5 86.5q201 0 357.5 -92t241.5 -252.5 t85 -361.5q0 -142 -52 -267.5t-143 -217.5t-222.5 -145.5t-283.5 -53.5q-198 0 -355 92t-243 251.5t-86 356.5zM534 1512q-14 0 -28.5 11.5t-14.5 20.5q0 75 56 136q50 53 123 53q80 0 160 -60q67 -51 120 -51q26 0 47 22t41 74q5 15 12 15q14 0 28.5 -11.5t14.5 -20.5 q0 -75 -56 -136q-50 -53 -123 -53q-44 0 -77 11.5t-78 44.5q-44 33 -70 44.5t-55 11.5q-52 0 -88 -97q-5 -15 -12 -15z"/>
<glyph glyph-name="Odieresis" horiz-adv-x="1585" unicode="Ö" d="M271 747q0 -142 43 -268.5t119 -219t186 -147t237 -54.5q197 0 325 150t128 398q0 145 -42 271.5t-115 215t-175.5 139t-219.5 50.5q-95 0 -183.5 -40t-155.5 -109.5t-107 -170t-40 -215.5zM100 675q0 198 97 357.5t256.5 246t347.5 86.5q201 0 357.5 -92t241.5 -252.5 t85 -361.5q0 -142 -52 -267.5t-143 -217.5t-222.5 -145.5t-283.5 -53.5q-198 0 -355 92t-243 251.5t-86 356.5zM565 1542q-46 0 -73.5 28.5t-27.5 73.5q0 42 31.5 70t74.5 28q45 0 73 -28t28 -71t-29.5 -72t-76.5 -29zM1015 1542q-46 0 -73.5 28.5t-27.5 73.5q0 42 31.5 70 t74.5 28q45 0 73 -28t28 -71t-29.5 -72t-76.5 -29z"/>
<glyph glyph-name="multiply" horiz-adv-x="775" unicode="×" d="M140 283l-60 60l247 247l-247 248l60 60l247 -248l248 248l60 -60l-248 -248l248 -247l-60 -60l-248 247z"/>
<glyph glyph-name="Oslash" horiz-adv-x="1585" unicode="Ø" d="M480 209q157 -151 376 -151q197 0 325 150t128 398q0 285 -148 474zM422 274l679 871q-146 137 -344 137q-95 0 -183.5 -40t-155.5 -109.5t-107 -170t-40 -215.5q0 -278 151 -473zM128 -108q0 7 30 45l163 209q-105 95 -163 232t-58 297q0 198 97 357.5t256.5 246 t347.5 86.5q218 0 386 -110l110 141q9 12 43.5 23t63.5 11q16 0 16 -11q0 -5 -19 -32l-145 -185q110 -96 169.5 -236t59.5 -307q0 -142 -52 -267.5t-143 -217.5t-222.5 -145.5t-283.5 -53.5q-223 0 -395 117l-138 -177q-10 -13 -44 -23.5t-63 -10.5q-16 0 -16 11z"/>
<glyph glyph-name="Ugrave" horiz-adv-x="1506" unicode="Ù" d="M410 333q40 -125 140.5 -197t227.5 -72q169 0 258.5 56.5t132.5 173.5q30 81 30 240l-2 489q0 149 -19 210t-79 61q-7 0 -23 -2t-26 -2q-36 0 -36 29q0 37 65 37q26 0 76 -8q44 -8 96 -8q45 0 88 8q45 8 77 8q64 0 64 -37q0 -29 -36 -29q-7 0 -23 2t-25 2 q-61 0 -79.5 -61t-18.5 -210l-2 -540q0 -224 -143 -366t-380 -142q-259 0 -410.5 145t-151.5 409v494q0 146 -20.5 208.5t-81.5 62.5q-7 0 -25 -2q-16 -2 -24 -2q-36 0 -36 29q0 37 65 37q30 0 80 -8q44 -8 129 -8q90 0 133 8q40 8 81 8q64 0 64 -37q0 -29 -36 -29 q-7 0 -21 2q-16 2 -27 2q-61 0 -81.5 -62t-20.5 -209v-416q0 -213 20 -274zM590 1636q-19 6 -19 21q0 23 18 60q22 44 41 44q9 0 23 -8l339 -183q21 -11 21 -26q0 -13 -9 -25.5t-20 -12.5q-9 0 -69 20z"/>
<glyph glyph-name="Uacute" horiz-adv-x="1506" unicode="Ú" d="M410 333q40 -125 140.5 -197t227.5 -72q169 0 258.5 56.5t132.5 173.5q30 81 30 240l-2 489q0 149 -19 210t-79 61q-7 0 -23 -2t-26 -2q-36 0 -36 29q0 37 65 37q26 0 76 -8q44 -8 96 -8q45 0 88 8q45 8 77 8q64 0 64 -37q0 -29 -36 -29q-7 0 -23 2t-25 2 q-61 0 -79.5 -61t-18.5 -210l-2 -540q0 -224 -143 -366t-380 -142q-259 0 -410.5 145t-151.5 409v494q0 146 -20.5 208.5t-81.5 62.5q-7 0 -25 -2q-16 -2 -24 -2q-36 0 -36 29q0 37 65 37q30 0 80 -8q44 -8 129 -8q90 0 133 8q40 8 81 8q64 0 64 -37q0 -29 -36 -29 q-7 0 -21 2q-16 2 -27 2q-61 0 -81.5 -62t-20.5 -209v-416q0 -213 20 -274zM600 1509q-11 0 -20 12.5t-9 25.5q0 15 21 26l339 183q14 8 23 8q19 0 41 -44q18 -38 18 -60q0 -15 -19 -21l-325 -110q-60 -20 -69 -20z"/>
<glyph glyph-name="Ucircumflex" horiz-adv-x="1506" unicode="Û" d="M410 333q40 -125 140.5 -197t227.5 -72q169 0 258.5 56.5t132.5 173.5q30 81 30 240l-2 489q0 149 -19 210t-79 61q-7 0 -23 -2t-26 -2q-36 0 -36 29q0 37 65 37q26 0 76 -8q44 -8 96 -8q45 0 88 8q45 8 77 8q64 0 64 -37q0 -29 -36 -29q-7 0 -23 2t-25 2 q-61 0 -79.5 -61t-18.5 -210l-2 -540q0 -224 -143 -366t-380 -142q-259 0 -410.5 145t-151.5 409v494q0 146 -20.5 208.5t-81.5 62.5q-7 0 -25 -2q-16 -2 -24 -2q-36 0 -36 29q0 37 65 37q30 0 80 -8q44 -8 129 -8q90 0 133 8q40 8 81 8q64 0 64 -37q0 -29 -36 -29 q-7 0 -21 2q-16 2 -27 2q-61 0 -81.5 -62t-20.5 -209v-416q0 -213 20 -274zM566 1501q-10 0 -22.5 13.5t-12.5 25.5q0 9 17 24l190 169q43 37 54 37q13 0 54 -37l190 -169q17 -15 17 -24q0 -12 -12.5 -25.5t-22.5 -13.5q-8 0 -38 19l-188 118l-188 -118q-30 -19 -38 -19z "/>
<glyph glyph-name="Udieresis" horiz-adv-x="1506" unicode="Ü" d="M410 333q40 -125 140.5 -197t227.5 -72q169 0 258.5 56.5t132.5 173.5q30 81 30 240l-2 489q0 149 -19 210t-79 61q-7 0 -23 -2t-26 -2q-36 0 -36 29q0 37 65 37q26 0 76 -8q44 -8 96 -8q45 0 88 8q45 8 77 8q64 0 64 -37q0 -29 -36 -29q-7 0 -23 2t-25 2 q-61 0 -79.5 -61t-18.5 -210l-2 -540q0 -224 -143 -366t-380 -142q-259 0 -410.5 145t-151.5 409v494q0 146 -20.5 208.5t-81.5 62.5q-7 0 -25 -2q-16 -2 -24 -2q-36 0 -36 29q0 37 65 37q30 0 80 -8q44 -8 129 -8q90 0 133 8q40 8 81 8q64 0 64 -37q0 -29 -36 -29 q-7 0 -21 2q-16 2 -27 2q-61 0 -81.5 -62t-20.5 -209v-416q0 -213 20 -274zM565 1542q-46 0 -73.5 28.5t-27.5 73.5q0 42 31.5 70t74.5 28q45 0 73 -28t28 -71t-29.5 -72t-76.5 -29zM1015 1542q-46 0 -73.5 28.5t-27.5 73.5q0 42 31.5 70t74.5 28q45 0 73 -28t28 -71 t-29.5 -72t-76.5 -29z"/>
<glyph glyph-name="Yacute" horiz-adv-x="1260" unicode="Ý" d="M373 22q0 29 36 29q5 0 26 -3q10 -2 23 -2q60 0 79 61t19 210v350l-315 465q-64 94 -97.5 123t-80.5 30q-43 2 -43 36q0 15 16.5 25t46.5 10q26 0 80 -8q50 -8 79 -8q39 0 89 8q56 8 74 8q65 0 65 -34q0 -32 -62 -32q-49 0 -49 -36q0 -21 36 -76l276 -418l212 336 q75 118 75 152q0 42 -67 42q-58 0 -58 34q0 32 65 32q21 0 67 -8q48 -8 75 -8q22 0 71 9q33 7 59 7q29 0 49.5 -9.5t20.5 -25.5q0 -36 -47 -36q-49 0 -84 -31t-110 -143l-286 -430v-364q0 -149 18.5 -210t79.5 -61q12 0 22 2q21 3 26 3q36 0 36 -29q0 -37 -64 -37 q-33 0 -77 7q-47 8 -107 8q-72 0 -116 -6q-76 -9 -93 -9q-65 0 -65 37zM459 1509q-11 0 -20 12.5t-9 25.5q0 15 21 26l339 183q14 8 23 8q19 0 41 -44q18 -38 18 -60q0 -15 -19 -21l-325 -110q-60 -20 -69 -20z"/>
<glyph glyph-name="Thorn" horiz-adv-x="1072" unicode="Þ" d="M68 22q0 29 36 29q5 0 26 -3q10 -2 23 -2q37 0 57 21t30.5 80.5t10.5 169.5v706q0 113 -10.5 172t-30.5 79t-57 20q-6 0 -13.5 -0.5t-9.5 -0.5q-21 -3 -26 -3q-36 0 -36 29q0 37 65 37q36 0 76 -8q53 -8 122 -8q67 0 118 8q40 8 77 8q64 0 64 -37q0 -29 -36 -29 q-5 0 -26 3q-2 0 -9 0.5t-13 0.5q-53 0 -75 -49t-23 -191q22 2 34 4q58 9 84 9q109 0 199.5 -35.5t147.5 -95t88 -133.5t31 -153q0 -102 -56 -191t-146 -140t-188 -51q-74 0 -123.5 22t-49.5 55q0 15 9 24t21 9q18 0 44 -20q39 -27 101 -27q103 0 161 85t58 230 q0 162 -88 256.5t-228 94.5q-95 0 -99 -56v-624q0 -111 10.5 -170t30.5 -80t57 -21q12 0 22 2q21 3 26 3q36 0 36 -29q0 -37 -64 -37q-33 0 -77 7q-47 8 -107 8q-72 0 -116 -6q-76 -9 -93 -9q-65 0 -65 37z"/>
<glyph glyph-name="germandbls" horiz-adv-x="1209" unicode="ß" d="M60 22q0 29 37 29q5 0 26 -3q12 -2 24 -2q33 0 48 18t22 74t7 179v521l-134 3q-17 0 -17 19q0 22 9 41t24 19h118v80q0 207 100 318t273 112q148 0 235.5 -84.5t87.5 -202.5q0 -109 -57 -196.5t-175 -137.5q186 -26 313.5 -161t127.5 -302q0 -158 -99.5 -264.5 t-270.5 -106.5q-102 0 -171.5 38.5t-69.5 87.5q0 26 30 53t58 27q11 0 18 -2.5t16.5 -13.5t17.5 -31q15 -37 53 -64t81 -27q71 0 115.5 52.5t51.5 155.5q2 42 2 61q0 211 -106 321.5t-298 122.5q-16 -2 -21 -2q-23 0 -36 10.5t-13 27.5q0 39 55 39q2 0 6 -0.5t7 -0.5 q98 11 154 79.5t56 179.5q-1 130 -59 201t-151 71q-94 0 -135 -74.5t-41 -251.5v-718q0 -100 4 -151t15 -94.5t12 -47.5q3 -16 -6 -23.5t-22 -7.5q-11 0 -37.5 3.5t-37.5 3.5q-27 0 -97 -7q-62 -8 -83 -8q-67 0 -67 37z"/>
<glyph glyph-name="agrave" horiz-adv-x="1033" unicode="à" d="M275 289q0 -93 51.5 -154t139.5 -61q73 0 136 28t101 84q-3 28 -3 62v203q-74 41 -191 41q-102 0 -168 -55.5t-66 -147.5zM101 252q0 144 125 228t321 84q60 0 153 -20v78q0 257 -217 257q-65 0 -105 -27.5t-69 -89.5q-40 -84 -95 -84q-26 0 -50 19t-24 45q0 30 27 63 t68 59q127 79 274 79q78 0 139.5 -16.5t110 -51.5t74.5 -95t26 -142v-399q0 -75 14.5 -98t52.5 -23q16 0 40 8t26 8q13 0 21 -7.5t8 -18.5q0 -28 -58 -51q-58 -22 -91 -52q-32 -30 -51 -30q-23 0 -43 17.5t-40 63.5q-8 17 -20 51q-56 -64 -137.5 -98t-169.5 -34 q-144 0 -227 77t-83 200zM332 1221q-19 8 -19 21q0 30 19 62q25 41 44 41q9 0 23 -8l282 -179q18 -12 23.5 -17.5t5.5 -13.5q0 -14 -9.5 -25.5t-20.5 -11.5q-9 0 -69 23z"/>
<glyph glyph-name="aacute" horiz-adv-x="1033" unicode="á" d="M275 289q0 -93 51.5 -154t139.5 -61q73 0 136 28t101 84q-3 28 -3 62v203q-74 41 -191 41q-102 0 -168 -55.5t-66 -147.5zM101 252q0 144 125 228t321 84q60 0 153 -20v78q0 257 -217 257q-65 0 -105 -27.5t-69 -89.5q-40 -84 -95 -84q-26 0 -50 19t-24 45q0 30 27 63 t68 59q127 79 274 79q78 0 139.5 -16.5t110 -51.5t74.5 -95t26 -142v-399q0 -75 14.5 -98t52.5 -23q16 0 40 8t26 8q13 0 21 -7.5t8 -18.5q0 -28 -58 -51q-58 -22 -91 -52q-32 -30 -51 -30q-23 0 -43 17.5t-40 63.5q-8 17 -20 51q-56 -64 -137.5 -98t-169.5 -34 q-144 0 -227 77t-83 200zM358 1090q-11 0 -20.5 11.5t-9.5 25.5q0 8 5.5 13.5t23.5 17.5l282 179q14 8 23 8q19 0 44 -41q19 -32 19 -62q0 -13 -19 -21l-279 -108q-60 -23 -69 -23z"/>
<glyph glyph-name="acircumflex" horiz-adv-x="1033" unicode="â" d="M275 289q0 -93 51.5 -154t139.5 -61q73 0 136 28t101 84q-3 28 -3 62v203q-74 41 -191 41q-102 0 -168 -55.5t-66 -147.5zM101 252q0 144 125 228t321 84q60 0 153 -20v78q0 257 -217 257q-65 0 -105 -27.5t-69 -89.5q-40 -84 -95 -84q-26 0 -50 19t-24 45q0 30 27 63 t68 59q127 79 274 79q78 0 139.5 -16.5t110 -51.5t74.5 -95t26 -142v-399q0 -75 14.5 -98t52.5 -23q16 0 40 8t26 8q13 0 21 -7.5t8 -18.5q0 -28 -58 -51q-58 -22 -91 -52q-32 -30 -51 -30q-23 0 -43 17.5t-40 63.5q-8 17 -20 51q-56 -64 -137.5 -98t-169.5 -34 q-144 0 -227 77t-83 200zM320 1082q-10 0 -22.5 13.5t-12.5 25.5q0 8 17 26l165 167q33 37 51 37t51 -37l165 -167q17 -18 17 -26q0 -12 -12.5 -25.5t-22.5 -13.5q-8 0 -37 21l-161 114l-161 -114q-29 -21 -37 -21z"/>
<glyph glyph-name="atilde" horiz-adv-x="1033" unicode="ã" d="M275 289q0 -93 51.5 -154t139.5 -61q73 0 136 28t101 84q-3 28 -3 62v203q-74 41 -191 41q-102 0 -168 -55.5t-66 -147.5zM101 252q0 144 125 228t321 84q60 0 153 -20v78q0 257 -217 257q-65 0 -105 -27.5t-69 -89.5q-40 -84 -95 -84q-26 0 -50 19t-24 45q0 30 27 63 t68 59q127 79 274 79q78 0 139.5 -16.5t110 -51.5t74.5 -95t26 -142v-399q0 -75 14.5 -98t52.5 -23q16 0 40 8t26 8q13 0 21 -7.5t8 -18.5q0 -28 -58 -51q-58 -22 -91 -52q-32 -30 -51 -30q-23 0 -43 17.5t-40 63.5q-8 17 -20 51q-56 -64 -137.5 -98t-169.5 -34 q-144 0 -227 77t-83 200zM290 1106q-14 0 -28.5 11.5t-14.5 20.5q0 75 56 136q50 53 113 53q33 0 59 -9.5t66 -39.5q82 -62 115 -62q24 0 41.5 22.5t36.5 73.5q5 15 12 15q14 0 28.5 -11.5t14.5 -20.5q0 -75 -56 -136q-50 -53 -113 -53q-33 0 -59 9.5t-66 39.5 q-84 63 -115 63q-24 0 -41.5 -23t-36.5 -74q-5 -15 -12 -15z"/>
<glyph glyph-name="adieresis" horiz-adv-x="1033" unicode="ä" d="M275 289q0 -93 51.5 -154t139.5 -61q73 0 136 28t101 84q-3 28 -3 62v203q-74 41 -191 41q-102 0 -168 -55.5t-66 -147.5zM101 252q0 144 125 228t321 84q60 0 153 -20v78q0 257 -217 257q-65 0 -105 -27.5t-69 -89.5q-40 -84 -95 -84q-26 0 -50 19t-24 45q0 30 27 63 t68 59q127 79 274 79q78 0 139.5 -16.5t110 -51.5t74.5 -95t26 -142v-399q0 -75 14.5 -98t52.5 -23q16 0 40 8t26 8q13 0 21 -7.5t8 -18.5q0 -28 -58 -51q-58 -22 -91 -52q-32 -30 -51 -30q-23 0 -43 17.5t-40 63.5q-8 17 -20 51q-56 -64 -137.5 -98t-169.5 -34 q-144 0 -227 77t-83 200zM340 1111q-46 0 -73.5 28.5t-27.5 73.5q0 42 31.5 70t74.5 28q45 0 73 -28t28 -71q0 -42 -29 -71.5t-77 -29.5zM692 1111q-46 0 -73.5 28.5t-27.5 73.5q0 42 31.5 70t74.5 28q45 0 73 -28t28 -71q0 -42 -29 -71.5t-77 -29.5z"/>
<glyph glyph-name="aring" horiz-adv-x="1033" unicode="å" d="M275 289q0 -93 51.5 -154t139.5 -61q73 0 136 28t101 84q-3 28 -3 62v203q-74 41 -191 41q-102 0 -168 -55.5t-66 -147.5zM101 252q0 144 125 228t321 84q60 0 153 -20v78q0 257 -217 257q-65 0 -105 -27.5t-69 -89.5q-40 -84 -95 -84q-26 0 -50 19t-24 45q0 30 27 63 t68 59q127 79 274 79q78 0 139.5 -16.5t110 -51.5t74.5 -95t26 -142v-399q0 -75 14.5 -98t52.5 -23q16 0 40 8t26 8q13 0 21 -7.5t8 -18.5q0 -28 -58 -51q-58 -22 -91 -52q-32 -30 -51 -30q-23 0 -43 17.5t-40 63.5q-8 17 -20 51q-56 -64 -137.5 -98t-169.5 -34 q-144 0 -227 77t-83 200zM520 1169q45 0 77 37t32 99q0 55 -33 93.5t-79 38.5q-48 0 -79.5 -38t-31.5 -94q0 -55 34 -95.5t80 -40.5zM516 1101q-96 0 -151 56t-55 147q0 87 60.5 144t146.5 57q93 0 149.5 -52t56.5 -148t-60.5 -150t-146.5 -54z"/>
<glyph glyph-name="ae" horiz-adv-x="1560" unicode="æ" d="M278 289q0 -90 63 -152.5t154 -62.5q85 0 147 43t88 127q-29 94 -30 203q-74 41 -191 41q-102 0 -166.5 -54t-64.5 -145zM861 552h33h69q96 0 220 2q91 2 107 5q23 3 31 14.5t8 49.5q0 113 -60.5 180.5t-155.5 67.5q-103 0 -172 -86t-80 -233zM101 262q0 143 124.5 222.5 t321.5 79.5q60 0 153 -20v73q0 133 -46 195t-149 62q-66 0 -105.5 -26t-68.5 -86q-40 -84 -95 -84q-26 0 -52.5 19.5t-26.5 44.5q0 29 30 65t72 62q119 74 272 74q216 0 292 -154q132 154 322 154q162 0 252.5 -103t90.5 -260q0 -47 -13 -67.5t-42 -24.5 q-35 -5 -229.5 -12.5t-344.5 -8.5q7 -190 90.5 -295.5t236.5 -105.5q126 0 207 84q36 36 58 36q15 0 24 -10.5t9 -26.5q0 -22 -30.5 -53t-87.5 -64q-97 -57 -242 -57q-258 0 -361 190q-47 -91 -132 -140.5t-191 -49.5q-145 0 -242 83t-97 204z"/>
<glyph glyph-name="ccedilla" horiz-adv-x="950" unicode="ç" d="M567 943h12q62 -2 121.5 -18t99.5 -42q94 -62 97 -134v-1q0 -25 -25 -41t-52 -18h-7q-45 0 -71 54q-33 69 -80.5 98.5t-116.5 29.5q-121 0 -204 -102.5t-83 -273.5q0 -191 91 -310t252 -119q112 0 193 84q36 36 58 36q13 0 23 -10t10 -27q0 -22 -33.5 -55.5t-83.5 -62.5 q-87 -50 -204 -55q-18 -40 -30 -84q90 -30 127.5 -71.5t37.5 -106.5q0 -72 -58.5 -123.5t-141.5 -51.5q-67 0 -112.5 21.5t-45.5 47.5q0 23 17.5 53t34.5 30q14 0 35 -34q35 -57 99 -57q31 0 55.5 19.5t24.5 53.5q0 33 -24.5 55.5t-101.5 50.5q-41 16 -41 40q0 50 49 158 q-183 15 -294.5 147t-111.5 327q0 215 138 353.5t346 138.5z"/>
<glyph glyph-name="egrave" horiz-adv-x="985" unicode="è" d="M252 521q250 13 464 38q22 2 30.5 13.5t8.5 50.5q0 111 -68.5 180.5t-165.5 69.5q-112 0 -189 -95.5t-80 -256.5zM81 457q0 144 64 256.5t171 172t237 59.5q164 0 262.5 -105.5t98.5 -259.5q0 -47 -13 -67.5t-42 -24.5q-18 -3 -125 -9t-250 -15t-230 -17 q14 -176 103.5 -275.5t237.5 -99.5q61 0 121.5 21.5t99.5 62.5q36 36 58 36q15 0 24 -13t9 -30q0 -22 -30.5 -53t-87.5 -64q-97 -57 -256 -57q-206 0 -329 135.5t-123 346.5zM588 1113l-279 108q-19 8 -19 21q0 30 19 62q25 41 44 41q9 0 23 -8l282 -179q18 -12 23.5 -17.5 t5.5 -13.5q0 -14 -9.5 -25.5t-20.5 -11.5q-9 0 -69 23z"/>
<glyph glyph-name="eacute" horiz-adv-x="985" unicode="é" d="M252 521q250 13 464 38q22 2 30.5 13.5t8.5 50.5q0 111 -68.5 180.5t-165.5 69.5q-112 0 -189 -95.5t-80 -256.5zM81 457q0 144 64 256.5t171 172t237 59.5q164 0 262.5 -105.5t98.5 -259.5q0 -47 -13 -67.5t-42 -24.5q-18 -3 -125 -9t-250 -15t-230 -17 q14 -176 103.5 -275.5t237.5 -99.5q61 0 121.5 21.5t99.5 62.5q36 36 58 36q15 0 24 -13t9 -30q0 -22 -30.5 -53t-87.5 -64q-97 -57 -256 -57q-206 0 -329 135.5t-123 346.5zM335 1090q-11 0 -20.5 11.5t-9.5 25.5q0 8 5.5 13.5t23.5 17.5l282 179q14 8 23 8q19 0 44 -41 q19 -32 19 -62q0 -13 -19 -21l-279 -108q-60 -23 -69 -23z"/>
<glyph glyph-name="ecircumflex" horiz-adv-x="985" unicode="ê" d="M252 521q250 13 464 38q22 2 30.5 13.5t8.5 50.5q0 111 -68.5 180.5t-165.5 69.5q-112 0 -189 -95.5t-80 -256.5zM81 457q0 144 64 256.5t171 172t237 59.5q164 0 262.5 -105.5t98.5 -259.5q0 -47 -13 -67.5t-42 -24.5q-18 -3 -125 -9t-250 -15t-230 -17 q14 -176 103.5 -275.5t237.5 -99.5q61 0 121.5 21.5t99.5 62.5q36 36 58 36q15 0 24 -13t9 -30q0 -22 -30.5 -53t-87.5 -64q-97 -57 -256 -57q-206 0 -329 135.5t-123 346.5zM297 1082q-10 0 -22.5 13.5t-12.5 25.5q0 8 17 26l165 167q33 37 51 37t51 -37l165 -167 q17 -18 17 -26q0 -12 -12.5 -25.5t-22.5 -13.5q-8 0 -37 21l-161 114l-161 -114q-29 -21 -37 -21z"/>
<glyph glyph-name="edieresis" horiz-adv-x="985" unicode="ë" d="M252 521q250 13 464 38q22 2 30.5 13.5t8.5 50.5q0 111 -68.5 180.5t-165.5 69.5q-112 0 -189 -95.5t-80 -256.5zM81 457q0 144 64 256.5t171 172t237 59.5q164 0 262.5 -105.5t98.5 -259.5q0 -47 -13 -67.5t-42 -24.5q-18 -3 -125 -9t-250 -15t-230 -17 q14 -176 103.5 -275.5t237.5 -99.5q61 0 121.5 21.5t99.5 62.5q36 36 58 36q15 0 24 -13t9 -30q0 -22 -30.5 -53t-87.5 -64q-97 -57 -256 -57q-206 0 -329 135.5t-123 346.5zM317 1111q-46 0 -73.5 28.5t-27.5 73.5q0 42 31.5 70t74.5 28q45 0 73 -28t28 -71 q0 -42 -29.5 -71.5t-76.5 -29.5zM669 1111q-46 0 -73.5 28.5t-27.5 73.5q0 42 31.5 70t74.5 28q45 0 73 -28t28 -71q0 -42 -29.5 -71.5t-76.5 -29.5z"/>
<glyph glyph-name="igrave" horiz-adv-x="582" unicode="ì" d="M67 22q0 29 37 29q3 0 27 -3q10 -2 23 -2q33 0 48.5 17.5t22.5 74.5t7 179v301q0 104 -18 137q-16 30 -71 38q-51 8 -51 33q0 23 50 33q114 22 181 60q44 25 67 25q10 0 16.5 -6.5t6.5 -16.5q0 -2 -12 -50q-15 -55 -15 -245v-309q0 -122 7 -179t22.5 -74.5t48.5 -17.5 q13 0 23 2q24 3 27 3q37 0 37 -29q0 -37 -67 -37q-21 0 -83 8q-70 7 -91 7q-23 0 -93 -7q-62 -8 -83 -8q-67 0 -67 37zM402 1113l-279 108q-19 8 -19 21q0 30 19 62q25 41 44 41q9 0 23 -8l282 -179q18 -12 23.5 -17.5t5.5 -13.5q0 -14 -9.5 -25.5t-20.5 -11.5q-9 0 -69 23z "/>
<glyph glyph-name="iacute" horiz-adv-x="582" unicode="í" d="M67 22q0 29 37 29q3 0 27 -3q10 -2 23 -2q33 0 48.5 17.5t22.5 74.5t7 179v301q0 104 -18 137q-16 30 -71 38q-51 8 -51 33q0 23 50 33q114 22 181 60q44 25 67 25q10 0 16.5 -6.5t6.5 -16.5q0 -2 -12 -50q-15 -55 -15 -245v-309q0 -122 7 -179t22.5 -74.5t48.5 -17.5 q13 0 23 2q24 3 27 3q37 0 37 -29q0 -37 -67 -37q-21 0 -83 8q-70 7 -91 7q-23 0 -93 -7q-62 -8 -83 -8q-67 0 -67 37zM149 1090q-11 0 -20.5 11.5t-9.5 25.5q0 8 5.5 13.5t23.5 17.5l282 179q14 8 23 8q19 0 44 -41q19 -32 19 -62q0 -13 -19 -21l-279 -108q-60 -23 -69 -23 z"/>
<glyph glyph-name="icircumflex" horiz-adv-x="582" unicode="î" d="M67 22q0 29 37 29q3 0 27 -3q10 -2 23 -2q33 0 48.5 17.5t22.5 74.5t7 179v301q0 104 -18 137q-16 30 -71 38q-51 8 -51 33q0 23 50 33q114 22 181 60q44 25 67 25q10 0 16.5 -6.5t6.5 -16.5q0 -2 -12 -50q-15 -55 -15 -245v-309q0 -122 7 -179t22.5 -74.5t48.5 -17.5 q13 0 23 2q24 3 27 3q37 0 37 -29q0 -37 -67 -37q-21 0 -83 8q-70 7 -91 7q-23 0 -93 -7q-62 -8 -83 -8q-67 0 -67 37zM111 1082q-10 0 -22.5 13.5t-12.5 25.5q0 8 17 26l165 167q33 37 51 37t51 -37l165 -167q17 -18 17 -26q0 -12 -12.5 -25.5t-22.5 -13.5q-8 0 -37 21 l-161 114l-161 -114q-29 -21 -37 -21z"/>
<glyph glyph-name="idieresis" horiz-adv-x="582" unicode="ï" d="M67 22q0 29 37 29q3 0 27 -3q10 -2 23 -2q33 0 48.5 17.5t22.5 74.5t7 179v301q0 104 -18 137q-16 30 -71 38q-51 8 -51 33q0 23 50 33q114 22 181 60q44 25 67 25q10 0 16.5 -6.5t6.5 -16.5q0 -2 -12 -50q-15 -55 -15 -245v-309q0 -122 7 -179t22.5 -74.5t48.5 -17.5 q13 0 23 2q24 3 27 3q37 0 37 -29q0 -37 -67 -37q-21 0 -83 8q-70 7 -91 7q-23 0 -93 -7q-62 -8 -83 -8q-67 0 -67 37zM131 1111q-46 0 -73.5 28.5t-27.5 73.5q0 42 31.5 70t74.5 28q45 0 73 -28t28 -71q0 -42 -29.5 -71.5t-76.5 -29.5zM483 1111q-46 0 -73.5 28.5 t-27.5 73.5q0 42 31.5 70t74.5 28q45 0 73 -28t28 -71q0 -42 -29.5 -71.5t-76.5 -29.5z"/>
<glyph glyph-name="eth" horiz-adv-x="1107" unicode="ð" d="M259 475q0 -184 97.5 -307t232.5 -123q121 0 196.5 98.5t75.5 240.5q0 209 -89 318.5t-232 109.5q-120 0 -200.5 -88.5t-80.5 -248.5zM80 438q0 196 131.5 320.5t335.5 124.5q168 0 296 -100q-32 177 -177 349l-189 -70q-29 -10 -40 -10q-12 0 -31 19q-17 17 -17 26 q0 6 7 10t36 16l170 78q-108 107 -221 157q-46 21 -58 27.5t-12 11.5q0 9 23 21t36 12q22 0 94 -29q130 -57 236 -152l165 77q30 12 41 12q17 0 41 -30q22 -27 22 -41q0 -10 -9.5 -16t-38.5 -16l-148 -60q120 -134 185.5 -308t65.5 -361q0 -242 -124.5 -386.5t-349.5 -144.5 q-208 0 -339 136t-131 327z"/>
<glyph glyph-name="ntilde" horiz-adv-x="1197" unicode="ñ" d="M55 22q0 29 37 29q5 0 26 -3q10 -2 27 -2q33 0 48 18t22 74t7 179v299q0 106 -17 138q-17 30 -78 38q-50 8 -50 33q0 7 2.5 12t14 11t32.5 10q127 25 190 60q43 25 65 25q10 0 16.5 -6.5t6.5 -16.5q0 -6 -2 -14t-5.5 -18.5t-5.5 -17.5q-10 -37 -13 -128q56 94 142 147.5 t180 53.5q150 0 232 -87t82 -263v-276q0 -123 7 -179t22 -74t48 -18q14 0 26 2q21 3 26 3q37 0 37 -29q0 -37 -67 -37q-23 0 -85 8q-70 7 -89 7q-25 0 -95 -7q-62 -8 -85 -8q-67 0 -67 37q0 29 37 29q6 0 27 -3q10 -2 25 -2q33 0 48.5 17.5t22.5 74.5t7 179v228 q0 286 -208 286q-92 0 -168.5 -61t-105.5 -192v-261q0 -123 7 -179t22 -74t48 -18q17 0 27 2q21 3 26 3q37 0 37 -29q0 -37 -66 -37q-23 0 -87 8q-68 7 -87 7q-28 0 -96 -7q-64 -8 -87 -8q-66 0 -66 37zM390 1106q-14 0 -28.5 11.5t-14.5 20.5q0 75 56 136q50 53 113 53 q33 0 59 -9.5t66 -39.5q82 -62 115 -62q24 0 41.5 22.5t36.5 73.5q5 15 12 15q14 0 28.5 -11.5t14.5 -20.5q0 -75 -56 -136q-50 -53 -113 -53q-33 0 -59 9.5t-66 39.5q-84 63 -115 63q-24 0 -41.5 -23t-36.5 -74q-5 -15 -12 -15z"/>
<glyph glyph-name="ograve" horiz-adv-x="1099" unicode="ò" d="M245 501q0 -216 96.5 -334.5t239.5 -118.5q125 0 206 101t81 267q0 216 -96.5 334.5t-239.5 118.5q-125 0 -206 -101t-81 -267zM76 441q0 99 35.5 190.5t98 160.5t154 110t195.5 41q118 0 209.5 -37t147.5 -102t84.5 -148t28.5 -179q0 -99 -35.5 -190.5t-98 -160.5 t-154 -110t-195.5 -41q-118 0 -209.5 37t-147.5 102t-84.5 148t-28.5 179zM387 1221q-19 8 -19 21q0 30 19 62q25 41 44 41q9 0 23 -8l282 -179q18 -12 23.5 -17.5t5.5 -13.5q0 -14 -9.5 -25.5t-20.5 -11.5q-9 0 -69 23z"/>
<glyph glyph-name="oacute" horiz-adv-x="1099" unicode="ó" d="M245 501q0 -216 96.5 -334.5t239.5 -118.5q125 0 206 101t81 267q0 216 -96.5 334.5t-239.5 118.5q-125 0 -206 -101t-81 -267zM76 441q0 99 35.5 190.5t98 160.5t154 110t195.5 41q118 0 209.5 -37t147.5 -102t84.5 -148t28.5 -179q0 -99 -35.5 -190.5t-98 -160.5 t-154 -110t-195.5 -41q-118 0 -209.5 37t-147.5 102t-84.5 148t-28.5 179zM413 1090q-11 0 -20.5 11.5t-9.5 25.5q0 8 5.5 13.5t23.5 17.5l282 179q14 8 23 8q19 0 44 -41q19 -32 19 -62q0 -13 -19 -21l-279 -108q-60 -23 -69 -23z"/>
<glyph glyph-name="ocircumflex" horiz-adv-x="1099" unicode="ô" d="M245 501q0 -216 96.5 -334.5t239.5 -118.5q125 0 206 101t81 267q0 216 -96.5 334.5t-239.5 118.5q-125 0 -206 -101t-81 -267zM76 441q0 99 35.5 190.5t98 160.5t154 110t195.5 41q118 0 209.5 -37t147.5 -102t84.5 -148t28.5 -179q0 -99 -35.5 -190.5t-98 -160.5 t-154 -110t-195.5 -41q-118 0 -209.5 37t-147.5 102t-84.5 148t-28.5 179zM375 1082q-10 0 -22.5 13.5t-12.5 25.5q0 8 17 26l165 167q33 37 51 37t51 -37l165 -167q17 -18 17 -26q0 -12 -12.5 -25.5t-22.5 -13.5q-8 0 -37 21l-161 114l-161 -114q-29 -21 -37 -21z"/>
<glyph glyph-name="otilde" horiz-adv-x="1099" unicode="õ" d="M245 501q0 -216 96.5 -334.5t239.5 -118.5q125 0 206 101t81 267q0 216 -96.5 334.5t-239.5 118.5q-125 0 -206 -101t-81 -267zM76 441q0 99 35.5 190.5t98 160.5t154 110t195.5 41q118 0 209.5 -37t147.5 -102t84.5 -148t28.5 -179q0 -99 -35.5 -190.5t-98 -160.5 t-154 -110t-195.5 -41q-118 0 -209.5 37t-147.5 102t-84.5 148t-28.5 179zM345 1106q-14 0 -28.5 11.5t-14.5 20.5q0 75 56 136q50 53 113 53q33 0 59 -9.5t66 -39.5q82 -62 115 -62q24 0 41.5 22.5t36.5 73.5q5 15 12 15q14 0 28.5 -11.5t14.5 -20.5q0 -75 -56 -136 q-50 -53 -113 -53q-33 0 -59 9.5t-66 39.5q-84 63 -115 63q-24 0 -41.5 -23t-36.5 -74q-5 -15 -12 -15z"/>
<glyph glyph-name="odieresis" horiz-adv-x="1099" unicode="ö" d="M245 501q0 -216 96.5 -334.5t239.5 -118.5q125 0 206 101t81 267q0 216 -96.5 334.5t-239.5 118.5q-125 0 -206 -101t-81 -267zM76 441q0 99 35.5 190.5t98 160.5t154 110t195.5 41q118 0 209.5 -37t147.5 -102t84.5 -148t28.5 -179q0 -99 -35.5 -190.5t-98 -160.5 t-154 -110t-195.5 -41q-118 0 -209.5 37t-147.5 102t-84.5 148t-28.5 179zM395 1111q-46 0 -73.5 28.5t-27.5 73.5q0 42 31.5 70t74.5 28q45 0 73 -28t28 -71q0 -42 -29.5 -71.5t-76.5 -29.5zM747 1111q-46 0 -73.5 28.5t-27.5 73.5q0 42 31.5 70t74.5 28q45 0 73 -28 t28 -71q0 -42 -29.5 -71.5t-76.5 -29.5z"/>
<glyph glyph-name="divide" horiz-adv-x="895" unicode="÷" d="M373 329q0 31 23.5 52t55.5 21q33 0 53.5 -20.5t20.5 -53.5t-21.5 -55t-57.5 -22q-34 0 -54 21t-20 57zM80 554v85h735v-85h-735zM447 801q-34 0 -54 21t-20 57q0 31 23.5 52t55.5 21q33 0 53.5 -20.5t20.5 -53.5t-21.5 -55t-57.5 -22z"/>
<glyph glyph-name="oslash" horiz-adv-x="1099" unicode="ø" d="M397 110q82 -62 184 -62q125 0 206 101t81 267q0 175 -67 290zM333 178l409 605q-88 86 -210 86q-125 0 -206 -101t-81 -267q0 -203 88 -323zM161 -76l91 134q-88 63 -132 162.5t-44 220.5q0 99 35.5 190.5t98 160.5t154 110t195.5 41q146 0 253 -58l71 105 q8 13 42.5 23.5t64.5 10.5q16 0 16 -11q0 -5 -19 -32l-101 -149q143 -127 143 -355q0 -99 -35.5 -190.5t-98 -160.5t-154 -110t-195.5 -41q-120 0 -214 39l-67 -99q-9 -14 -43.5 -24t-63.5 -10q-16 0 -16 11q0 5 19 32z"/>
<glyph glyph-name="ugrave" horiz-adv-x="1167" unicode="ù" d="M188 328v288q0 106 -17 138q-12 21 -21 28.5t-31 11.5q-48 9 -48 33q0 25 49 35q111 22 162 50q43 25 60 25q10 0 16.5 -6.5t6.5 -16.5q0 -6 -2 -14t-5.5 -18.5t-5.5 -17.5q-14 -56 -14 -240v-256q0 -141 60 -204t159 -63q71 0 139 42.5t109 128.5l3 344v19q0 88 -17 119 q-17 30 -76 38q-50 8 -50 34q0 7 2.5 12t14 11t32.5 10q109 21 177 59q43 25 65 25q10 0 16.5 -6.5t6.5 -16.5q0 -6 -2 -14t-5.5 -18.5t-5.5 -17.5q-14 -56 -14 -246v-375q0 -75 16 -103t54 -28q12 0 36 8q18 6 28 6q13 0 21 -7.5t8 -18.5q0 -14 -12 -24t-45 -23 q-51 -20 -121 -65q-29 -19 -55 -19q-37 0 -61 84q-14 47 -15 89q-56 -78 -136.5 -120.5t-161.5 -42.5q-149 0 -234.5 82.5t-85.5 260.5zM407 1221q-19 8 -19 21q0 30 19 62q25 41 44 41q9 0 23 -8l282 -179q18 -12 23.5 -17.5t5.5 -13.5q0 -14 -9.5 -25.5t-20.5 -11.5 q-9 0 -69 23z"/>
<glyph glyph-name="uacute" horiz-adv-x="1167" unicode="ú" d="M188 328v288q0 106 -17 138q-12 21 -21 28.5t-31 11.5q-48 9 -48 33q0 25 49 35q111 22 162 50q43 25 60 25q10 0 16.5 -6.5t6.5 -16.5q0 -6 -2 -14t-5.5 -18.5t-5.5 -17.5q-14 -56 -14 -240v-256q0 -141 60 -204t159 -63q71 0 139 42.5t109 128.5l3 344v19q0 88 -17 119 q-17 30 -76 38q-50 8 -50 34q0 7 2.5 12t14 11t32.5 10q109 21 177 59q43 25 65 25q10 0 16.5 -6.5t6.5 -16.5q0 -6 -2 -14t-5.5 -18.5t-5.5 -17.5q-14 -56 -14 -246v-375q0 -75 16 -103t54 -28q12 0 36 8q18 6 28 6q13 0 21 -7.5t8 -18.5q0 -14 -12 -24t-45 -23 q-51 -20 -121 -65q-29 -19 -55 -19q-37 0 -61 84q-14 47 -15 89q-56 -78 -136.5 -120.5t-161.5 -42.5q-149 0 -234.5 82.5t-85.5 260.5zM433 1090q-11 0 -20.5 11.5t-9.5 25.5q0 8 5.5 13.5t23.5 17.5l282 179q14 8 23 8q19 0 44 -41q19 -32 19 -62q0 -13 -19 -21l-279 -108 q-60 -23 -69 -23z"/>
<glyph glyph-name="ucircumflex" horiz-adv-x="1167" unicode="û" d="M188 328v288q0 106 -17 138q-12 21 -21 28.5t-31 11.5q-48 9 -48 33q0 25 49 35q111 22 162 50q43 25 60 25q10 0 16.5 -6.5t6.5 -16.5q0 -6 -2 -14t-5.5 -18.5t-5.5 -17.5q-14 -56 -14 -240v-256q0 -141 60 -204t159 -63q71 0 139 42.5t109 128.5l3 344v19q0 88 -17 119 q-17 30 -76 38q-50 8 -50 34q0 7 2.5 12t14 11t32.5 10q109 21 177 59q43 25 65 25q10 0 16.5 -6.5t6.5 -16.5q0 -6 -2 -14t-5.5 -18.5t-5.5 -17.5q-14 -56 -14 -246v-375q0 -75 16 -103t54 -28q12 0 36 8q18 6 28 6q13 0 21 -7.5t8 -18.5q0 -14 -12 -24t-45 -23 q-51 -20 -121 -65q-29 -19 -55 -19q-37 0 -61 84q-14 47 -15 89q-56 -78 -136.5 -120.5t-161.5 -42.5q-149 0 -234.5 82.5t-85.5 260.5zM395 1082q-10 0 -22.5 13.5t-12.5 25.5q0 8 17 26l165 167q33 37 51 37t51 -37l165 -167q17 -18 17 -26q0 -12 -12.5 -25.5t-22.5 -13.5 q-8 0 -37 21l-161 114l-161 -114q-29 -21 -37 -21z"/>
<glyph glyph-name="udieresis" horiz-adv-x="1167" unicode="ü" d="M188 328v288q0 106 -17 138q-12 21 -21 28.5t-31 11.5q-48 9 -48 33q0 25 49 35q111 22 162 50q43 25 60 25q10 0 16.5 -6.5t6.5 -16.5q0 -6 -2 -14t-5.5 -18.5t-5.5 -17.5q-14 -56 -14 -240v-256q0 -141 60 -204t159 -63q71 0 139 42.5t109 128.5l3 344v19q0 88 -17 119 q-17 30 -76 38q-50 8 -50 34q0 7 2.5 12t14 11t32.5 10q109 21 177 59q43 25 65 25q10 0 16.5 -6.5t6.5 -16.5q0 -6 -2 -14t-5.5 -18.5t-5.5 -17.5q-14 -56 -14 -246v-375q0 -75 16 -103t54 -28q12 0 36 8q18 6 28 6q13 0 21 -7.5t8 -18.5q0 -14 -12 -24t-45 -23 q-51 -20 -121 -65q-29 -19 -55 -19q-37 0 -61 84q-14 47 -15 89q-56 -78 -136.5 -120.5t-161.5 -42.5q-149 0 -234.5 82.5t-85.5 260.5zM415 1111q-46 0 -73.5 28.5t-27.5 73.5q0 42 31.5 70t74.5 28q45 0 73 -28t28 -71q0 -42 -29.5 -71.5t-76.5 -29.5zM767 1111 q-46 0 -73.5 28.5t-27.5 73.5q0 42 31.5 70t74.5 28q45 0 73 -28t28 -71q0 -42 -29.5 -71.5t-76.5 -29.5z"/>
<glyph glyph-name="yacute" horiz-adv-x="950" unicode="ý" d="M75 -303q16 0 40 -9t38 -20q17 -13 38 -22.5t30 -9.5q22 0 35.5 3.5t38.5 24t49 59.5t59.5 116.5t77.5 188.5q-48 41 -136 231l-221 488q-31 66 -51.5 90.5t-64.5 36.5q-43 11 -43 37q0 10 11 17t30 7q26 0 71.5 -5.5t83.5 -5.5q53 0 103 5.5t76 5.5q68 0 68 -29 q0 -30 -80 -34q-36 -2 -48 -12t-12 -28q0 -15 30 -80l244 -551q0 2 2 6l170 501q37 102 36 123q0 21 -13.5 29.5t-48.5 11.5q-45 4 -63 11t-18 23q0 29 68 29q19 0 75 -5t95 -5q26 0 63.5 5t52.5 5q41 0 41 -25q0 -12 -10 -20.5t-39 -18.5q-56 -19 -86.5 -56t-70.5 -146 l-150 -408q-186 -512 -279 -633q-84 -108 -202 -108q-82 0 -129.5 30t-47.5 71q0 28 27.5 52t59.5 24zM323 1090q-11 0 -20.5 11.5t-9.5 25.5q0 8 5.5 13.5t23.5 17.5l282 179q14 8 23 8q19 0 44 -41q19 -32 19 -62q0 -13 -19 -21l-279 -108q-60 -23 -69 -23z"/>
<glyph glyph-name="thorn" horiz-adv-x="1169" unicode="þ" d="M369 221q39 -78 116.5 -125t165.5 -47q117 0 194 93t77 271q0 197 -82.5 312t-203.5 115q-79 0 -153.5 -50.5t-113.5 -133.5v-435zM214 -148v1250q0 96 -22 137q-18 31 -67 38q-50 8 -50 33t49 35q117 23 184 60q44 25 65 25q10 0 16.5 -6.5t6.5 -16.5q0 -6 -2 -14 t-5.5 -18.5t-5.5 -17.5q-14 -58 -14 -211v-379q58 84 138.5 130t171.5 46q190 0 299.5 -133t109.5 -342q0 -134 -60.5 -247t-168 -179.5t-239.5 -66.5q-144 0 -251 76v-199q0 -69 0.5 -108.5t4 -73.5t7.5 -48.5t14.5 -25t21.5 -12.5t31 -2q11 0 48 5q28 4 44 4q20 0 32 -9.5 t12 -23.5q0 -38 -76 -38q-48 0 -104 8q-49 7 -107 7q-27 0 -97 -7q-62 -8 -83 -8q-67 0 -67 40q0 29 37 29q5 0 26 -3q12 -2 24 -2q34 0 48.5 17t21.5 72.5t7 178.5z"/>
<glyph glyph-name="OE" horiz-adv-x="2028" unicode="Œ" d="M271 747q0 -142 43 -268.5t119 -219t186 -147t237 -54.5q99 0 191 32q45 16 60.5 37t15.5 67v938q0 50 -26 72.5t-104 46.5q-101 31 -213 31q-220 0 -364.5 -151t-144.5 -384zM100 675q0 198 97 357.5t256.5 246t347.5 86.5q122 0 230 -15q121 -17 213 -17q84 0 255 11 q175 12 363 12q28 0 37 -8.5t9 -35.5q0 -45 -7 -113q-6 -50 -13 -66t-22 -16q-10 0 -15.5 6.5t-11.5 23.5q-12 33 -28.5 50t-50.5 29q-107 35 -354 35h-89q-24 0 -30.5 -7t-6.5 -32v-421q126 -14 224 -14q109 0 144.5 7t52.5 34q33 54 55 54q27 0 27 -28q0 -10 -16 -58 q-19 -55 -19 -84q0 -12 2 -38q2 -24 2 -38q0 -72 -34 -72q-29 0 -29 46q0 37 -7 55t-28 26q-45 15 -172 15q-112 0 -202 -11v-237q0 -228 10 -365q74 -18 182 -18q144 0 225 14t134 53q30 20 57 69q12 21 19.5 28.5t19.5 7.5q21 0 21 -29q0 -12 -9 -38q-2 -5 -6 -18.5 t-9 -30t-10 -34.5q-12 -45 -18.5 -63t-22.5 -33t-37 -18t-63 -3q-191 0 -399 17q-113 10 -189 10q-58 0 -175 -16q-114 -16 -226 -16q-198 0 -355 92t-243 251.5t-86 356.5z"/>
<glyph glyph-name="oe" horiz-adv-x="1756" unicode="œ" d="M252 516q0 -217 96 -343t233 -126q116 0 194 95.5t78 274.5q0 216 -89.5 334.5t-230.5 118.5q-118 0 -199.5 -97t-81.5 -257zM1029 552h108q106 0 230 2q95 2 111 5q23 3 31 14.5t8 49.5q0 113 -62 180.5t-158 67.5q-104 0 -179.5 -87t-88.5 -232zM80 464q1 130 65.5 240 t176 174.5t244.5 64.5q119 0 217.5 -51t159.5 -142q65 92 166 142.5t220 50.5q163 0 255 -103.5t92 -259.5q0 -47 -13 -67.5t-42 -24.5q-34 -5 -237.5 -12t-356.5 -9q8 -188 98 -294.5t245 -106.5q130 0 211 84q36 36 58 36q15 0 24 -10.5t9 -26.5q0 -22 -30.5 -53 t-87.5 -64q-97 -57 -246 -57q-124 0 -220 51t-155 143q-65 -90 -167 -142t-224 -52q-112 0 -201.5 39.5t-145.5 107.5t-85.5 153.5t-29.5 181.5v7z"/>
<glyph glyph-name="circumflex" horiz-adv-x="606" unicode="ˆ" d="M105 1082q-10 0 -22.5 13.5t-12.5 25.5q0 8 17 26l165 167q33 37 51 37t51 -37l165 -167q17 -18 17 -26q0 -12 -12.5 -25.5t-22.5 -13.5q-8 0 -37 21l-161 114l-161 -114q-29 -21 -37 -21z"/>
<glyph glyph-name="tilde" horiz-adv-x="702" unicode="˜" d="M123 1106q-14 0 -28.5 11.5t-14.5 20.5q0 75 56 136q50 53 113 53q33 0 59 -9.5t66 -39.5q82 -62 115 -62q24 0 41.5 22.5t36.5 73.5q5 15 12 15q14 0 28.5 -11.5t14.5 -20.5q0 -75 -56 -136q-50 -53 -113 -53q-33 0 -59 9.5t-66 39.5q-84 63 -115 63q-24 0 -41.5 -23 t-36.5 -74q-5 -15 -12 -15z"/>
<glyph glyph-name="endash" horiz-adv-x="963" unicode="–" d="M104 530q-24 0 -24 18q0 24 10.5 45.5t22.5 21.5h747q23 0 23 -18q0 -24 -10.5 -45.5t-22.5 -21.5h-746z"/>
<glyph glyph-name="emdash" horiz-adv-x="1342" unicode="—" d="M104 530q-24 0 -24 18q0 24 10.5 45.5t22.5 21.5h1126q23 0 23 -18q0 -24 -10.5 -45.5t-22.5 -21.5h-1125z"/>
<glyph glyph-name="quoteleft" horiz-adv-x="531" unicode="‘" d="M272 931q-41 5 -68 59t-27 118q0 61 19 114t47.5 87t53 54t44.5 28q2 1 7 1q9 0 16.5 -7t7.5 -16q0 -20 -26 -41q-19 -15 -42.5 -56t-23.5 -74q0 -35 9 -60.5t22.5 -40t27 -26t25 -25t14.5 -30.5q0 -1 0.5 -3.5t0.5 -4.5q0 -27 -23 -52.5t-66 -25.5q-12 0 -18 1z"/>
<glyph glyph-name="quotesinglbase" horiz-adv-x="531" unicode="‚" d="M153 131q0 1 -0.5 3.5t-0.5 4.5q0 27 23 52.5t66 25.5q12 0 18 -1q41 -5 68 -59t27 -118q0 -61 -19 -114t-47.5 -87t-53 -54t-44.5 -28q-2 -1 -7 -1q-9 0 -16.5 7t-7.5 16q0 20 26 41q19 15 42.5 56t23.5 74q0 35 -9 60.5t-22.5 40t-27 26t-25 25t-14.5 30.5z"/>
<glyph glyph-name="quotedblleft" horiz-adv-x="821" unicode="“" d="M272 931q-41 5 -68 59t-27 118q0 61 19 114t47.5 87t53 54t44.5 28q2 1 7 1q9 0 16.5 -7t7.5 -16q0 -20 -26 -41q-19 -15 -42.5 -56t-23.5 -74q0 -35 9 -60.5t22.5 -40t27 -26t25 -25t14.5 -30.5q0 -1 0.5 -3.5t0.5 -4.5q0 -27 -23 -52.5t-66 -25.5q-12 0 -18 1zM562 931 q-41 5 -68 59t-27 118q0 61 19 114t47.5 87t53 54t44.5 28q2 1 7 1q9 0 16.5 -7t7.5 -16q0 -20 -26 -41q-19 -15 -42.5 -56t-23.5 -74q0 -35 9 -60.5t22.5 -40t27 -26t25 -25t14.5 -30.5q0 -1 0.5 -3.5t0.5 -4.5q0 -27 -23 -52.5t-66 -25.5q-12 0 -18 1z"/>
<glyph glyph-name="quotedblright" horiz-adv-x="821" unicode="”" d="M190 907q-2 -1 -7 -1q-9 0 -16.5 7t-7.5 16q0 20 26 41q19 15 42.5 56t23.5 74q0 35 -9 60.5t-22.5 40t-27 26t-25 25t-14.5 30.5q0 1 -0.5 3.5t-0.5 4.5q0 27 23 52.5t66 25.5q12 0 18 -1q41 -5 68 -59t27 -118q0 -61 -19 -114t-47.5 -87t-53 -54t-44.5 -28zM480 907 q-2 -1 -7 -1q-9 0 -16.5 7t-7.5 16q0 20 26 41q19 15 42.5 56t23.5 74q0 35 -9 60.5t-22.5 40t-27 26t-25 25t-14.5 30.5q0 1 -0.5 3.5t-0.5 4.5q0 27 23 52.5t66 25.5q12 0 18 -1q41 -5 68 -59t27 -118q0 -61 -19 -114t-47.5 -87t-53 -54t-44.5 -28z"/>
<glyph glyph-name="dagger" horiz-adv-x="885" unicode="†" d="M404 0l-23 1063h-205v85h205l19 445h85l18 -445h207v-85h-206l-24 -1063h-76z"/>
<glyph glyph-name="daggerdbl" horiz-adv-x="885" unicode="‡" d="M405 0l-25 534h-204v85h205l14 199l-13 245h-206v85h205l19 445h85l18 -445h206v-85h-207l-12 -245l14 -199h206v-85h-205l-25 -534h-75z"/>
<glyph glyph-name="ellipsis" horiz-adv-x="1470" unicode="…" d="M130 91q0 48 35 79.5t83 31.5q50 0 81 -31.5t31 -80.5t-32.5 -82t-85.5 -33q-51 0 -81.5 32t-30.5 84zM620 91q0 48 35 79.5t83 31.5q50 0 81 -31.5t31 -80.5t-32.5 -82t-85.5 -33q-51 0 -81.5 32t-30.5 84zM1110 91q0 48 35 79.5t83 31.5q50 0 81 -31.5t31 -80.5 t-32.5 -82t-85.5 -33q-51 0 -81.5 32t-30.5 84z"/>
<glyph glyph-name="perthousand" horiz-adv-x="2105" unicode="‰" d="M928 311q0 -119 50 -196.5t113 -77.5q150 0 150 264q0 130 -43.5 199t-110.5 69q-70 0 -114.5 -69t-44.5 -189zM1576 311q0 -119 50 -196.5t113 -77.5q150 0 150 264q0 130 -43.5 199t-110.5 69q-70 0 -114.5 -69t-44.5 -189zM806 294q0 147 84 242t205 95 q125 0 198.5 -91.5t73.5 -229.5q0 -145 -83.5 -240t-197.5 -95q-118 0 -199 88.5t-81 230.5zM1454 294q0 147 84 242t205 95q125 0 198.5 -91.5t73.5 -229.5q0 -145 -83.5 -240t-197.5 -95q-118 0 -199 88.5t-81 230.5zM375 771q150 0 150 264q0 130 -43.5 199t-110.5 69 q-70 0 -114.5 -69t-44.5 -189q0 -119 50 -196.5t113 -77.5zM370 709q-118 0 -199 88.5t-81 230.5q0 147 84 242t205 95q125 0 198.5 -91.5t73.5 -229.5q0 -145 -83.5 -240t-197.5 -95zM328 -14q0 6 14 32l673 1313q7 14 34 24t56 10q16 0 16 -11q0 -10 -12 -32l-673 -1313 q-8 -15 -35.5 -24.5t-56.5 -9.5q-16 0 -16 11z"/>
<glyph glyph-name="guilsinglleft" horiz-adv-x="586" unicode="‹" d="M385 205q-62 78 -115 128.5t-130 111.5q-30 23 -30 34q0 12 30 35q77 61 130 111.5t115 128.5q33 44 43 48q5 3 14 3q8 0 13.5 -7.5t5.5 -16.5q0 -33 -39 -90l-146 -212l146 -211q39 -57 39 -90q0 -9 -5.5 -16.5t-13.5 -7.5q-13 0 -21.5 8t-35.5 43z"/>
<glyph glyph-name="guilsinglright" horiz-adv-x="586" unicode="›" d="M144 154q-8 0 -13.5 7.5t-5.5 16.5q0 33 39 90l145 211l-145 212q-39 57 -39 90q0 9 5.5 16.5t13.5 7.5q13 0 21.5 -8t35.5 -43q62 -78 115 -128.5t130 -111.5q30 -23 30 -35q0 -11 -30 -34q-77 -61 -130 -111.5t-115 -128.5q-33 -44 -43 -48q-5 -3 -14 -3z"/>
<glyph glyph-name="Euro" horiz-adv-x="1391" unicode="€" d="M89 530q-24 0 -24 18q0 24 10.5 45.5t22.5 21.5h125q-1 10 -1 31q0 47 4 84h-137q-24 0 -24 18q0 24 10.5 45.5t22.5 21.5h143q26 114 84.5 213t143.5 174.5t200.5 119t245.5 43.5q178 0 316 -48q110 -38 110 -72q0 -14 -13 -36q-29 -52 -50 -147q-9 -41 -35 -41 q-28 0 -28 42q-1 104 -53 142q-114 80 -285 80q-78 0 -154.5 -31.5t-141.5 -89t-111 -148.5t-60 -201h725q23 0 23 -18q0 -24 -10.5 -45.5t-22.5 -21.5h-720v-7q0 -50 5 -108h645q23 0 23 -18q0 -24 -10.5 -45.5t-22.5 -21.5h-621q43 -212 170 -340t300 -128 q127 0 224.5 47.5t165.5 162.5q13 20 23 20q13 0 23 -21t10 -62q0 -39 -59 -93.5t-140 -89.5q-117 -51 -278 -51q-137 0 -251 46t-191 124.5t-125 176.5t-65 208h-142z"/>
<glyph glyph-name="trademark" horiz-adv-x="1592" unicode="™" d="M182 733q-33 0 -33 19q0 14 18 14q3 0 7.5 -0.5t5.5 -0.5q3 -1 12 -1q30 0 40 31t10 104l-1 448h-14q-113 0 -152 -27q-17 -9 -30 -46q-9 -23 -20 -23q-15 0 -15 17q0 2 9 34q7 24 8 53q5 64 20 64q9 0 23 -3q45 -5 81 -5h317q33 0 55 4q18 4 23 4q17 0 17 -16 q0 -27 -5 -42q-6 -29 -8 -39q-8 -68 -22 -68q-9 0 -14 29q-5 34 -21 49t-54 15h-108v-448q0 -74 9.5 -104.5t39.5 -30.5q9 0 11 1q2 0 6 0.5t7 0.5q18 0 18 -14q0 -19 -32 -19q-14 0 -38 4q-28 4 -60 4q-36 0 -64 -3q-35 -5 -46 -5zM643 751q0 16 21 18q20 0 33 3.5t26 21 t15 48.5q4 47 12 223t8 248q0 61 -46 68q-45 6 -45 19q0 19 23 19q17 0 41 -3.5t37 -3.5q16 0 35.5 1t23.5 1q11 0 19 -9.5t19 -31.5l224 -463l206 479q11 27 38 27q9 0 45.5 -1t41.5 -1q12 0 32 2.5t28 2.5q37 0 37 -19q0 -11 -28 -14q-29 -4 -45.5 -16t-15.5 -41l26 -485 q2 -46 21.5 -60.5t51.5 -14.5q21 -2 21 -18q0 -18 -31 -18q-14 0 -38 4t-71 4q-24 0 -44 -4q-36 -4 -62 -4q-33 0 -33 19q0 15 28 15q25 0 36 7t15 23q2 7 2 42v47q0 64 -20 428l-236 -541q-14 -29 -24 -29t-24 30l-225 463q-16 -249 -16 -430q0 -41 66 -41q18 0 18 -14 q0 -19 -32 -19q-18 0 -52 4q-21 4 -49 4q-20 0 -44 -4t-38 -4q-31 0 -31 18z"/>
</font>
</defs>
</svg>
